<svg xmlns="http://www.w3.org/2000/svg" width="400" height="400"><g fill-rule="evenodd"><path d="M32.096 5.575c-3.133 3.07-5.696 5.76-5.696 5.979 0 .219-.208.527-.462.684-.305.189-.352.108-.138-.238.214-.346.167-.427-.138-.238-.254.157-.462.575-.462.928 0 .354-.118.525-.263.38-.365-.364-1.337.504-1.337 1.193 0 .606.876 1.66 3.36 4.041.857.823 1.757 1.741 2 2.041 1.114 1.381 7.04 7.318 7.04 7.054 0-.163.268-.075.596.197.327.272.509.634.404.804-.105.17.111.555.481.855.571.463.622.461.334-.017-.232-.384-.191-.47.13-.272.257.159.372.445.255.634-.117.19.148.599.591.909.442.309.694.673.559.807-.134.135.219.361.786.504.567.142 1.264.556 1.548.919.461.591.441.602-.184.112-.411-.322-.7-.375-.7-.127 0 .232.341.53.757.662s.849.595.962 1.027c.114.433.481.787.817.787.335 0 .721.351.858.78.136.428.598.89 1.026 1.026.429.137.78.506.78.821 0 .315.283.573.629.573.882 0 1.933 1.079 1.267 1.302-.276.092.036.454.704.816.66.357 1.03.657.822.666-.207.009.233.466.978 1.016s1.248 1 1.117 1 .276.55.903 1.222l1.142 1.222 42.919-.022c47.406-.024 42.989.201 44.608-2.275.466-.713.478-.711.262.053-.131.464.142.255.651-.5.482-.714 1.051-1.191 1.264-1.059.213.132.487-.139.608-.601.12-.462.396-.84.612-.84.478 0 2.714-2.342 2.714-2.842 0-.197.18-.358.4-.358.22 0 .4-.227.4-.505s.405-.69.9-.915c.495-.225.853-.633.796-.906-.057-.273.213-.614.6-.757.665-.247 1.611-1.151 2.645-2.528.252-.336.978-1.011 1.613-1.5.635-.489.995-.89.8-.892-.195-.001.186-.36.846-.797.66-.437 1.02-.801.8-.81-.22-.008-.085-.198.3-.422.385-.224.7-.669.7-.988 0-.319.198-.58.44-.58.547 0 2.76-2.332 2.76-2.909 0-.233.12-.304.268-.157.362.363 1.732-.918 1.732-1.62 0-.308.154-.466.342-.35.365.226 2.016-1.34 2-1.897-.005-.184.125-.454.289-.6.163-.147.151.003-.028.333s.039.24.484-.2c.446-.44.73-.939.632-1.11-.098-.17.045-.26.319-.2.273.061.736-.34 1.029-.89.292-.55.712-.955.932-.9 1.475.368.01-1.604-3.716-5-1.026-.935-1.802-1.7-1.724-1.7.353 0-3.749-3.967-4.539-4.389-.489-.262-.779-.585-.646-.718.133-.134-.426-.927-1.242-1.763L155.848.01 96.82.003 37.792-.005l-5.696 5.58m209.427-4.456c-.593.595-1.763 1.69-2.6 2.434-.838.744-1.837 1.824-2.22 2.4-.384.576-.699.925-.7.776-.002-.15-1.713 1.436-3.803 3.522-3.647 3.641-4.492 4.949-3.2 4.949.33 0 .6.258.6.573 0 .315.384.695.853.844.67.212.734.346.3.621-.437.276-.405.351.156.356.389.003.906.441 1.148.972.242.531.779 1.055 1.192 1.163.413.108.751.471.751.807 0 .335.36.724.8.864.44.14.803.557.806.927.005.581.059.591.394.073.337-.521.389-.513.394.057.003.362.278.762.61.889.332.127.563.372.513.543-.12.409 10.813 11.247 11.079 10.982.112-.112.204-.032.204.178 0 .558 9.205 9.969 9.636 9.851.2-.055.364.08.364.3 0 .264 14.533.4 42.8.4 28.267 0 42.8-.136 42.8-.4 0-.22.191-.4.424-.4.233 0 .309.225.17.5-.139.275.033.14.384-.3.35-.44.87-1.078 1.155-1.418.285-.339.636-.924.78-1.3.144-.375.507-.682.807-.682.3 0 .786-.45 1.08-.999.294-.55.612-.923.706-.829.094.094.829-.562 1.632-1.458.804-.896 1.89-2.008 2.413-2.472 2.265-2.005 4.162-4.111 4.504-4.997.202-.526.468-.855.592-.731.298.298 2.553-1.872 2.553-2.457 0-.251.168-.457.373-.457s1.411-.99 2.68-2.2c1.27-1.21 2.198-2.2 2.064-2.2-.134 0 1.511-1.755 3.656-3.9 2.272-2.272 3.821-4.132 3.711-4.456-.128-.379-.013-.455.364-.238.304.175.012-.275-.648-.999-2.512-2.755-2.958-3.133-3.148-2.668-.104.253-.203.146-.22-.239-.018-.385-.332-.7-.699-.7-.366 0-.557-.109-.424-.243.348-.347-.637-1.317-1.071-1.053-.199.121-.246.033-.105-.195.264-.428-3.148-4.109-3.809-4.109-.204 0-.271-.162-.148-.361.123-.199-.362-.736-1.076-1.193-.715-.458-1.141-.836-.946-.839.195-.004-.104-.367-.663-.807-1.007-.792-1.608-.8-59.954-.781L242.6.039l-1.077 1.08m-67.701 20.112c-.427.431-.819 1.067-.87 1.413-.116.791-.552 1.26-.552.594 0-.347-.179-.316-.6.105-.33.33-.6.773-.6.986 0 .212-.281.493-.625.625-.356.137-.5.444-.335.711.196.317.076.388-.37.217-.398-.153-.623-.068-.565.214.052.257-.173.476-.5.486-.327.01-.85.558-1.162 1.218-.312.66-.752 1.271-.977 1.357-.656.252-3.662 3.413-3.56 3.743.052.165-.06.3-.248.3-.447 0-5.409 4.795-4.983 4.816.179.009-.145.272-.72.584-.574.312-1.269 1.109-1.542 1.77-.274.661-.614 1.164-.756 1.119-.141-.046-.702.231-1.246.614-.626.441-.773.701-.4.709.403.008.337.158-.211.473-.758.437-2.837 2.467-4.245 4.146-.355.423-1.3 1.369-2.1 2.101l-1.455 1.333V125.208l2.1 2.36c1.155 1.298 2.323 2.293 2.595 2.21.273-.082.459-.021.415.136-.148.527.926 2.111 1.281 1.891.193-.119.466.146.607.589.141.443.469.807.729.809.26.001.78.541 1.154 1.2.375.658.96 1.197 1.3 1.197.341 0 .619.27.619.6 0 .333.356.6.8.6.44 0 .823.18.85.4.028.22.072.565.1.767.028.201.214.516.414.7.212.193.244.123.077-.167-.159-.275-.098-.5.135-.5s.424.265.424.59c0 .686 4.504 5.41 5.158 5.41.243 0 .442.201.442.447 0 .721 10.786 11.154 11.525 11.147.541-.005.565-.076.122-.356-.441-.279-.395-.401.226-.598.992-.314 3.727-2.805 3.727-3.394 0-.245.18-.446.4-.446.22 0 .4-.27.4-.6 0-.33.135-.601.3-.602.165-.001 1.02-.663 1.9-1.471.88-.808 1.645-1.437 1.7-1.398.055.039.085-.042.067-.179-.018-.138.477-.587 1.1-.998.623-.411 1.012-.748.864-.749-.147-.002.466-.723 1.364-1.603.898-.88 1.784-1.6 1.969-1.6.185 0 .336-24.009.336-53.353V34.895l-3.479-3.448c-1.913-1.896-3.758-3.45-4.1-3.453-.547-.006-.549-.053-.021-.394.34-.22.399-.39.135-.394-.256-.003-1.508-1.041-2.783-2.306-1.276-1.265-2.386-2.24-2.469-2.167-.082.074-.27 0-.416-.164-.147-.163-.042-.168.233-.01.275.159.5.141.5-.039 0-.491-1.721-1.504-2.34-1.377-.297.061-.422-.082-.277-.316.452-.73-.742-.421-1.561.404m47.263.057c-.393.408-.589.96-.435 1.227.153.267.131.352-.049.188-.413-.374-1.467.466-1.176.938.119.192-.094.231-.474.085-.527-.203-.63-.108-.435.4.185.482-.016.734-.73.913-.542.136-.986.419-.986.628 0 .209.208.252.462.095.288-.178.353-.11.172.183-.159.257-.469.357-.689.221-.219-.135-.496.126-.615.581-.119.454-.557.935-.973 1.067-.416.132-.757.39-.757.573 0 .321-1.385 1.768-3.97 4.148-.679.626-1.114 1.345-.968 1.6.147.256.119.332-.061.168-1.387-1.256-1.401-.698-1.401 53.946 0 29.343.146 53.351.325 53.351.424 0 .982.549 6.657 6.546 2.631 2.78 5.016 5.054 5.3 5.054.285 0 .473.202.418.448-.055.247.419.745 1.054 1.107l1.153.659 15.147-15.151 15.146-15.152V50.884l-8.192-8.242c-4.506-4.533-8.364-8.242-8.573-8.242-.21 0-.488-.337-.619-.748-.323-1.02-4.616-5.48-4.617-4.797 0 .3-.315-.085-.7-.855-.384-.77-.969-1.4-1.299-1.4-.33 0-.6-.21-.6-.467 0-.256-.135-.601-.3-.766-.165-.165-.304-.045-.309.266-.005.312-.31-.044-.678-.791-.368-.747-.994-1.443-1.391-1.546-.397-.104-.722-.406-.722-.671 0-1.593-2.944-2.55-4.115-1.337m157.115.772c-.88.891-1.6 1.782-1.6 1.98 0 .198-.116.315-.258.26-.469-.182-1.866 1.342-2.105 2.296-.13.516-.761 1.169-1.407 1.455-.645.285-1.089.654-.987.819.274.443-1.407 2-1.858 1.721-.212-.131-.385-.041-.385.2 0 .241-2.25 2.679-5 5.417s-5 5.079-5 5.202c0 .123-.386.621-.859 1.107-.472.486-.712.613-.533.283.179-.33-.322.075-1.114.9-.792.825-1.555 1.862-1.696 2.306-.14.443-.424.702-.63.574-.205-.127-.482.051-.614.395-.132.344-.471.625-.754.625-.283 0-.628.295-.766.657-.22.572-.161.586.457.112.39-.3.271-.053-.265.547-.568.638-1.079.921-1.228.681-.142-.231-.492.032-.794.595-.297.555-.689 1.008-.872 1.008-.182 0-.288 16.515-.235 36.7l.097 36.7.206-36.2.206-36.2.097 36.705.097 36.704 5.771 5.796c3.174 3.187 5.964 5.795 6.2 5.795.236 0 .429.147.429.327 0 .54 4.192 4.873 4.715 4.873.267 0 .485.171.485.38s1.215 1.599 2.7 3.09c1.485 1.492 3.195 3.325 3.8 4.076.605.75 1.1 1.227 1.1 1.06 0-.167.268-.082.596.19.327.272.489.666.359.876-.129.21.143.481.605.602.462.12.84.468.84.773 0 .304.3.553.667.553.366 0 .555.111.419.248-.258.257.654 1.352 1.125 1.352.148 0 .871-.602 1.608-1.339.736-.736 1.978-1.849 2.76-2.472.781-.623 1.421-1.381 1.421-1.685 0-.303.18-.44.4-.304.22.136.4-.033.4-.376 0-.343.234-.624.521-.624.59 0 3.879-3.318 3.879-3.914 0-.214.516-.603 1.147-.864.63-.261 1.377-.907 1.66-1.435.282-.528.686-.853.896-.723.23.142.269-.123.097-.664-.195-.613-.145-.813.157-.626.323.199.443-14.023.443-52.531 0-43.11-.096-52.862-.524-53.123-.288-.176-.783-.701-1.1-1.166-.317-.466-.756-.871-.976-.9-.22-.03-.4-.207-.4-.395 0-.616-4.754-5.211-5.143-4.97-.21.129-.267.051-.128-.174.139-.224-.135-.747-.607-1.162-.473-.414-.711-.5-.529-.191.223.379.18.469-.131.276-.254-.157-.462-.455-.462-.662 0-.207-.326-.702-.724-1.1-.399-.399-.984-1.079-1.3-1.511-2.029-2.773-3.317-2.99-5.376-.905M34.849 149.849C24.534 160.165 22.626 162.4 24.139 162.4c.296 0 .701.338.9.751.198.414 1.205 1.475 2.237 2.358 1.031.884 1.831 1.671 1.778 1.749-.171.249 5.332 5.422 5.544 5.211.111-.111.202-.021.202.2 0 .443 9.993 10.615 10.012 10.193.007-.144.196.053.42.438.385.661 3.254.7 51.324.7h50.917l1.663-1.631c.915-.897 1.664-1.797 1.664-2 0-.203.274-.369.609-.369.334 0 .813-.45 1.064-1 .25-.55.716-1 1.034-1 .341 0 .487-.238.356-.58-.135-.352.088-.678.57-.831 1.072-.34 2.838-2.15 2.551-2.615-.127-.206.049-.374.392-.374s.624-.18.624-.4c0-.22.315-.403.7-.406.598-.005.613-.063.1-.394-.502-.324-.475-.389.167-.394.421-.003.646-.126.499-.274-.302-.301.866-1.732 1.413-1.732.587 0 3.521-2.887 3.521-3.464 0-.295.156-.536.348-.536.465 0 4.852-4.37 4.852-4.835 0-.201-.281-.365-.624-.365-.343 0-.527-.156-.409-.347.206-.333-1.285-1.958-1.609-1.753-.521.33-1.007.004-.799-.537.163-.424-.022-.707-.553-.845-.438-.115-.722-.33-.631-.478.092-.148-2.52-2.939-5.804-6.203-3.284-3.263-5.971-6.014-5.971-6.114 0-.437-1.132-1.258-1.386-1.004-.154.155-.221.077-.147-.171.073-.249-.542-1.113-1.367-1.92-.825-.806-1.503-1.683-1.506-1.947-.004-.299-.148-.257-.38.109-.314.497-.424.465-.693-.2-.317-.781-.902-.79-50.972-.79H46.098l-11.249 11.249m-24.846 24.872-7.203 7.12v105.62l.93.873c.511.48 1.08.737 1.264.57.184-.167.208-.083.053.186-.167.291.226.942.966 1.6 2.018 1.794 2.919 2.73 4.104 4.264.614.795 1.367 1.446 1.673 1.446.306 0 .67.36.81.8.14.44.557.803.927.806.498.005.54.09.162.331-.371.235-.233.451.502.786.558.254.968.69.911.97-.056.279.112.466.374.415.261-.05.585.255.72.68.711 2.239 1.525 1.651 11.219-8.106 5.135-5.169 9.227-9.506 9.094-9.64-.133-.133.015-.242.329-.242.315 0 .75-.385.967-.855.217-.47.534-.826.703-.791.465.095 1.435-.91 1.22-1.264-.103-.17.033-.26.303-.2.27.061.925-.52 1.457-1.29.531-.77 1.331-1.535 1.777-1.701.446-.166.904-.659 1.018-1.096.114-.437.341-.712.504-.611.163.101.728-.301 1.255-.892.649-.729.708-.886.181-.488-.546.414-.683.432-.461.063.174-.288.759-.693 1.301-.899.542-.206.874-.555.737-.775-.136-.221.03-.401.368-.401.55 0 .617-3.95.628-36.8.008-25.857-.115-36.8-.416-36.8-.235 0-.336-.147-.225-.327.235-.38-1.602-2.473-2.171-2.473-.211 0-.384-.194-.384-.431 0-.458-2.164-2.769-2.593-2.769-.14 0-.14.225-.001.5s-.005.185-.32-.2c-.316-.385-.779-.7-1.03-.7s-.456-.364-.456-.81c0-.488-.384-.956-.966-1.177-.531-.202-1.096-.779-1.256-1.282-.16-.503-.824-1.414-1.476-2.023-1.285-1.2-1.697-1.394-1.291-.608.142.275-.113.05-.567-.5-.455-.55-.83-1.147-.835-1.327-.013-.478-2.844-3.071-3.365-3.082-.244-.005-.73-.59-1.08-1.3-.35-.71-.784-1.23-.964-1.155-.181.075-.488-.15-.684-.5-.196-.35-.617-.636-.936-.636-.319 0-.58-.249-.58-.553 0-.305-.365-.649-.811-.766-.447-.117-.762-.438-.7-.714.061-.276-.297-.715-.796-.975-1.227-.64-1.654-1.103-.681-.74.455.17.026-.467-1.012-1.504-.99-.989-1.999-1.732-2.243-1.652-.243.08-.673-.411-.955-1.09-.489-1.182-1.464-2.006-2.373-2.006-.232 0-3.664 3.204-7.626 7.121m205.097.095-7.1 7.154v53.188c0 52.837.005 53.19.8 53.442.44.14.8.507.8.817 0 .309.54.842 1.2 1.183.66.341 1.2.717 1.2.834 0 .117-.225.082-.5-.079-.275-.16.04.241.7.892.66.651 1.335 1.121 1.5 1.045.165-.077.301.006.303.184.002.178.992 1.4 2.2 2.716 1.208 1.315 2.197 2.525 2.197 2.687 0 .163.27.192.6.066.409-.157.6.022.6.563 0 .437.315 1.041.7 1.343.636.499.649.485.143-.16-.485-.619-.475-.678.077-.466.348.133.689.632.757 1.109.173 1.214 2.148 1.448 2.513.297.142-.448.4-.773.573-.723.172.051 1.286-.892 2.475-2.094s1.807-1.922 1.372-1.6c-.434.322 4.201-4.411 10.3-10.52 6.1-6.108 11.09-11.293 11.09-11.523 0-.23.168-.315.372-.188.205.126.517.002.694-.276.328-.517.391-.724.49-1.607.043-.386.132-.38.388.024.251.395.495.276.994-.486.604-.921.662-4.263.662-38.01v-37l-.834-.446c-.459-.246-.748-.533-.643-.639.25-.249-1.642-2.143-2.141-2.143-.21 0-.382-.156-.382-.348 0-.398-10.807-11.252-11.204-11.252-.143 0-.498-.444-.789-.986-.29-.543-.643-.916-.783-.829-.141.087-.581-.324-.978-.913-.397-.59-1.331-1.522-2.075-2.072-.745-.55-1.451-1.286-1.569-1.636-.118-.35-.662-.875-1.209-1.168-.546-.292-.994-.726-.996-.964-.001-.237-.625-.856-1.386-1.374-.761-.519-1.493-1.286-1.626-1.706-.134-.42-.372-.684-.53-.586-.158.097-.634-.339-1.057-.97-.613-.911-2.293-2.127-2.717-1.965-.044.017-3.276 3.25-7.181 7.185m163.7-6.416c-.44.44-.8.971-.8 1.179 0 .652-1.911 2.488-2.076 1.994-.097-.291-.368-.196-.739.26-.516.635-.514.679.015.367.518-.305.525-.261.051.323-.302.372-.792.677-1.09.677-.297 0-.82.54-1.161 1.2-.341.66-.717 1.2-.834 1.2-.117 0-.099-.225.04-.5s-.024-.158-.364.259c-.339.417-.504.94-.367 1.162.141.229.049.279-.214.117-.56-.346-2.93 2.127-2.58 2.692.136.221.038.267-.223.106-.274-.17-.586.041-.761.514-.164.441-.477.834-.697.873-.571.102-10.505 10.338-10.266 10.578.11.11.018.199-.204.199-.43 0-2.72 2.172-4.796 4.55-.696.798-1.461 1.45-1.7 1.45-.545 0-.571 1.068-.034 1.4.263.163.367 12.599.303 36.324l-.097 36.076-.208-36.2-.208-36.2-.087 36.519c-.049 20.493.065 36.424.26 36.304.19-.118.44.144.554.581.114.438.495.796.846.796.35 0 .637.204.637.453 0 .544 2.873 3.36 3.3 3.235.165-.048.3.124.3.383s2.295 2.751 5.1 5.538c2.805 2.787 5.308 5.41 5.563 5.829.254.419.673.713.93.652.256-.06.368.05.248.244-.211.34 2.687 3.216 3.274 3.25.157.009.285.195.285.415 0 .623 2.203 2.801 2.834 2.801.311 0 .521.16.466.356-.055.197.333.737.861 1.2.529.464.856.844.728.844s.52.774 1.439 1.721c.92.946 1.788 1.667 1.93 1.602.142-.065.361.151.488.479.126.329.408.598.628.598.715 0 2.875-2.397 2.584-2.868-.166-.269-.105-.346.151-.188.239.147.547-.091.687-.53.139-.439.398-.756.576-.706.422.12 4.256-3.362 4.136-3.756-.05-.167.268-.417.707-.557.439-.139 1.056-.87 1.371-1.624.315-.754.858-1.371 1.206-1.371.349 0 .797-.405.996-.9.199-.495.373-.681.387-.414.014.277.423.105.951-.4.509-.487.858-1.021.776-1.186-.082-.165.041-.3.274-.3.296 0 .424-16.004.424-53.134v-53.134l-1.197-1.066c-.658-.586-1.388-1.066-1.623-1.066-.235 0-.345-.135-.244-.3.101-.165-.728-1.2-1.842-2.3-1.114-1.1-1.878-1.747-1.698-1.438.221.378.177.468-.134.276-.254-.157-.462-.462-.462-.678 0-.453-1.508-2.155-1.923-2.17-.619-.024-1.869-.966-1.297-.978.735-.015-.151-1.012-.9-1.012-.264 0-.48-.27-.48-.6 0-.33-.394-.773-.875-.984-.482-.212-.96-.707-1.063-1.1-.256-.978-2.049-.929-3.062.084M52.159 278.94c-.858.847-1.567 1.747-1.577 2-.01.253-.208.424-.439.38-.231-.043-1.123.658-1.982 1.559-.858.901-1.336 1.511-1.061 1.356.275-.155.5-.113.5.093 0 .206-.538.598-1.195.87s-1.096.654-.976.848c.12.195-.062.354-.405.354s-.579.217-.524.482c.055.265-.08.493-.3.506-.764.046-1.412.67-1.145 1.101.15.243.085.321-.148.177-.475-.293-1.433.675-1.048 1.06.139.138-.223.432-.804.653-.58.221-1.055.676-1.055 1.011 0 .336-.21.565-.467.51-.257-.055-.685.316-.95.825-.265.509-.6.909-.744.89-.145-.02-1.004.824-1.91 1.875-.906 1.05-2.566 2.804-3.688 3.897-1.123 1.093-1.996 2.128-1.941 2.3.055.172-.066.313-.269.313-.495 0-6.431 5.861-6.431 6.35 0 .473 12.7 13.25 13.17 13.25.185 0 .431.36.546.8.208.795.546.8 59.043.8h58.834l6.404-6.409c3.521-3.525 6.403-6.564 6.403-6.753 0-.19.374-.443.832-.562.914-.239.971-2.162.059-1.976-.27.055-.491-.094-.491-.331 0-.686-2.349-2.847-2.796-2.572-.222.138-.426.06-.454-.173a62.816 62.816 0 0 0-.118-.924c-.038-.275-.28-.457-.538-.404-.259.053-.68-.307-.936-.8-.609-1.17-4.383-4.925-4.82-4.796-.186.055-.338-.088-.338-.317 0-.23-1.035-1.434-2.3-2.677-1.265-1.242-2.03-2.102-1.7-1.911.33.191-.11-.394-.977-1.3-.868-.905-1.723-1.557-1.9-1.447-.178.11-.323-.081-.323-.424 0-.343-.193-.624-.429-.624-.235 0-.698-.27-1.028-.6-.33-.33-.489-.6-.353-.6.135 0-.249-.495-.854-1.1-.606-.605-1.358-1.041-1.673-.97-.381.087-.49-.084-.325-.512.166-.432-.068-.785-.714-1.08-.528-.241-.884-.64-.79-.888.093-.247-.343-.793-.97-1.212-.627-.419-1.476-1.261-1.886-1.871-.411-.611-.861-1.039-1.002-.952-.14.087-.469-.241-.73-.729l-.474-.886H53.718l-1.559 1.54m206.066-1.3c.081.132-.293.475-.832.764-.539.288-1.085.855-1.213 1.26-.129.405-.412.736-.631.736-.218 0-.285.18-.149.4.136.22.042.4-.209.4-.25 0-2.07 1.665-4.042 3.7-1.973 2.035-4.482 4.6-5.576 5.7-13.156 13.231-15.973 16.154-15.973 16.571 0 .262-.167.373-.371.247s-.487.134-.628.579c-.261.821 5.107 6.744 5.89 6.499.182-.057.452.213.6.6.363.951 2.677 3.304 3.249 3.304.253 0 .417.135.365.3-.123.386 2.798 3.3 3.308 3.3.213 0 .342.225.287.5-.165.827 116.22.924 117.96.098 1.27-.602 3.34-2.727 3.34-3.429 0-.203.264-.369.586-.369.322 0 .758-.315.969-.7.21-.385.981-1.28 1.714-1.988 7.388-7.15 8.498-8.512 6.931-8.512-.33 0-.6-.192-.6-.427 0-.421-3.385-3.861-3.924-3.988-.152-.036-.257-.182-.233-.325.023-.143-.652-.935-1.5-1.76-.849-.825-1.543-1.382-1.543-1.238 0 .144-.356-.06-.791-.453-.434-.394-.695-.871-.578-1.06.117-.189-.457-1.02-1.275-1.846-.818-.827-1.333-1.233-1.145-.903.293.514.247.522-.321.062-.366-.296-.625-.732-.577-.968.048-.236-.363-.662-.913-.948-.55-.286-1-.69-1-.899 0-.209-.164-.53-.364-.714-.212-.193-.244-.123-.077.167.159.275.098.5-.135.5s-.424-.288-.424-.64c0-.352-1.665-2.318-3.7-4.37s-4.225-4.374-4.868-5.16c-.642-.787-1.379-1.43-1.638-1.43-.599 0-1.873-1.388-1.561-1.7.13-.129-.14-.436-.599-.682-.459-.245-.834-.665-.834-.932 0-.378-9.652-.486-43.562-.486-23.959 0-43.495.108-43.413.24M95.439 339.064c-.72.206-1.149.495-2.405 1.617-.296.264-.649.371-.784.236-.134-.135-.358.321-.496 1.013-.138.691-.397 1.167-.574 1.058-1.172-.725-1.187 5.717-.017 7.36.46.647.837 1.369.837 1.606 0 .237.452.544 1.005.683.553.139 1.17.547 1.371.906.535.957 6.356.879 6.9-.092.205-.367.533-.569.729-.448.195.121.553-.151.795-.603.242-.452.598-.725.791-.605.193.119.481-.191.639-.689.158-.498.216-.932.129-.964-.088-.032.159-.409.547-.838 1.266-1.4.043-8.338-1.322-7.494-.211.13-.384-.048-.384-.396 0-.349-.431-.798-.958-.998-.527-.2-1.022-.554-1.1-.786-.159-.472-4.52-.905-5.703-.566M246 355.2v4h-5.2V370h4.8l.031 7.5c.033 8.023.23 10.966.757 11.294.181.113.535.971.786 1.906.251.935.634 1.7.851 1.7.217 0 .566.45.775 1 .209.55.635 1 .947 1 .312 0 .677.285.81.633.134.349.463.56.732.471.268-.09.888.237 1.378.726.622.623 1.766 1.031 3.811 1.362 1.607.26 3.223.631 3.59.824.732.385 10.792.404 10.555.021-.08-.13.285-.263.813-.295.622-.037.863.103.685.4-.204.341-.127.343.302.009.317-.247 1.885-.561 3.484-.697 1.599-.136 3.638-.364 4.531-.506l1.624-.26-.211-1.644c-.116-.904-.222-2.094-.237-2.644-.021-.795-.106-.877-.414-.4-.288.445-.398.188-.427-1-.116-4.775-.669-6.636-1.892-6.374-6.235 1.335-8.454 1.622-11.799 1.529-1.715-.048-3.335-.258-3.6-.466-.265-.208-.977-.497-1.582-.641-.721-.173-1.1-.525-1.1-1.022 0-.418-.225-.834-.5-.926-.365-.121-.537-1.914-.635-6.633l-.135-6.467 9.535.04c5.402.022 9.102.179 8.535.36-.82.263-.676.322.8.332 1.351.009 1.6-.074 1-.332-.763-.328-.759-.345.1-.372.86-.027.901-.184.933-3.528.018-1.925.119-4.03.224-4.677.105-.648.087-1.593-.041-2.1l-.231-.923H260v-8h-14v4m65.133 2.6c-.125.125-1.064.244-2.088.264-1.023.021-1.953.187-2.066.369-.112.183-.453.237-.756.121-.303-.117-1.084.064-1.736.401-.652.337-1.294.505-1.427.372-.132-.133-.487-.037-.787.213-.301.249-.665.335-.81.19-.145-.145-.263-.059-.263.191s-.27.35-.6.224c-.33-.127-.6-.031-.6.212 0 .244-.256.443-.569.443-.313 0-1.123.466-1.8 1.036-.677.569-1.231.923-1.231.786 0-.289-2.812 2.467-2.817 2.762-.002.108-.432.66-.957 1.225-1.331 1.437-2.134 3.277-2.446 5.602-.146 1.094-.367 2.155-.49 2.359-.516.853-.526 5.905-.013 6.538.388.479.394.568.023.345-.318-.191-.5-.064-.5.347 0 .356.18.536.4.4.238-.147.4.337.4 1.199 0 1.698.773 5.001 1.171 5.001.151 0 .594.722.983 1.604.389.883.874 1.502 1.077 1.377.203-.126.369.052.369.395s.18.624.4.624c.22 0 .4.226.4.501 0 .52 4.66 3.688 5.446 3.703.245.004.704.222 1.02.484.315.263 1.33.598 2.254.746.924.147 1.68.395 1.68.55 0 .156.225.292.5.303.275.012 1.85.158 3.5.325 6.237.633 17.912.164 18.489-.742.208-.328.302-.289.311.13.008.39.115.446.306.16.162-.243.834-.561 1.494-.708.66-.146 1.42-.318 1.688-.381.269-.063.614-.24.767-.393.153-.153.619-.278 1.035-.278.417 0 .646-.18.51-.4-.207-.334.383-.595.7-.31.361.325 3.053-2.965 3.283-4.012.155-.707.437-1.19.625-1.073.189.117.358-.107.376-.496.017-.39.073-1.789.124-3.109l.092-2.4-2-.063c-1.1-.035-3.755-.103-5.9-.151-2.145-.048-3.9-.245-3.9-.437 0-.769-1.601-.332-1.65.451-.027.44-.072 1.01-.1 1.268-.248 2.317-14.191 3.794-17.11 1.812-.821-.558-1.107-.603-1.268-.2-.139.345-.219.294-.24-.153-.018-.37-.373-.781-.789-.913-.416-.132-.978-.775-1.249-1.427-.27-.653-.628-1.187-.796-1.187-.168 0-.392-.456-.499-1.014l-.194-1.015 17.748.115c11.62.074 17.763-.024 17.792-.286.456-4.081.117-12.747-.484-12.376-.193.12-.252-.044-.129-.363.122-.319.03-.699-.205-.844-.235-.145-.427-.695-.427-1.222s-.45-1.409-1-1.959-1-1.09-1-1.2c0-.46-2.036-2.185-3.172-2.688-.676-.299-1.228-.672-1.228-.83 0-.299-2.743-1.133-4.049-1.232-.413-.031-.751-.209-.751-.396 0-.187-.315-.308-.7-.269-.385.039-.79.035-.9-.008-1.052-.418-12.914-.966-13.267-.613m58.056-.063c-.116.12-1.781.253-3.7.295-1.919.042-3.489.236-3.489.43s-.45.24-1 .102c-.616-.154-1-.081-1 .193 0 .243-.135.406-.3.36-.734-.203-3.714.536-3.508.87.126.204-.135.301-.581.215-.446-.086-.811.001-.811.194s-.405.477-.9.633c-.85.267-2.7 1.942-2.7 2.445 0 .128-.381.563-.847.967-.466.404-.751.988-.632 1.298.119.31.042.738-.17.95-.944.944-.6 8.495.403 8.829.245.082.446.381.446.665 0 1.509 4.341 4.617 6.449 4.617.413 0 .751.149.751.331 0 .395 3.582 1.269 5.197 1.269.625 0 1.196.158 1.27.351.073.194 3.013.474 6.533.624 7.452.317 9.215.498 10.246 1.05.415.222.754.307.754.189s.329.115.731.517c.948.948 1.375 2.069.788 2.069-.251 0-.804.315-1.229.7-.99.895-16.276 1.074-17.15.2-.275-.275-.742-.5-1.037-.5-.798 0-2.365-1.584-1.898-1.918.531-.379.725-1.409.205-1.088-.226.139-.41.063-.41-.17 0-.538-1.47-.557-1.8-.024-.14.227-2.137.4-4.624.4-2.651 0-4.376-.158-4.376-.4 0-.22-.335-.4-.744-.4-.656 0-.752.375-.82 3.2-.048 1.96.081 3.2.331 3.2.224 0 .319.231.211.514-.109.283.174.913.628 1.4.454.487.703.886.554.886-.15 0 .396.63 1.213 1.4.816.77 1.741 1.4 2.055 1.4.315 0 .572.158.572.351 0 .44 1.763 1.158 3.584 1.46.761.127 1.592.403 1.847.615.255.212 2.423.48 4.817.596 2.393.116 5.146.287 6.117.381 2.636.254 14.215-.561 14.368-1.012.074-.215.434-.403.8-.417 1.273-.051 4.88-1.407 5.771-2.17.493-.422.925-.686.96-.586.088.251 1.649-1.763 1.586-2.047-.027-.125.265-.543.65-.928s.7-1.037.7-1.448c0-.411.156-.844.348-.963 1.117-.69-.075-9.273-1.413-10.169-.216-.145-.51-.578-.652-.963-.142-.385-.624-.7-1.07-.7-.447 0-.768-.212-.713-.471.055-.259-.44-.662-1.1-.895-.66-.233-1.315-.584-1.455-.78-.141-.196-.44-.242-.666-.103-.226.14-.471.079-.545-.134-.135-.391-1.505-.654-5.534-1.061-1.21-.122-2.47-.331-2.8-.463-.33-.132-1.86-.28-3.4-.329-4.825-.152-11.482-.934-12.062-1.416-.307-.254-.658-.361-.781-.238-.124.123-.554-.057-.956-.402-1.101-.943-.101-2.964 1.287-2.601.392.103.712-.015.712-.26 0-.587 13.44-.629 13.802-.044.137.222.691.323 1.232.225.54-.098.886-.022.768.168-.117.191.116.451.519.579.403.128.973.844 1.266 1.592l.534 1.36 6.139-.017 6.14-.018.003-2.646c.003-2.832-1.635-7.246-2.689-7.246-.283 0-.514-.256-.514-.569 0-.313-.63-.777-1.4-1.031-.77-.254-1.4-.639-1.4-.855 0-.216-.18-.281-.4-.145-.22.136-.4.072-.4-.141 0-.355-2.995-1.111-3.7-.934-.165.041-.3-.126-.3-.372 0-.263-.361-.352-.879-.216-.484.126-1.072.07-1.307-.125-.471-.391-13.086-1.025-13.425-.675m-221.583.574c-.004.365-.718.494-2.506.454-2.626-.06-5.2.347-4.936.78.085.14-.473.288-1.241.329-.769.041-1.605.341-1.86.666-.255.326-.823.663-1.263.75-.44.087-.755.372-.7.634.055.262-.046.476-.224.476-.177 0-.672.283-1.1.63-.427.346-.506.495-.176.331.407-.202.357-.022-.153.561-.415.472-.91.763-1.1.645-.191-.118-.379.021-.419.309-.04.288-.175-.826-.3-2.476l-.228-3-7.3-.109c-4.015-.06-7.329.03-7.364.2-.257 1.245-.138 13.241.127 12.83.204-.316.258-.049.138.679-.372 2.254-.475 19.431-.118 19.652.196.12.206.428.023.684-.183.255-.388 1.409-.456 2.564l-.124 2.1H131.6l.05-10c.028-5.5.092-10.135.144-10.3.052-.165.232-.885.4-1.6.168-.715.463-1.3.656-1.3.192 0 .35-.251.35-.557 0-.307.27-.661.6-.788.33-.126.6-.516.6-.866s.18-.525.4-.389c.22.136.4.057.4-.176 0-.233.347-.424.771-.424.425 0 1.087-.315 1.472-.7 1.125-1.125 9.668-1.2 11.071-.096.557.438 1.202.796 1.435.796.233 0 .638.401.9.892.263.49.719 1.133 1.014 1.428.527.527.677 6.201.539 20.38-.03 3.062.098 4.5.4 4.5.245 0 .334-.18.198-.4-.161-.261 2.121-.4 6.553-.4 4.174 0 6.897.157 7.051.407.138.223.412.307.607.186.445-.275.358-27.393-.088-27.393-.177 0-.323-.474-.323-1.054 0-1.395-.838-4.146-1.263-4.146-.185 0-.337-.188-.337-.417 0-.443-.342-.91-2.1-2.873-.605-.676-1.106-1.067-1.113-.869-.007.197-.277.01-.6-.417-.323-.428-.587-.619-.587-.425s-.367-.042-.816-.524c-.448-.481-1.123-.888-1.5-.905-1.088-.047-2.632-.355-3.284-.656-.33-.152-1.41-.312-2.4-.356-.99-.044-2.385-.208-3.1-.364-.969-.212-1.302-.146-1.306.261-.005.424-.093.411-.394-.055-.269-.417-.39-.444-.394-.089m-119.207.444c0 .135-.539.283-1.196.329-2.247.157-4.593.951-3.972 1.344.418.264.277.361-.531.366-.605.003-1.1.186-1.1.406 0 .22-.268.4-.597.4-.328 0-1.112.54-1.743 1.2-1.54 1.612-1.595 1.565-1.431-1.2l.142-2.4h-7.385c-7.185 0-7.909.117-6.906 1.12.373.373.373.48 0 .48-.327 0-.478.863-.474 2.7.004 1.696.136 2.495.356 2.148.204-.322.368 4.875.394 12.476.031 8.898-.091 13.112-.384 13.293-.266.165-.381 1.468-.301 3.424L3.4 398h14.133l-.023-10.747c-.013-5.91.12-10.978.295-11.261.209-.339.16-.418-.143-.23-.254.157-.462.089-.462-.151s.27-.54.6-.666c.33-.127.6-.481.6-.788 0-.306.184-.557.409-.557.224 0 .613-.45.864-1 .25-.55.654-1 .897-1s1.104-.355 1.913-.788c2.488-1.334 7.689-.94 9.148.692.605.677 1.184 1.148 1.287 1.045.56-.56.795 4.077.715 14.151l-.089 11.3h13.864l-.004-11.357c-.004-10.258.064-11.432.696-12.132.385-.425.7-.919.7-1.097 0-.598 2.035-2.214 2.787-2.214.411 0 .809-.187.885-.415.294-.883 5.748-.959 7.399-.103.841.436 1.754.716 2.029.622.275-.094.523.024.55.263.091.789.174 1.025.683 1.941.277.5.395 1.085.262 1.3-.133.216-.052.392.181.392.636 0 .581 18.883-.056 19.52-.373.373-.351.481.1.486.467.005.477.072.05.342-.683.434-.459 2.928.286 3.173.337.111.445.005.276-.269-.203-.329 1.421-.452 5.944-.452 3.883 0 6.224.15 6.224.4 0 .22.152.4.338.4.186 0 .321-6.975.3-15.5-.043-17.358-.128-17.918-3.152-20.61-.707-.63-1.033-1.015-.724-.856.369.19.464.131.276-.172-.157-.254-.523-.462-.813-.462-.29 0-.749-.268-1.021-.596-.272-.327-.654-.497-.849-.376-.195.121-.355.052-.355-.151 0-.204-.945-.587-2.1-.851-2.648-.606-10.3-.901-10.3-.398 0 .205-.675.374-1.5.377-1.884.007-3.352.388-3.095.803.108.175-.192.216-.667.092-.591-.155-.773-.08-.577.237.179.29-.005.463-.495.463-.429 0-.888.281-1.02.625s-.422.514-.643.377c-.222-.137-.403.042-.403.398 0 .356-.135.565-.3.466-.165-.1-.532.069-.816.376-.283.307-.385.558-.224.558.16 0-.103.367-.585.816-.481.448-.875.988-.875 1.2 0 .966-.723.229-1.204-1.229-.305-.922-.652-1.42-.812-1.161-.166.268-.454-.051-.711-.787-.237-.682-.652-1.239-.921-1.239s-.821-.3-1.226-.667c-.406-.367-1.053-.691-1.439-.719-.386-.029-.893-.171-1.128-.316-.235-.145-1.087-.309-1.893-.363-.806-.054-1.466-.217-1.466-.362s-1.71-.264-3.8-.264-3.8.111-3.801.246m151.767.189c-.554 1.443.031 27.331.634 28.072.344.423.387.609.1.437-.275-.165-.5-.12-.5.1s.183.513.407.651c.223.138.302.419.176.624-.127.204-.04.372.193.372s.388.135.345.3c-.157.594.609 2.307 1.237 2.766.353.258.642.633.642.832 0 .578 2.319 2.875 2.679 2.653.18-.111.43.068.557.398.135.352.492.5.863.358.407-.156.533-.082.354.207-.184.297.539.618 2.135.948 1.326.274 2.412.642 2.412.818 0 .176.315.317.7.314.598-.005.613-.063.1-.394-.361-.233-.41-.39-.124-.394.262-.003.594.183.737.415.165.266 2.23.392 5.654.342 2.967-.043 5.188-.206 4.935-.362-.252-.156.529-.385 1.735-.51 1.207-.124 2.615-.459 3.129-.744.514-.284 1.052-.484 1.196-.445.144.04.481-.192.749-.515s.67-.587.895-.587c.224 0 .923-.54 1.554-1.2.631-.66 1.033-1.2.895-1.2-.139 0-.029-.27.245-.6.936-1.128 1.2-.599 1.2 2.409v3.009l7.3-.109 7.3-.109.062-19c.035-10.45-.022-19.315-.127-19.7-.171-.634-.869-.7-7.362-.7H216V369c0 6.8-.143 10.6-.4 10.6-.22 0-.4.276-.4.613 0 .337-.298 1.282-.662 2.1-.364.818-.64 1.603-.614 1.744.026.142-.473.473-1.109.737-.637.264-1.255.733-1.374 1.043-.119.309-.569.563-1 .563-.431 0-1.067.283-1.412.629-.346.345-.629.454-.629.242 0-.239-.564-.26-1.478-.053-.813.183-1.643.231-1.845.106-.201-.124-.524.022-.716.325-.198.312-.351.357-.355.103-.003-.264-.832-.466-2.019-.493-1.108-.025-2.344-.222-2.748-.438-.404-.216-.843-.283-.977-.15-.134.134-.357-.052-.495-.414-.139-.361-.514-.657-.833-.657-.32 0-.482-.161-.36-.358.122-.197-.059-.466-.402-.597-.342-.132-.518-.408-.391-.615.128-.206.094-.46-.075-.564-.168-.105-.364-1.239-.434-2.522-.071-1.282-.341-2.467-.6-2.632-.35-.222-.339-.301.042-.306.408-.005.491-2.014.4-9.706l-.114-9.7-7.309-.109c-5.982-.089-7.348-.007-7.525.453M90.424 378.6l.003 19.4H104.8v-38.8H90.42l.004 19.4m231.058-10.155c.266.049.39.238.277.422-.114.183.04.333.341.333 1.961 0 4.258 5.07 2.588 5.711-1.462.561-21.783.08-21.595-.511.721-2.272 2.04-4.079 3.507-4.806.88-.436 1.42-.815 1.2-.841-.22-.026.14-.184.8-.352 1.017-.257 11.422-.222 12.882.044" fill="#044494"/><path d="M169.574 25.637c-.855 1.2-.856 1.221-.053.72.455-.285.745-.65.645-.812-.101-.163.136-.481.526-.708.389-.227.495-.418.235-.425-.26-.007-.869.545-1.353 1.225M373.038 27.4c-.639.55-.988 1-.776 1 .395 0 2.138-1.481 2.138-1.816 0-.313-.162-.216-1.362.816m-2.371 2.267c-.404.44-.644.89-.534 1 .2.2 1.867-1.289 1.867-1.667 0-.417-.627-.103-1.333.667M58.7 45.898c2.035.073 5.365.073 7.4 0s.37-.132-3.7-.132-5.735.059-3.7.132m14.8 0c2.035.073 5.365.073 7.4 0s.37-.132-3.7-.132-5.735.059-3.7.132m278.906 2.884c-.547.42-.892.865-.768.989s.648-.223 1.163-.773c1.116-1.187.971-1.266-.395-.216M350 88.6c-.11 20.02-.155 36.475-.1 36.567.434.724.492-4.533.402-36.602L350.2 52.2l-.2 36.4m-192.522 49.166c.617.531 1.182.906 1.255.833.22-.218-1.499-1.799-1.955-1.799-.233 0 .082.435.7.966M72.1 138.7c13.805.058 36.395.058 50.2 0s2.51-.106-25.1-.106-38.905.048-25.1.106m305.1 31.457c0 .307-.27.661-.6.788-.33.126-.6.442-.6.701 0 .259.45-.015 1-.608 1.096-1.183 1.202-1.438.6-1.438-.22 0-.4.251-.4.557M39.2 189.2c.235.44.63.8.876.8s.122-.36-.276-.8c-.398-.44-.792-.8-.876-.8-.084 0 .041.36.276.8m2 2.184c0 .339.27.616.6.616.33 0 .6.21.6.467 0 .256.122.344.271.195.149-.149-.121-.636-.6-1.082-.699-.651-.871-.69-.871-.196M349.8 235.2c0 19.978.135 36.24.3 36.138.392-.242.392-72.034 0-72.276-.165-.102-.3 16.16-.3 36.138M75.1 277.5c11.715.059 30.885.059 42.6 0s2.13-.107-21.3-.107-33.015.048-21.3.107m205.631 0c11.731.059 30.811.059 42.4 0 11.588-.059 1.989-.107-21.331-.107s-32.801.048-21.069.107M46.4 284.82l-1 .802 1.1-.475c.605-.262 1.1-.627 1.1-.811 0-.457-.055-.434-1.2.484m344.356 7.28c-.47.895-.468.896.386.138.953-.847 1.04-1.038.472-1.038-.212 0-.598.405-.858.9m-32.356.2c0 .169.36.532.8.807.44.275.8.362.8.193 0-.169-.36-.532-.8-.807-.44-.275-.8-.362-.8-.193m6.602 6.902c.4.442.813.716.919.61.269-.269-.729-1.412-1.232-1.412-.227 0-.086.361.313.802M61.7 358.676c.385.1 1.015.1 1.4 0 .385-.101.07-.183-.7-.183s-1.085.082-.7.183m83.805.007c.497.096 1.217.092 1.6-.008.382-.1-.025-.179-.905-.174-.88.004-1.193.086-.695.182M33.709 378.8c0 .99.078 1.395.173.9.096-.495.096-1.305 0-1.8-.095-.495-.173-.09-.173.9m-16.408 1.4c.004.88.086 1.193.182.695.096-.497.092-1.217-.008-1.6-.1-.382-.179.025-.174.905M64.2 398.4c.147.238 2.671.4 6.224.4 3.717 0 5.976-.151 5.976-.4 0-.25-2.341-.4-6.224-.4-4.047 0-6.137.14-5.976.4m88.8 0c.149.241 2.945.4 7.047.4 4.432 0 6.714-.139 6.553-.4-.149-.241-2.945-.4-7.047-.4-4.432 0-6.714.139-6.553.4m117.662.1c.256.415 1.243.377 1.512-.058.121-.196-.211-.331-.738-.3-.528.032-.876.193-.774.358" fill="#044c94"/><path d="M259.758 375.8c0 3.08.063 4.287.139 2.682.076-1.604.076-4.124-.001-5.6-.077-1.475-.139-.162-.138 2.918" fill="#084494"/><path d="M259.758 375.8c0 3.08.063 4.287.139 2.682.076-1.604.076-4.124-.001-5.6-.077-1.475-.139-.162-.138 2.918" fill="#084494"/><path d="M259.758 375.8c0 3.08.063 4.287.139 2.682.076-1.604.076-4.124-.001-5.6-.077-1.475-.139-.162-.138 2.918" fill="#084494"/></g></svg>