<svg xmlns="http://www.w3.org/2000/svg" width="400" height="53.9063"><g fill-rule="evenodd"><path d="M102.088.457c-.332 1.322-.021 6.043.398 6.043.248 0 .33.409.202 1.02-.012.057-.25.076-.53.044-.279-.033-.467.007-.417.087.05.081-.018.189-.15.24-.171.065-.211.01-.139-.191.055-.156.037-.224-.042-.152-.203.184-.196 1.763.007 1.73.091-.016.148.063.127.174-.023.117.065.162.208.108.234-.09.364.903.258 1.971-.026.268.528.708.69.547.042-.042.079.129.082.381.012.931.052 1.041.385 1.041.337 0 .387.166.365 1.211-.005.254.054.422.131.375.247-.153.67.107.67.411 0 .32.379.718.557.585.061-.045.075-.035.033.022-.042.058.035.32.171.584.136.263.19.482.119.485-.071.004.079.12.334.258.254.138.425.313.379.388-.047.075.07.276.258.447.189.171.451.567.582.881.131.314.286.524.343.466.058-.058.009-.221-.109-.363-.18-.217-.171-.241.06-.153.15.058.283.172.294.254.012.082.04.224.063.316.023.091.051.241.062.333.012.092.146.167.299.167.414 0 .131.204-.357.257-.232.026-.38-.023-.327-.108.053-.085.184-.104.293-.042.108.062.138.049.067-.03-.179-.196-.645-.251-.528-.063.051.084-.005.153-.124.155-.165.002-.16.04.021.154.206.131.207.193.002.456-.203.262-.183.259.145-.021l.381-.326-.164.432c-.17.447.304 1.136.782 1.136.168 0 .269.307.225.684-.006.056.172.081.397.057.382-.042.51.153.425.646-.014.076.053.09.147.032.093-.058.171-.007.173.112.002.159.036.165.126.025.092-.145.206-.134.446.041.177.13.233.236.124.236-.109 0-.199.071-.199.157 0 .087.15.128.334.093.183-.035.333.006.333.093 0 .086.233.157.518.157.47 0 .508.039.413.418-.057.23-.047.408.024.397.618-.101.896.037.795.393-.083.296-.068.323.072.125.153-.215.199-.216.331-.012.084.131.322.263.528.295.207.031.48.206.607.387.154.22.422.33.802.33.469 0 .589.074.675.416.057.228.171.374.253.323.082-.05.149.03.149.178s-.066.229-.146.18c-.2-.124-.188.747.015 1.132.116.22.11.278-.019.198-.111-.068-.184.023-.184.23 0 .189.094.355.209.369.114.014.283.043.375.064.091.021.363.047.603.058.336.015.432.101.417.377-.021.362.208.477 1.036.521.341.018.356.045.12.218-.244.179-.245.206-.006.298.152.058.221.032.162-.064-.056-.09-.023-.164.074-.164.098 0 .177.072.177.16 0 .088.319.314.708.502.39.188.574.304.408.258-.172-.048-.257-.013-.198.082.194.314.582.168.582-.219 0-.688.884-1.114 1.106-.533.053.137.271.25.484.25.603 0 1.243.298 1.243.579 0 .179.172.254.585.254.415 0 .689.12.946.417.267.306.529.416.99.416.432 0 .698.101.853.324.152.215.52.362 1.106.439.587.078.944.22 1.074.427.144.232.393.31.986.31h.794V22.181l-.417-.614c-.229-.337-.417-.716-.417-.84 0-.125-.078-.227-.175-.227-.096 0-.292-.28-.435-.622-.143-.343-.402-.722-.575-.843-.173-.121-.315-.366-.315-.544 0-.18-.113-.324-.254-.324-.14 0-.325-.188-.412-.417-.087-.229-.273-.417-.413-.417-.14 0-.254-.072-.254-.16 0-.211-1.94-2.173-2.149-2.173-.089 0-.207-.143-.262-.317-.056-.174-.286-.363-.512-.42-.226-.056-.41-.214-.41-.35 0-.135-.107-.246-.238-.246-.13 0-.46-.188-.732-.417-.272-.229-.574-.417-.671-.417-.096 0-.381-.19-.632-.423-.382-.354-.595-.416-1.3-.381-2.558.126-3.693-.43-2.767-1.356.183-.183.257-.371.167-.427-.088-.054-.163-.038-.166.036-.003.074-.081.003-.175-.157-.093-.16-.348-.292-.566-.292-.218 0-.533-.168-.7-.375-.167-.206-.397-.382-.512-.391-.115-.01-.416-.028-.669-.042-.303-.016-.517-.153-.625-.4-.09-.206-.239-.376-.331-.378-.341-.005-.566-.266-.468-.544.077-.219.052-.242-.103-.099-.218.2-1.647-.358-1.442-.563.056-.056-.124-.197-.401-.314-.35-.147-.503-.327-.505-.594-.002-.308-.034-.334-.164-.133-.118.182-.163.19-.164.032-.002-.12-.072-.176-.156-.124-.085.052-.263-.015-.397-.149s-.294-.193-.356-.131c-.061.061-.067-.005-.012-.148.073-.189-.051-.305-.449-.422-.379-.111-.534-.249-.501-.443.036-.203-.068-.282-.375-.282-.269 0-.424-.093-.424-.254 0-.14-.192-.327-.426-.416-.235-.089-.39-.222-.345-.296.136-.219-.152-.549-.503-.575-.216-.016-.325-.142-.319-.367.007-.234-.095-.342-.323-.342-.325 0-.966-.589-.81-.745.043-.043.154.032.248.167.149.214.162.213.102-.005-.038-.137-.175-.26-.305-.272-.129-.013-.338-.032-.463-.042-.143-.012-.195-.144-.141-.353.048-.183.025-.295-.052-.247-.077.047-.187.009-.246-.086-.059-.095-.176-.129-.262-.076-.085.053-.155-.021-.155-.164 0-.512-1.111-.336-1.245.197m34.992 35.882c-.186.3.108 1.563.45 1.935.18.196.348.496.372.666.032.226.21.324.655.362.335.028.61.122.61.208s.104.157.232.157.282.129.342.287c.094.246.133.251.265.041.086-.135.157-.16.158-.056.003.183.605.456.898.406.08-.014.1.094.044.24-.059.154-.033.223.063.164.09-.056.164-.025.164.069 0 .095.251.162.557.151.624-.024.998.141.853.376-.053.086.1.23.34.322.241.091.389.243.331.337-.058.094-.044.15.032.125.076-.025.142.029.147.121.005.092.23.208.5.259.276.052.47.185.445.304-.026.117.032.164.127.105.096-.059.131-.178.078-.263-.053-.085-.017-.155.08-.155.098 0 .177.188.177.417 0 .305.089.416.333.416.226 0 .334.111.334.344 0 .188.074.297.165.24.256-.158.749.189.75.528.001.167.095.314.21.325.114.012.325.031.468.043.143.011.213.096.156.188-.057.092.013.213.156.268.143.054.228.151.189.214-.063.102.192.167.871.222.118.009.191.136.161.281-.03.147.151.392.41.553.255.159.464.366.464.459 0 .093.18.169.401.169.311 0 .382.07.319.314-.046.173.01.372.124.443.146.09.165.058.066-.107-.116-.191-.095-.196.115-.027.14.114.305.158.365.097.06-.06.119.016.131.169.011.152.03.371.042.486.012.114.19.199.396.188.29-.015.374.071.374.385 0 .223.071.361.157.308.163-.101.843.532.843.785 0 .08.067.104.148.054.081-.051.24.02.354.157.113.136.144.248.07.248-.075 0 .009.106.186.235s.37.205.43.168c.059-.036.148.088.197.278.05.189.246.384.436.434.228.059.346.226.346.487 0 .219.056.389.125.378.455-.072.708.058.708.363 0 .189.07.3.155.247.086-.053.265.061.399.252.177.253.268.288.332.128.065-.164.091-.167.101-.012.025.392 1.513.269 1.513-.125 0-.383-.165-.424-.5-.125-.197.176-.201.165-.026-.068.156-.207.16-.307.016-.396-.141-.087-.132-.162.034-.278.167-.117.174-.18.027-.24-.109-.045-.159-.186-.11-.314.064-.166-.015-.212-.276-.162-.315.061-.351.014-.262-.34.085-.336.041-.41-.237-.41-.218 0-.404-.165-.515-.458-.096-.252-.3-.607-.454-.789-.265-.312-.264-.318.011-.105.161.124.292.154.292.065 0-.088-.186-.245-.413-.348-.293-.133-.382-.272-.305-.473.083-.215.043-.258-.165-.178-.327.125-.839-.331-.72-.641.055-.143-.027-.196-.24-.155-.225.043-.324-.03-.324-.241 0-.329-.316-.666-.583-.621-.092.015-.191-.142-.22-.348-.038-.266-.166-.375-.44-.375-.269 0-.418-.121-.487-.397-.055-.218-.258-.438-.451-.489-.194-.05-.304-.169-.245-.265.059-.095-.077-.219-.302-.275-.247-.062-.45-.263-.51-.505-.063-.25-.222-.402-.42-.402-.203 0-.338-.136-.372-.375-.029-.207-.128-.376-.22-.378-.312-.005-.583-.266-.583-.562 0-.199-.122-.291-.375-.282-.281.01-.372-.077-.363-.347.008-.262-.111-.384-.437-.45-.265-.053-.485-.229-.538-.431-.049-.188-.209-.342-.355-.342s-.265-.113-.265-.25c0-.138-.12-.25-.266-.25-.146 0-.305-.15-.353-.333-.048-.184-.158-.334-.244-.334s-.105-.084-.041-.188c.071-.114.026-.158-.111-.112-.32.106-.616-.216-.524-.57.043-.163-.011-.296-.118-.296-.108 0-.15.075-.093.166.164.265-.081.194-.387-.113-.154-.155-.281-.398-.283-.542-.002-.16-.144-.257-.365-.249-.199.007-.358-.031-.352-.083.048-.464-.058-.658-.307-.562-.187.071-.238.042-.157-.089.082-.134-.049-.195-.418-.195-.296 0-.657-.102-.802-.226-.656-.565-4.966-.921-5.266-.435" fill="#4b94e4"/><path d="M113.64 8.449c.246.461.473.605.608.387.058-.093.021-.169-.081-.169-.103 0-.133-.094-.067-.209.066-.114.059-.152-.016-.084-.075.068-.25.03-.388-.084-.218-.18-.225-.159-.056.159m3.86 2.533c0 .657 1.069.929 2.083.53.367-.144 1.275.195 1.844.689.19.165.415.299.501.299.842 0 4.998 3.952 6.572 6.248.229.335.585.82.792 1.079.206.259.375.531.375.605 0 .073.206.431.458.795l.458.661.049 6.62c.042 5.664.013 6.656-.197 6.867-.259.258-.156.285-3.768-.996-.413-.147-.9-.36-1.084-.475-.183-.115-.653-.302-1.043-.417-.391-.114-.794-.308-.896-.431-.102-.122-.3-.223-.441-.223-.142 0-.585-.192-.986-.427-.763-.447-2.049-.627-2.164-.304-.041.118.192.186.635.186.438 0 .77.096.888.257.103.141.503.342.889.446.386.104.702.258.702.342 0 .085.318.245.708.356.39.111.834.308.988.438.154.13.603.309.998.398.394.088.844.275.999.415.154.14.605.298 1.002.351.397.053 1.041.267 1.432.474.747.397 1.6.336 1.9-.137.325-.512.148-12.836-.194-13.545-.177-.366-.325-.751-.328-.854-.003-.104-.124-.287-.27-.407-.145-.121-.376-.5-.513-.841-.136-.342-.355-.663-.485-.713-.131-.05-.237-.168-.237-.261 0-.147-.489-.845-1.351-1.928-.932-1.171-3.86-3.874-4.432-4.091-.211-.081-.384-.214-.384-.297 0-.083-.225-.244-.5-.358-.275-.114-.5-.266-.5-.339 0-.073-.338-.262-.75-.42-.597-.227-.75-.367-.75-.68 0-.37-.06-.394-1-.394-.55 0-.991.056-.98.125.011.069.005.275-.012.458l-.031.334-.135-.334c-.073-.183-.101-.389-.061-.458.039-.069-.12-.125-.354-.125-.36 0-.427.076-.427.482m19.2 24.885c-.48.48-.149 2.521.439 2.708.179.056.376.269.438.472.081.269.138.305.208.131.057-.141-.099-.393-.384-.621-.438-.349-.481-.477-.483-1.428l-.001-1.046 2.5.001c2.277.001 2.563.034 3.208.378.39.208.708.32.708.25-.002-.797-5.926-1.552-6.633-.845m5.3 5.365c0 .245.403.476.559.32.094-.094-.291-.552-.464-.552-.052 0-.095.104-.095.232" fill="#245489"/><path d="M0 15.583v5.084h1.911c1.664 0 1.899.033 1.812.26-.067.173.018.29.255.352l.355.093v21.961H0v10.5h45.003l-.043-9.875-.043-9.875-5.834-.043-5.833-.044.059 4.022c.043 2.992.009 3.992-.133 3.905-.316-.196-.676.249-.676.836 0 .478-.061.559-.458.605-.252.029-.441.144-.419.255.023.117-.065.162-.208.107-.145-.055-.248-.001-.248.131 0 .421-7.273.227-7.384-.196-.06-.231-.228-.328-.567-.328-.915 0-.883.414-.883-11.132 0-10.592.005-10.733.334-10.819.184-.049.333-.228.333-.401 0-.293.159-.314 2.343-.314h2.344l-.052-.625c-.037-.447-.123-.613-.302-.581-.191.034-.182-.01.042-.185.357-.281.459-7.98.104-7.901-.103.023-.21-.054-.237-.171-.028-.117-.012-.135.035-.04.127.257.39.029.39-.341 0-.317-.252-.323-13.834-.323H0v5.083m48.112-4.972c-.139.138-.145 9.165-.007 9.681.098.365.159.375 2.331.375h2.231V43.296l-.592.111c-.326.061-.634.22-.685.352-.062.162-.346.241-.866.242-.426.001-1.164.049-1.64.106l-.865.104-.014 4.811c-.014 4.726-.008 4.811.324 4.811.391 0 .457-.418.088-.56-.138-.053-.249-.192-.248-.309.002-.15.051-.139.164.036.089.137.163.183.164.101.002-.082.187.049.412.291l.408.441h44.85v-7.149c0-6.11-.036-7.162-.243-7.242-.134-.051-2.947-.098-6.25-.105l-6.007-.011v1.416c0 1.328-.027 1.434-.417 1.69-.229.15-.417.414-.417.587 0 .203-.118.314-.333.314-.235 0-.333.111-.333.375v.375l-4.75-.046-4.75-.047V37h4.883c3.576 0 4.937-.054 5.083-.2.147-.146.2-1.489.2-5V27H70.667v-6.333h4.75c4.709 0 4.75.003 4.75.349 0 .208.134.384.333.436.184.048.333.227.333.401 0 .203.118.314.334.314.185 0 .333-.111.333-.25 0-.138-.079-.25-.177-.25-.097 0-.122.086-.057.192.072.117.046.147-.066.078-.264-.163-.06-.585.272-.56.246.019.271.245.219 1.989l-.059 1.967H94.17l-.043-7.375-.044-7.375-22.93-.042c-12.611-.023-22.98.008-23.041.07m73.184-.018c-.231.231.098.74.478.74.268 0 .45.131.55.394.098.256.334.43.678.498.335.067.561.229.616.441.05.192.227.334.417.334.19 0 .367.142.417.335.048.184.266.38.485.435.236.059.396.222.396.403 0 .188.143.324.375.357.241.034.394.187.429.428.035.248.167.375.39.375.195 0 .374.138.423.328.047.18.228.373.401.428.174.055.316.237.316.404 0 .185.162.345.416.409.258.065.417.223.417.415 0 .171.15.35.333.398.188.049.334.227.334.407 0 .176.187.496.416.711.23.216.417.566.417.779 0 .214.07.388.155.388.32 0 .678.542.678 1.028 0 .355.094.528.318.586.175.046.362.245.415.443.158.591.108 13.673-.054 13.929-.264.417-2.692.308-2.985-.134-.166-.25-.41-.353-.839-.354-.89-.004-1.331-.161-1.444-.516-.075-.236-.258-.315-.733-.315-.387 0-.803-.134-1.069-.344-.24-.189-.703-.386-1.029-.439-.326-.053-.686-.229-.799-.391-.12-.171-.537-.344-.994-.413-.618-.093-.787-.185-.787-.432 0-.225-.119-.315-.416-.315H120v11h-.417c-.305 0-.416.089-.416.334 0 .313-.111.333-1.813.333-.997 0-2.047.047-2.333.104l-.521.104v9.625h29.667v-9.62l-.875-.105c-.482-.058-1.539-.106-2.349-.107-1.333-.001-1.483-.033-1.561-.334-.071-.27-.228-.334-.818-.334h-.731V41.45c0-2.116-.178-2.711-.851-2.845-.717-.144-.899-2.535-.248-3.254.45-.497 3.334-.508 4.349-.018.367.177.805.325.974.328.169.003.345.149.391.325.046.175.264.364.484.42.221.055.401.214.401.353 0 .212.253.246 1.542.206l1.542-.048.035-4.959.036-4.958H137.833v-6.339l4.625.045c4.617.044 4.626.045 4.79.419.09.206.288.375.439.375.151 0 .313.15.361.333.052.2.228.334.436.334.33 0 .349.087.349 1.588v1.588l6.209-.047 6.208-.046.043-7.239c.035-5.681-.001-7.268-.166-7.373-.234-.148-39.683-.193-39.831-.045m42.482.018c-.061.061-.111 2.349-.111 5.083v4.973H166c1.978 0 2.333.038 2.333.253 0 .14.188.339.417.444l.417.19v21.779h-.398c-.247 0-.427.117-.478.31-.072.276-.311.319-2.159.39-1.143.044-2.165.134-2.272.2-.139.087-.193 1.437-.193 4.86v4.74h28.166V44.206l-.375-.101c-.206-.055-1.106-.101-2-.103-1.513-.002-1.625-.025-1.625-.335 0-.221-.111-.334-.33-.334-.213 0-.367-.147-.435-.416-.065-.261-.222-.417-.419-.417-.494 0-.494-20.248 0-20.377.217-.057.351-.296.431-.769l.116-.687H191.833V10.5h-13.972c-7.685 0-14.022.05-14.083.111m46.264-.001c-.115.047-.209.228-.209.404 0 .282-.126.319-1.072.319-1.226 0-1.928.211-1.928.58 0 .193-.197.254-.833.254-.825 0-1.136.293-.638.601.128.079.161.032.095-.138-.073-.193-.016-.237.222-.175.841.22.297.522-.887.492-1.137-.029-1.212-.008-1.262.345-.046.324-.153.375-.792.375-.676 0-.738.035-.738.416 0 .334-.083.417-.417.417-.297 0-.416.09-.416.314 0 .246-.167.34-.755.428-.568.085-.743.18-.708.383.029.17-.108.307-.371.371-.261.063-.436.238-.47.469-.032.221-.171.368-.348.368-.162 0-.38.188-.485.417-.104.229-.304.417-.443.417-.144 0-.254.146-.254.338 0 .186-.131.387-.291.446-.395.146-.536.383-.539.906-.002.329-.108.466-.42.545-.462.116-.571.691-.208 1.098.177.199.165.201-.081.015-.475-.359-.794-.104-.794.635 0 .558-.058.668-.375.713-.341.049-.38.156-.424 1.179-.047 1.07-.07 1.125-.459 1.125-.394 0-.409.04-.409 1.147 0 .986-.044 1.159-.315 1.23-.692.18-.713 8.754-.024 9.316.29.236.339.471.339 1.608 0 1.2.041 1.369.414 1.723.326.309.415.56.417 1.184.002.733.034.792.419.792.389 0 .417.055.417.833 0 .722.044.833.333.833.258 0 .334.111.334.487 0 .703.158 1.013.517 1.013.226 0 .316.119.316.417 0 .333.083.417.417.417.333 0 .416.083.416.416 0 .263.094.417.256.417.14 0 .304.128.364.284.176.459.766 1.073 1.188 1.236.215.083.43.3.478.482.048.182.219.331.381.331s.334.15.382.334c.048.183.226.333.396.333s.384.169.474.375c.119.272.331.389.767.425.45.038.649.154.788.459.152.334.307.408.856.408.559 0 .67.055.67.333 0 .284.111.333.75.333.413 0 .75.07.75.155 0 .425.563.679 1.504.679.824 0 1.053.068 1.446.433l.467.434 2.483-.067c1.365-.036 2.396-.038 2.291-.003-.105.035-.191.133-.191.217 0 .252 8.452.197 8.57-.056.078-.167.116-.167.194 0 .15.321.452.247.337-.083-.097-.278-.091-.278.126 0 .238.305.773.401.773.139 0-.084.907-.178 2.015-.209 1.84-.05 2.041-.087 2.312-.422.245-.303.499-.376 1.443-.417 1.045-.045 1.152-.083 1.2-.425.047-.329.151-.375.856-.375.653 0 .818-.06.886-.322.062-.235.259-.336.728-.375.514-.042.654-.126.695-.416.029-.199.174-.462.324-.583.197-.16.238-.163.147-.012s.038.208.468.208c.521 0 .593-.05.593-.416 0-.334.083-.417.417-.417.297 0 .416-.09.416-.315 0-.227.161-.345.579-.423.318-.06.674-.244.792-.409.117-.165.381-.39.588-.499.206-.11.375-.306.375-.437s.146-.317.326-.413c.182-.097.374-.432.435-.756.079-.42.196-.581.424-.581.225 0 .315-.12.315-.417 0-.333.083-.417.416-.417.382 0 .417-.062.417-.738 0-.639.051-.746.375-.792.32-.045.382-.169.426-.845.042-.655.106-.791.375-.791.294 0 .324-.124.324-1.33 0-1.23.031-1.35.412-1.599l.411-.27.004-4.133c.004-4.406.016-4.34-.799-4.332-.24.002-.244.024-.028.164.201.13.175.162-.135.164-.218.001-.339-.071-.28-.167.112-.181-19.865-.238-20.334-.058-.215.083-.251.751-.251 4.662v4.565h5.5V40c0 .367.002.723.005.792.003.068-.184.148-.416.177-.315.04-.422.151-.422.439 0 .246-.121.418-.334.474-.183.048-.333.198-.333.334s-.187.295-.417.352c-.269.068-.416.222-.416.435 0 .241-.113.33-.417.33-.296 0-.417.091-.417.313 0 .387-.58.521-2.261.521-1.039 0-1.255.05-1.458.34l-.238.34-.089-.34c-.079-.303-.222-.341-1.313-.343-1.297-.003-1.517-.073-1.689-.539-.081-.219-.296-.292-.863-.292-.695 0-.755-.033-.755-.416 0-.297-.091-.417-.314-.417-.174 0-.353-.149-.401-.333-.052-.2-.228-.334-.436-.334-.261 0-.349-.105-.349-.416 0-.334-.084-.417-.417-.417-.377 0-.417-.066-.417-.682 0-.542-.068-.7-.333-.77-.212-.055-.333-.227-.333-.473 0-.601-.299-1.242-.58-1.242-.204 0-.254-.239-.254-1.236 0-1.441-.092-1.764-.501-1.764-.615 0-.56-6.277.055-6.365.326-.046.368-.166.412-1.176.037-.838.11-1.125.286-1.125.316 0 .582-.528.582-1.156 0-.4.072-.511.333-.511.224 0 .333-.111.333-.337 0-.207.162-.399.417-.496.229-.087.417-.264.417-.393 0-.13.15-.274.333-.322.199-.052.333-.228.333-.436 0-.261.105-.349.417-.349.297 0 .417-.09.417-.315 0-.245.166-.339.75-.427.592-.088.75-.18.75-.435 0-.289.123-.323 1.155-.323 1.304 0 2.011-.204 2.011-.58 0-.171.163-.254.5-.254.328 0 .5.084.5.244 0 .403.578.59 1.823.59 1.069 0 1.215.055 1.163.439-.027.201.431.389.953.391.381.002.546.093.61.336.051.195.227.334.424.334.187 0 .384.143.44.319.055.176.323.397.594.491.271.095.493.251.493.348 0 .096.113.175.25.175.138 0 .25.146.25.324 0 .178.141.423.314.543.172.121.342.369.376.551.036.184.221.355.417.383.269.038.379.206.458.705.139.87-.059.845 6.185.791l5.334-.047V10.583l-5.363-.044c-5.721-.047-5.681-.052-5.54.735.014.079.017.474.006.88l-.02.737-.386-.362c-.282-.266-.594-.362-1.166-.362-.722 0-.781-.032-.781-.417 0-.413-.013-.417-1.482-.417-1.442 0-1.485-.011-1.587-.416l-.104-.417-7.122.013c-3.917.007-7.216.051-7.33.097m50.569.001c-.061.061-.111.249-.111.417 0 .168-.15.455-.333.639-.244.243-.334.555-.334 1.155 0 .725-.044.828-.375.875-.34.048-.379.156-.424 1.167-.044 1.005-.085 1.12-.416 1.167-.341.049-.367.138-.353 1.219.008.642-.016 1.076-.054.964-.182-.541-.711.197-.711.993 0 .679-.047.793-.33.793-.401 0-.561.526-.478 1.572.055.692.028.751-.358.796-.401.047-.417.094-.417 1.226 0 1.118-.019 1.174-.361 1.108-.325-.062-.373.023-.477.858-.069.552-.193.913-.306.892-.104-.019-.171.058-.148.173.023.115-.033.208-.125.208s-.167.375-.167.834c0 .712-.046.833-.322.833-.357 0-.551.434-.506 1.128.065.983.002 1.205-.338 1.205-.184 0-.34.057-.348.125-.007.069-.046.5-.086.959-.05.579-.178.922-.419 1.123-.279.233-.336.439-.288 1.042.054.676.024.751-.299.751-.44 0-.56.289-.56 1.347 0 .451-.07.82-.155.82-.409 0-.679.563-.679 1.417 0 .761-.052.91-.348 1.005-.297.094-.341.219-.292.836.051.638.012.738-.316.82-.282.071-.4.256-.479.749-.08.5-.188.667-.46.706-.227.032-.355.17-.355.384 0 .314-.126.336-2.214.38-2.764.058-2.536-.457-2.536 5.714v4.822h21.75v-9.628l-.982-.102c-.541-.057-1.385-.103-1.875-.103h-.893v-1.167c0-1.029.037-1.166.313-1.166.344 0 .521-.572.521-1.688v-.646h10.79l.11.684c.077.485.204.708.438.769.283.074.328.231.328 1.142 0 .829.063 1.092.292 1.225.278.162.278.17 0 .175-.179.003-.292.134-.292.339 0 .291-.111.333-.892.333-.491 0-1.353.048-1.917.107l-1.024.107v9.619h25.667v-4.988c0-5.966.178-5.512-2.159-5.512-1.515 0-1.642-.025-1.726-.345-.05-.191-.238-.385-.417-.432-.227-.059-.358-.281-.43-.726-.07-.439-.207-.674-.435-.747-.265-.084-.333-.252-.333-.825 0-.579-.065-.736-.334-.806-.263-.069-.333-.228-.333-.759 0-.858-.254-1.526-.579-1.526-.19 0-.254-.189-.254-.747 0-.658-.05-.759-.417-.852-.391-.098-.417-.171-.417-1.185 0-.931-.045-1.093-.324-1.166-.244-.064-.337-.256-.375-.776-.042-.567-.117-.7-.418-.743-.332-.047-.373-.163-.417-1.167-.044-1.011-.084-1.119-.424-1.168-.331-.047-.375-.149-.375-.875 0-.599-.09-.911-.333-1.155-.214-.213-.335-.558-.336-.958-.003-.743-.133-.981-.581-1.067-.266-.05-.322-.172-.279-.604.084-.83-.117-1.493-.481-1.588-.262-.069-.323-.233-.323-.87 0-.732-.027-.78-.388-.711-.331.064-.378.017-.315-.312.144-.752-.134-1.922-.477-2.011-.25-.066-.32-.234-.32-.767 0-.54-.093-.757-.444-1.037-.388-.308-.441-.463-.414-1.21.028-.788-.004-.865-.389-.962-.383-.096-.42-.184-.42-.995 0-.689-.072-.939-.322-1.114-.218-.153-.339-.466-.375-.968-.045-.624-.113-.751-.428-.796-.271-.038-.375-.165-.375-.458V10.5h-8.889c-4.889 0-8.939.05-9 .111m37.464.099c-.044.116-.06 2.385-.036 5.042l.044 4.831 2.268.047 2.268.046.106 1.12c.138 1.455.138 19.518 0 20.662l-.105.875-2.018.003c-2.78.003-2.51-.566-2.569 5.408l-.051 5.089h27.351v-5.05c0-3.705-.053-5.103-.2-5.25-.278-.278-3.323-.271-3.624.009-.18.166-.201.166-.107 0 .081-.143-.016-.209-.309-.209h-.426v-7H325.304l.116.687c.08.474.214.713.431.77.186.048.316.229.316.44s.153.425.375.522c.275.121.388.33.426.79.04.475.125.625.356.625.233 0 .331.176.417.75.089.592.181.75.436.75.253 0 .324.117.326.541.002.622.127.855.539 1.007.16.059.291.242.291.406 0 .165.149.392.332.506.199.124.374.473.438.873.079.494.185.667.409.667.236 0 .313.154.353.708.043.589.115.717.427.762.288.041.375.162.375.528 0 .691.16 1.002.517 1.002.361 0 .406-.177.119-.464-.109-.109-.146-.249-.084-.311.222-.221.352.133.321.866-.03.667.005.742.34.742.339 0 .367.067.313.743-.054.678-.022.752.365.849.358.09.432.215.475.799.042.573.115.702.425.746.306.043.375.159.375.625 0 .314.075.571.167.571.092 0 .167-.137.167-.305 0-.168.111-.306.247-.306s.291.138.345.306c.092.291.498.305 8.505.305h8.407l-.044-5.208-.044-5.208H348v-.439c0-.287-.107-.467-.308-.52-.212-.055-.344-.297-.419-.769-.086-.54-.182-.689-.442-.689-.242 0-.331-.112-.331-.417 0-.333-.083-.416-.417-.416-.376 0-.416-.066-.416-.683 0-.535-.07-.7-.324-.767-.178-.046-.347-.245-.375-.441-.033-.227-.204-.388-.468-.442-.361-.073-.417-.173-.417-.751 0-.564-.057-.674-.375-.72-.276-.039-.375-.164-.375-.477 0-.363-.06-.413-.416-.345-.403.077-.417.049-.417-.814 0-.772.044-.894.322-.894.177 0 .37-.15.428-.333.068-.213.252-.333.511-.333.319 0 .406-.087.406-.407 0-.349.087-.414.625-.458.459-.038.668-.151.789-.427.091-.206.295-.375.455-.375.171 0 .334-.171.396-.417.057-.229.196-.416.309-.416.216 0 .592-.687.592-1.08 0-.127.157-.281.349-.342.3-.095.34-.219.291-.901-.048-.672-.014-.78.221-.719.541.142.642-.507.632-4.074-.009-3.828-.049-4.16-.509-4.306-.25-.08-.317-.26-.317-.855 0-.605-.064-.771-.321-.839-.223-.058-.357-.29-.435-.754-.078-.459-.213-.697-.429-.753-.173-.046-.315-.223-.315-.394 0-.192-.159-.35-.417-.415-.26-.065-.416-.222-.416-.42 0-.223-.119-.315-.405-.315-.294 0-.42-.104-.459-.375-.041-.287-.19-.395-.636-.458-.405-.058-.635-.202-.75-.47-.125-.291-.273-.372-.593-.326-.341.05-.425-.007-.417-.28.008-.286-.109-.349-.732-.394-.526-.037-.85-.17-1.117-.458-.343-.371-.502-.406-1.857-.406-1.418 0-1.489-.017-1.671-.416l-.19-.417h-19.342c-15.419 0-19.358.043-19.423.21m70.191.205c-.254.388-.368.418-1.592.418-1.239 0-1.321.023-1.371.375-.048.341-.156.38-1.178.425-.977.042-1.125.091-1.125.365 0 .26-.143.326-.792.368-.669.043-.799.107-.843.416-.042.289-.181.376-.667.417-.449.037-.659.152-.779.426-.101.23-.311.375-.542.375-.266 0-.377.098-.377.333 0 .184-.101.334-.225.334-.273 0-1.377 1.026-1.313 1.22.026.076-.037.087-.138.024s-.295.044-.43.238c-.135.193-.327.351-.427.351-.289 0-.623.545-.628 1.026-.005.36-.068.426-.339.356-.32-.084-.394.055-.383.715.002.101-.171.148-.39.106-.329-.063-.394-.007-.394.341 0 .275-.112.446-.328.503-.232.061-.361.283-.436.755-.076.478-.203.694-.443.757-.255.067-.316.188-.255.509.045.232.017.382-.062.334-.078-.049-.142.104-.142.338 0 .235-.145.571-.321.747-.244.244-.317.541-.305 1.241.015.932-.212 1.439-.647 1.439-.194 0-.225.936-.188 5.791l.044 5.792.375.053c.215.031.378.173.382.334.051 2.103.091 2.395.349 2.539.157.088.321.479.388.924.084.562.202.794.436.855.206.054.32.23.32.492 0 .542.286 1.053.589 1.053.149 0 .244.162.244.417 0 .3.09.416.321.416.219 0 .382.188.517.595.108.328.296.634.417.68.122.047.298.304.392.572.093.268.277.487.409.487.131 0 .279.155.329.345.05.191.239.385.421.432.182.048.365.222.409.387.052.2.307.338.765.416.525.088.687.191.687.434 0 .229.117.319.417.319.333 0 .416.083.416.417 0 .381.062.416.739.416.639 0 .745.051.791.375.038.265.184.39.495.426.242.028.573.197.734.375.213.236.512.324 1.1.324.757 0 .808.027.808.429 0 .405.045.428.792.402 1.41-.048 1.541-.02 1.541.328 0 .457.763.568 3.18.465 1.62-.069 1.987-.042 1.987.146 0 .189.646.23 3.583.23 2.278 0 3.584-.06 3.584-.166 0-.092.112-.167.25-.167.137 0 .25.075.25.167 0 .091.262.166.583.166.321 0 .583-.075.583-.166 0-.101.698-.167 1.761-.167 1.712 0 2.293-.132 2.656-.605.099-.128.609-.236 1.25-.264.94-.041 1.105-.097 1.248-.423.134-.306.297-.375.89-.375.586 0 .743-.064.814-.333.061-.233.227-.333.554-.333.768 0 .993-.163 1.007-.726.007-.289.051-.431.097-.316.183.454 1.39.185 1.39-.309 0-.226.119-.316.417-.316.3 0 .416-.09.416-.322 0-.207.134-.341.375-.375.241-.034.394-.187.429-.428.038-.271.165-.375.458-.375.248 0 .405-.096.405-.249 0-.136.15-.342.333-.456.184-.115.334-.335.334-.49 0-.165.155-.304.375-.335.277-.039.374-.163.371-.474-.003-.34.077-.419.417-.416.307.002.434-.095.472-.364.029-.202.198-.413.375-.469.246-.078.323-.256.323-.747 0-.54.06-.652.375-.697.319-.045.383-.169.425-.827.038-.579.126-.795.35-.853.316-.083.517-.753.517-1.727 0-.31.075-.563.166-.563.109 0 .167-2.416.167-6.916s-.058-6.917-.167-6.917c-.091 0-.166-.333-.166-.739 0-.911-.245-1.594-.57-1.594-.174 0-.26-.23-.296-.792-.044-.676-.106-.799-.426-.845-.304-.043-.375-.159-.375-.615 0-.362-.112-.641-.313-.782-.173-.121-.342-.369-.377-.551-.037-.191-.222-.355-.437-.385-.269-.039-.373-.166-.373-.459 0-.321-.087-.405-.417-.405-.328 0-.416-.084-.416-.397 0-.257-.118-.428-.334-.484-.183-.048-.333-.207-.333-.353 0-.172-.147-.266-.417-.266-.333 0-.416-.083-.416-.416 0-.334-.084-.417-.417-.417-.333 0-.417-.083-.417-.417 0-.333-.083-.416-.416-.416-.306 0-.417-.089-.417-.334 0-.261-.111-.333-.512-.333-.511 0-.988-.316-.988-.655 0-.098-.179-.178-.397-.178-.255 0-.428-.118-.483-.329-.062-.234-.285-.36-.776-.439-.42-.067-.754-.232-.856-.421-.134-.25-.36-.311-1.149-.311-.892 0-.987-.035-1.036-.375-.05-.354-.14-.378-1.584-.423-1.436-.045-1.534-.071-1.583-.417l-.053-.369-7.271-.043-7.271-.043-.275.418m-137.984 1.71c-.042.16-.077.029-.077-.292s.035-.452.077-.291c.041.16.041.423 0 .583M93.458 20.969c-.027 1.621-.049.248-.049-3.052s.022-4.627.049-2.948c.027 1.679.027 4.379 0 6m248.516-8.12c-.114.071-.283.083-.375.026-.103-.064-.089-.128.035-.17.111-.037.149-.154.085-.261-.064-.107.014-.088.174.041.22.179.239.267.081.364m18.574 1.484c-.083.32-.381.476-.381.2 0-.116.339-.533.434-.533.019 0-.005.15-.053.333m-312.1 2.125c-.042.161-.076.029-.076-.291 0-.321.034-.452.076-.292.042.16.042.423 0 .583m.338 1.665c-.038.253-.07.085-.072-.373-.001-.458.03-.666.07-.461.04.205.041.58.002.834m148.534 1.052c-.362.224-.564-.04-.222-.29.225-.164.333-.175.379-.038.035.105-.036.253-.157.328m-148.447.717c.106-.065.13-.031.06.082-.066.106-.027.193.085.193s.156.048.097.107c-.14.14-.619-.26-.602-.503.008-.117.045-.109.098.022.046.115.164.16.262.099M377 20.077c0 .371.552.59 1.489.59.79 0 .844.027.844.416 0 .334.084.417.417.417.306 0 .417.089.417.333 0 .215.111.334.312.334.236 0 .338.165.421.683.076.478.206.709.43.767.247.065.331.26.37.859.042.658.106.782.425.827.348.05.375.138.375 1.209 0 .701.069 1.155.177 1.155.097 0 .133-.07.08-.155-.147-.239.137-.337.326-.113.314.371.241.553-.187.471-.583-.111-.528.952.062 1.211.368.161.375.222.375 2.947 0 2.758-.003 2.783-.375 2.835-.36.052-.376.125-.41 1.885-.021 1.106-.105 1.854-.211 1.89-.466.155-.67.596-.67 1.446 0 .798-.04.898-.374.946-.216.031-.399.193-.434.387-.034.183-.197.461-.362.617-.165.157-.351.513-.412.792-.1.456-.175.507-.738.507-.507 0-.663.08-.817.417-.32.702-4.697.606-4.697-.103 0-.237-.121-.314-.5-.314-.275 0-.5-.072-.5-.16 0-.088-.294-.459-.653-.826-.359-.366-.678-.801-.71-.965-.031-.164-.225-.323-.43-.352-.321-.046-.373-.154-.373-.772 0-.579-.065-.736-.334-.806-.292-.077-.333-.229-.335-1.228-.003-1.437-.123-1.891-.501-1.891-.425 0-.481-1.448-.344-8.791.011-.58.071-.709.329-.709.405 0 .518-.312.518-1.43 0-.792.041-.903.333-.903.284 0 .334-.111.334-.75 0-.689.034-.75.416-.75.334 0 .417-.083.417-.417 0-.3.09-.416.322-.416.177 0 .367-.142.422-.316.055-.173.248-.354.428-.401.191-.05.328-.228.328-.425 0-.287.123-.348.792-.391.675-.043.799-.106.845-.426.066-.469 2.363-.596 2.363-.131m.954.09c-.014.183-.035.333-.047.333-.012 0-.158-.15-.324-.333-.292-.324-.291-.334.047-.334.247 0 .342.099.324.334M328.583 21c.059.183.237.333.397.333.404 0 1.187.858 1.187 1.301 0 .255.101.366.333.366.289 0 .333.111.333.833 0 .723-.044.834-.333.834-.234 0-.334.112-.336.375-.004.705-.197 1.125-.517 1.125-.223 0-.314.119-.314.416 0 .404-.036.417-1.126.417-.946 0-1.16.053-1.335.333-.196.314-.389.334-3.207.334h-2.998v-7h3.905c3.759 0 3.91.012 4.011.333m-142 .167c-.056.091-.012.166.1.166.123 0 .079.136-.111.346-.173.191-.339.27-.37.176-.061-.182.252-.855.397-.855.048 0 .041.075-.016.167m9.12.53c-.255.255-.443.067-.301-.301.083-.217.155-.239.303-.091.149.149.148.242-.002.392m-46.896.02c-.171.318-.348.273-.403-.103-.017-.115.104-.209.269-.209.242 0 .268.061.134.312m78.36.714c0 .272-.44.134-.558-.175-.057-.148.019-.191.237-.134.176.046.321.185.321.309m40.847 1.358c.272.071.319.239.319 1.144 0 .987.029 1.068.41 1.163.376.095.413.192.458 1.212.044.998.086 1.114.417 1.161.331.047.372.162.416 1.167.043.969.093 1.12.384 1.162.281.04.334.174.333.833l-.001.786-2.833-.049-2.834-.048.055-1.15c.05-1.033.092-1.156.417-1.202.306-.043.365-.167.384-.801.042-1.409.06-1.5.305-1.5.369 0 .589-.551.589-1.47 0-.685.057-.84.334-.912.289-.076.336-.238.356-1.228.012-.627.056-.963.097-.746.041.217.219.432.394.478m15.423.134c-.043.112.007.287.109.39.139.138.118.187-.078.187-.178 0-.287-.189-.332-.575-.054-.466-.025-.54.156-.39.123.102.188.276.145.388m99.11.916c-.102.39-.267.415-.54.086-.158-.191-.154-.294.021-.484.288-.312.635-.046.519.398m-34.172 1.98c-.182.515-.267.572-.383.253-.142-.39-.084-.516.235-.516.148 0 .205.101.148.263m-154.917.921c0 .224-.119.453-.266.509-.231.089-.234.123-.021.257.215.136.215.156-.004.161-.223.004-.223.024 0 .182.222.157.222.169 0 .108-.274-.075-.347-.854-.124-1.332.195-.42.415-.359.415.115m49.602 2.843c.053.138.019.25-.075.25s-.129.069-.077.152c.112.183-.231.147-.558-.057-.193-.12-.18-.185.073-.37.394-.288.519-.283.637.025m102.055 1.207c-.256.256-.282.257-.282.01 0-.15.094-.306.209-.347.34-.121.374.035.073.337m-2.451 1.63c-.111.134-.273.199-.36.145-.089-.055-.028-.243.139-.428.336-.371.543-.105.221.283m40.729 2.166c-.048.123-.225.214-.394.201-.239-.018-.273-.087-.151-.315.179-.334.676-.23.545.114m-94.992.773c-.122.197-.568-.035-.568-.295 0-.189.062-.195.323-.032.177.111.287.258.245.327m-208.078.071c-.107.128-.264.19-.35.137-.092-.057-.077-.192.038-.33.106-.128.264-.19.349-.137.092.057.077.192-.037.33m208.719 1.823c-.194.346-.4.104-.472-.554l-.046-.416.34.34c.255.255.299.413.178.63m-77.354.029c.197.243.194.264-.021.154-.138-.07-.117-.018.046.115.312.255.017.546-.311.309-.239-.173-.257-.526-.027-.529.139-.002.125-.057-.042-.164-.137-.089-.165-.163-.062-.164.104-.002.291.124.417.279m.645 1.912c0 .199-.052.309-.116.246-.18-.181-.205-.607-.036-.607.084 0 .152.163.152.361m61.622.152c.03.395-.001.397-.34.022-.25-.275-.248-.3.023-.32.178-.013.302.103.317.298m-12.232.54c.106-.064.091.01-.035.165s-.313.276-.417.269c-.127-.009-.124-.039.011-.094.11-.044.178-.17.153-.278-.026-.109-.015-.141.023-.072.039.069.158.074.265.01m137.211.072c-.085.243-.06.238.149-.032.138-.177.25-.243.25-.145 0 .234-.479.628-.608.5-.117-.117.048-.614.204-.614.059 0 .061.131.005.291M93.458 49.802c-.027 1.622-.049.248-.049-3.052s.022-4.626.049-2.948c.027 1.679.027 4.379 0 6M381.68 41.4c-.149.18-.144.254.021.321.119.047.035.092-.185.099-.391.013-.393.005-.099-.32.34-.376.562-.46.263-.1m-155.347 1.072c0 .168-.112.306-.25.306-.255 0-.338-.3-.139-.5.206-.206.389-.114.389.194M3.987 43.875c-.007.206-.052.278-.1.16-.07-.175-.138-.176-.362-.003-.191.147-.178.098.042-.16.396-.463.436-.463.42.003m240.135.301c-.112.18-.23.249-.262.153-.093-.278.122-.693.302-.582.104.065.09.221-.04.429m51.211.094c0 .127-.079.23-.176.23-.097 0-.135-.067-.084-.149.05-.082-.025-.194-.168-.249-.143-.055-.211-.179-.151-.276.138-.223.579.115.579.444m29.595-.142c-.151.151-.616-.125-.507-.302.075-.12.184-.113.348.023.131.109.203.235.159.279m24.764-.211c0 .087-.068.181-.152.208-.083.028-.151-.066-.151-.208 0-.143.068-.237.151-.209.084.028.152.122.152.209m-50.798.166c-.053.138-.163.25-.245.25-.082 0-.149-.112-.149-.25 0-.137.11-.25.245-.25.149 0 .207.098.149.25m98.939-.164c0 .264-.641.555-.727.33-.059-.154-.033-.223.063-.164.09.056.164.034.164-.047 0-.082.113-.149.25-.149.138 0 .25.013.25.03m-178.333.92c0 .089-.113.161-.25.161-.138 0-.251-.094-.253-.208-.001-.154-.04-.149-.145.017-.111.174-.173.18-.269.023-.07-.112-.027-.263.095-.339.244-.151.822.093.822.346m157.933-.313c.079.128.045.147-.102.056-.159-.098-.192-.061-.118.132.073.191.032.241-.142.175-.189-.073-.202-.148-.055-.325.232-.28.265-.283.417-.038M48.458 50.958c-.03.986-.054.179-.054-1.791 0-1.971.024-2.777.054-1.792.029.985.029 2.598 0 3.583m.333 0c-.029.986-.054.179-.054-1.791 0-1.971.025-2.777.054-1.792.03.985.03 2.598 0 3.583m307.876-4.354c0 .221-.046.233-.25.063-.138-.114-.25-.236-.25-.271 0-.034.112-.063.25-.063.137 0 .25.122.25.271m-118.556.613c0 .119-.156.227-.347.24-.341.023-.341.019-.024-.217.392-.29.371-.289.371-.023m120.389.882c0 .048-.088.033-.195-.033-.136-.084-.158-.024-.073.198.097.255.079.278-.087.113-.36-.357-.334-.734.037-.536.175.094.318.21.318.258m-127.833 3.687c0 .026-.158.205-.35.397-.395.395-.864.192-.519-.224.153-.184.869-.327.869-.173m156.75.213c-.056.091-.267.245-.468.343-.338.163-.343.158-.065-.066.226-.182.246-.264.083-.329-.119-.048-.044-.093.168-.101.215-.007.34.06.282.153" fill="#0c3464"/><path d="M106.5 3.428c0 .026.219.157.487.291.371.184.468.192.406.029-.068-.177-.893-.473-.893-.32m2.603 1.997c-.057.149-.029.216.066.157.09-.056.164-.03.164.057s.113.202.251.255c.213.082.21.035-.019-.316-.318-.484-.333-.489-.462-.153m-7.736 2.417c-.402.644-.176 1.706.383 1.794.308.049.305.032-.042-.218-.458-.33-.524-1.318-.103-1.553.149-.084.202-.195.116-.248-.085-.052-.244.049-.354.225m15.302 2.987c-.446.834.231 1.183 2.378 1.227 1.349.027 1.587.078 1.913.404.205.205.456.373.558.373.101 0 .407.188.679.417.272.229.602.417.732.417.131 0 .238.111.238.246 0 .136.184.294.41.35.226.057.456.246.512.42.055.174.173.317.262.317.209 0 2.149 1.962 2.149 2.173 0 .088.114.16.254.16s.326.188.413.417c.087.229.272.417.412.417.141 0 .254.144.254.324 0 .178.142.423.315.544.173.121.432.5.575.843.143.342.339.622.435.622.097 0 .175.102.175.227 0 .124.188.503.417.84l.417.614v12.652h-.794c-.593 0-.842-.078-.986-.31-.13-.207-.487-.349-1.074-.427-.586-.077-.954-.224-1.106-.439-.155-.223-.421-.324-.853-.324-.461 0-.723-.11-.99-.416-.257-.297-.531-.417-.946-.417-.413 0-.585-.075-.585-.254 0-.281-.64-.579-1.243-.579-.213 0-.431-.113-.484-.25-.115-.3-.628-.329-.906-.05-.369.369-.203.55.525.569.452.012 1.003.184 1.472.458.412.242.864.439 1.006.439.141 0 .339.101.441.223.102.123.505.317.896.431.39.115.86.302 1.043.417.184.115.671.328 1.084.475 3.612 1.281 3.509 1.254 3.768.996.21-.211.239-1.203.197-6.867l-.049-6.62-.458-.661c-.252-.364-.458-.722-.458-.795 0-.074-.169-.346-.375-.605-.207-.259-.563-.744-.792-1.079-1.574-2.296-5.73-6.248-6.572-6.248-.086 0-.311-.134-.501-.299-.569-.494-1.477-.833-1.844-.689-1.014.399-2.083.127-2.083-.53 0-.58-.549-.68-.831-.153m-12.212 5.186c.114.146.164.309.111.362-.053.053.066.183.264.289.327.175.344.163.186-.131-.095-.179-.119-.391-.054-.471.066-.081.051-.092-.032-.024-.083.068-.271.031-.417-.083-.229-.179-.237-.171-.058.058m1.376 2.046c0 .188.654.841.748.747.046-.046-.103-.26-.332-.475-.228-.215-.416-.337-.416-.272m1.228 1.355c.101.214.238.355.304.314.169-.104-.014-.521-.272-.62-.169-.065-.176.001-.032.306m.178.769c-.053.085-.177.103-.276.042-.108-.067-.133-.034-.062.081.065.105.052.192-.03.192-.082 0-.149.109-.149.243 0 .133.075.196.167.139.1-.062.125.009.061.174-.058.153-.042.277.036.277s.181-.15.229-.333c.054-.205.021-.293-.085-.227-.096.059-.14.008-.1-.112.04-.12.237-.23.438-.245.507-.037.612-.189.205-.296-.186-.049-.382-.02-.434.065m2.66 4.176c-.047.077.069.139.258.139s.343-.062.343-.139c0-.076-.116-.139-.257-.139-.142 0-.296.063-.344.139m2.268 1.102c0 .173.448.704.595.704.132 0 .073-.114-.262-.5-.183-.212-.333-.304-.333-.204m2.5 1.61c0 .291.273.484.492.348.222-.137.022-.588-.26-.588-.128 0-.232.108-.232.24m3.066 3.955c-.133.215.109.504.347.413.117-.045.301.006.41.114.151.149.17.126.083-.102-.08-.21-.216-.266-.468-.191-.34.101-.342.096-.041-.134.275-.21.28-.239.034-.239-.154 0-.318.062-.365.139m19.225 5.069c-.442.443-.056 2.067.617 2.595.503.393.453.164-.098-.451-.191-.213-.323-.651-.35-1.166l-.044-.825 1.834-.051c1.871-.053 2.933.126 3.444.581.153.136.453.22.667.186.343-.053.3-.108-.361-.468-.766-.417-5.371-.74-5.709-.401m11.762 6.151c.02.194.171.346.365.366.241.024.254.01.05-.05-.155-.047-.319-.211-.365-.366-.061-.204-.075-.19-.05.05m-4.28.456c.046.074.172.082.28.017.112-.068.098.003-.032.164-.197.243-.191.282.042.282.156 0 .27-.136.27-.323 0-.217-.106-.315-.322-.299-.177.013-.284.085-.238.159M151.417 45c.458.197.622.197.5 0-.057-.092-.268-.161-.469-.155-.352.011-.353.017-.031.155m-3.176.97c.051.351.487.37.554.024.029-.153-.08-.265-.273-.28-.214-.016-.309.07-.281.256m7.956 3.95c.154.182.358.537.454.789.104.272.294.452.47.445.176-.008.211-.048.086-.098-.115-.046-.166-.154-.114-.238.052-.085-.022-.199-.166-.254-.143-.055-.26-.254-.26-.443s-.05-.294-.11-.234c-.06.061-.229.018-.375-.094-.218-.167-.215-.144.015.127" fill="#3c84cc"/><path d="M118.282 10.622c-.04.071-.021.274.044.452.112.309.123.307.214-.041.092-.353-.107-.671-.258-.411m2.218.272c0 .313.153.453.75.68.412.158.75.347.75.42 0 .073.225.225.5.339.275.114.5.275.5.358 0 .083.173.216.384.297.426.161.948.577 2.062 1.639.643.614.737.659.691.333-.035-.243-.187-.396-.429-.43-.232-.033-.375-.169-.375-.357 0-.181-.16-.344-.396-.403-.219-.055-.437-.251-.485-.435-.05-.193-.227-.335-.417-.335-.19 0-.367-.142-.417-.334-.055-.212-.281-.374-.616-.441-.344-.068-.58-.242-.678-.498-.102-.27-.281-.394-.57-.394-.385 0-.518-.214-.44-.708.01-.069-.168-.125-.397-.125-.327 0-.417.085-.417.394m109.705 1.439c0 .321.035.452.077.292.041-.16.041-.423 0-.583-.042-.161-.077-.03-.077.291M93.409 17.917c0 3.3.022 4.673.049 3.052.027-1.621.027-4.321 0-6-.027-1.679-.049-.352-.049 2.948m112.048-5.287c.063.162.032.216-.084.145-.101-.063-.221-.053-.267.021-.045.074.137.152.406.172.558.043.695-.375.167-.513-.238-.062-.295-.018-.222.175m136.262-.186c.064.107.026.224-.085.261-.124.042-.138.106-.035.17.34.21.603-.139.294-.39-.16-.129-.238-.148-.174-.041m18.648 1.756c-.236.235-.262.467-.053.467.081 0 .186-.15.234-.334.102-.389.086-.4-.181-.133m-233.768 1.493c.175.198.468.528.651.734.843.947 1.824 2.255 1.961 2.615.062.16.181.291.266.291.084 0 .268.286.407.635.14.349.373.733.518.854.146.12.267.303.27.407.003.103.151.488.328.854.342.709.519 13.033.194 13.545-.3.473-1.153.534-1.9.137-.391-.207-1.035-.421-1.432-.474-.397-.053-.848-.211-1.002-.351-.155-.14-.605-.327-.999-.415-.395-.089-.844-.268-.998-.398-.154-.13-.598-.327-.988-.438-.39-.111-.708-.271-.708-.356 0-.084-.316-.238-.702-.342-.386-.104-.779-.286-.875-.403-.095-.118-.398-.258-.673-.311-.275-.054-.407-.056-.292-.006.115.049.208.225.208.391 0 .23.184.328.787.418.457.069.874.242.994.413.113.162.473.338.799.391.326.053.789.25 1.029.439.266.21.682.344 1.069.344.475 0 .658.079.733.315.113.355.554.512 1.444.516.429.001.673.104.839.354.293.442 2.721.551 2.985.134.162-.256.212-13.338.054-13.929-.053-.198-.24-.397-.415-.443-.224-.058-.318-.231-.318-.586 0-.486-.358-1.028-.678-1.028-.085 0-.155-.174-.155-.388 0-.213-.187-.563-.417-.779-.229-.215-.416-.535-.416-.711 0-.18-.146-.358-.334-.407-.183-.048-.333-.227-.333-.398 0-.192-.159-.35-.417-.415-.254-.064-.416-.224-.416-.409 0-.167-.142-.349-.316-.404-.173-.055-.354-.248-.401-.428-.047-.18-.217-.328-.377-.328-.269 0-.267.028.026.36m-78.227.474c0 .32.034.452.076.291.042-.16.042-.423 0-.583-.042-.16-.076-.029-.076.292m.342 1.583c.002.458.034.626.072.373.039-.254.038-.629-.002-.834-.04-.205-.071.003-.07.461m148.384 1.135c-.173.127-.244.275-.157.329.22.135.613-.134.536-.367-.046-.137-.154-.126-.379.038m-148.585.886c-.017.243.462.643.602.503.059-.059.015-.107-.097-.107s-.151-.087-.085-.193c.07-.113.046-.147-.06-.082-.098.061-.216.016-.262-.099-.053-.131-.09-.139-.098-.022m329.07.396c.166.183.312.333.324.333.012 0 .033-.15.047-.333.018-.235-.077-.334-.324-.334-.338 0-.339.01-.047.334m-191.255 1.176c-.274.512-.114.732.244.336.19-.21.234-.346.111-.346-.112 0-.156-.075-.1-.166.057-.092.064-.167.016-.167s-.17.154-.271.343m9.074.053c-.142.368.046.556.301.301.15-.15.151-.243.002-.392-.148-.148-.22-.126-.303.091m-114.298.193c-.049.129-.006.285.096.348.112.069.138.039.066-.078-.065-.106-.04-.192.057-.192.098 0 .178.131.18.291.002.33.323-.042.328-.381.004-.264-.625-.253-.727.012m67.3.025c.055.376.232.421.403.103.134-.251.108-.312-.134-.312-.165 0-.286.094-.269.209m78.356.731c.347.383.407.396.407.091 0-.127-.157-.271-.349-.322-.335-.087-.337-.078-.058.231m56.376 1.58c.045.386.154.575.332.575.196 0 .217-.049.078-.187-.102-.103-.152-.278-.109-.39.043-.112-.022-.286-.145-.388-.181-.15-.21-.076-.156.39m98.892.516c-.175.19-.179.293-.021.484.273.329.438.304.54-.086.116-.444-.231-.71-.519-.398m-34.129 2.253c-.047.077-.008.139.086.139s.123.125.065.278c-.066.171-.04.236.068.169.287-.178.364-.724.102-.724-.129 0-.273.062-.321.138m34.85.641c-.056.091-.041.166.033.168.074.001.034.066-.089.144-.165.104-.118.162.181.219.44.084.538-.172.19-.497-.135-.126-.25-.139-.315-.034m-189.706.29c-.223.478-.15 1.257.124 1.332.222.061.222.049 0-.108-.223-.158-.223-.178 0-.182.219-.005.219-.025.004-.161-.213-.134-.21-.168.021-.257.147-.056.266-.285.266-.509 0-.474-.22-.535-.415-.115m175.996 1.208c0 .321.034.452.076.292.042-.16.042-.423 0-.583-.042-.161-.076-.03-.076.291M383.235 32c0 1.604.025 2.26.056 1.458.03-.802.03-2.114 0-2.916-.031-.802-.056-.146-.056 1.458m-140.902-1.684c.38.106.388.127.097.239-.241.093-.272.169-.126.315.224.225.738.333.612.13-.046-.076.001-.167.105-.202.309-.102-.331-.633-.741-.615-.331.015-.326.027.053.133m102.709 1.137c-.115.041-.209.197-.209.347 0 .247.026.246.282-.01.301-.302.267-.458-.073-.337m24.01 1.964c.001.55.032.755.069.455.037-.3.036-.75-.002-1s-.068-.005-.067.545m-26.609-.28c-.167.185-.228.373-.139.428.197.122.583-.321.499-.572-.036-.11-.183-.051-.36.144M136.744 35.34c-.213.235-.316.63-.335 1.291-.021.698-.01.753.042.207.039-.411.15-.842.247-.959.279-.336 4.662-.294 5.329.052.391.202.493.212.436.041-.041-.122-.218-.249-.393-.281-.176-.033-.635-.202-1.019-.375-1.049-.474-3.871-.458-4.307.024M33.237 38.583c0 1.925.025 2.69.054 1.7.03-.991.03-2.566 0-3.5-.03-.935-.054-.125-.054 1.8m349.611-3.111c-.122.228-.088.297.151.315.376.029.572-.391.243-.517-.13-.05-.307.041-.394.202m-95.015.592c0 .26.446.492.568.295.042-.069-.068-.216-.245-.327-.261-.163-.323-.157-.323.032m-207.822.173c-.115.138-.13.273-.038.33.086.053.243-.009.35-.137.114-.138.129-.273.037-.33-.085-.053-.243.009-.349.137m208.559 1.462c.072.658.278.9.472.554.121-.217.077-.375-.178-.63l-.34-.34.046.416m-152.119.426c.119.321.375.538.632.534.092-.001.036-.079-.125-.172-.16-.094-.291-.279-.291-.412 0-.133-.073-.242-.162-.242-.089 0-.113.132-.054.292m74.882.042c.167.107.181.162.042.164-.23.003-.212.356.027.529.328.237.623-.054.311-.309-.163-.133-.184-.185-.046-.115.215.11.218.089.021-.154-.126-.155-.313-.281-.417-.279-.103.001-.075.075.062.164m.732 1.912c.061.411.268.5.268.115 0-.198-.068-.361-.152-.361-.083 0-.135.111-.116.246m61.55.289c.339.375.37.373.34-.022-.015-.195-.139-.311-.317-.298-.271.02-.273.045-.023.32m-12.18.58c.025.108-.043.234-.153.278-.135.055-.138.085-.011.094.104.007.291-.114.417-.269.126-.155.141-.229.035-.165-.107.064-.226.059-.265-.01-.038-.069-.049-.037-.023.072m137.289-.024c-.054.141-.054.302.001.357.129.128.608-.266.608-.5 0-.098-.112-.032-.25.145-.209.27-.234.275-.149.032.125-.359-.073-.391-.21-.034M93.409 46.75c0 3.3.022 4.674.049 3.052.027-1.621.027-4.321 0-6-.027-1.678-.049-.352-.049 2.948m288.008-5.25c-.294.325-.292.333.099.32.22-.007.304-.052.185-.099-.165-.067-.17-.141-.021-.321.299-.36.077-.276-.263.1m-155.473.778c-.199.2-.116.5.139.5.138 0 .25-.138.25-.306 0-.308-.183-.4-.389-.194M3.567 43.872c-.22.258-.233.307-.042.16.224-.173.292-.172.362.003.048.118.093.046.1-.16.016-.466-.024-.466-.42-.003m240.333.029c-.162.422.003.626.222.275.13-.208.144-.364.04-.429-.09-.056-.208.013-.262.154m50.854-.075c-.06.097.008.221.151.276.143.055.218.167.168.249-.051.082-.013.149.084.149.255 0 .217-.426-.059-.654-.162-.135-.269-.141-.344-.02m29.667 0c-.06.097.012.223.159.279.367.141.481-.014.189-.256-.164-.136-.273-.143-.348-.023m24.968.091c0 .142.068.236.151.208.084-.027.152-.121.152-.208s-.068-.181-.152-.209c-.083-.028-.151.066-.151.209m-50.889.166c0 .138.067.25.149.25.082 0 .192-.112.245-.25.058-.152 0-.25-.149-.25-.135 0-.245.113-.245.25m98.833-.045c0 .081-.074.103-.164.047-.096-.059-.122.01-.063.164.092.24.132.238.415-.018.376-.341.377-.342.062-.342-.137 0-.25.067-.25.149m-178.655.455c-.122.076-.165.227-.095.339.096.157.158.151.269-.023.105-.166.144-.171.145-.017.002.114.115.208.253.208.137 0 .25-.072.25-.161 0-.253-.578-.497-.822-.346m158.338.071c-.147.177-.134.252.055.325.174.066.215.016.142-.175-.074-.193-.041-.23.118-.132.147.091.181.072.102-.056-.152-.245-.185-.242-.417.038M48.404 49.167c0 1.97.024 2.777.054 1.791.029-.985.029-2.598 0-3.583-.03-.985-.054-.179-.054 1.792m.333 0c0 1.97.025 2.777.054 1.791.03-.985.03-2.598 0-3.583-.029-.985-.054-.179-.054 1.792m216.334 0c0 1.97.024 2.777.053 1.791.03-.985.03-2.598 0-3.583-.029-.985-.053-.179-.053 1.792m91.096-2.771c0 .035.112.157.25.271.204.17.25.158.25-.063 0-.149-.113-.271-.25-.271-.138 0-.25.029-.25.063m-118.427.844c-.317.236-.317.24.024.217.191-.013.347-.121.347-.24 0-.266.021-.267-.371.023m120.16.681c.02.137.13.342.245.456.166.165.184.142.087-.113-.085-.222-.063-.282.073-.198.107.066.195.081.195.033s-.143-.164-.318-.258c-.25-.133-.311-.116-.282.08m-25.728.037c.003.069.125.275.272.459.235.293.255.296.162.028-.058-.168-.106-.374-.106-.459 0-.084-.075-.153-.167-.153-.091 0-.164.057-.161.125m-102.374 4.001c-.345.416.124.619.519.224.192-.192.35-.371.35-.397 0-.154-.716-.011-.869.173m157.169-.012c.163.065.143.147-.083.329-.278.224-.273.229.065.066.536-.259.63-.511.186-.496-.212.008-.287.053-.168.101M48.169 52.964c-.001.117.11.256.248.309.137.053.25.2.25.328s.112.232.25.232c.137 0 .25-.058.25-.129 0-.167-.666-.741-.67-.577-.001.067-.075.01-.164-.127-.113-.175-.162-.186-.164-.036m286.998.536c0 .222.111.333.333.333.348 0 .414-.133.206-.416-.224-.304-.539-.255-.539.083m-121.908.116c.275.275.376.273.665-.016.2-.2.154-.231-.325-.218-.459.013-.519.055-.34.234m157.817-.016c.302.302.924.302.924 0 0-.155-.194-.233-.579-.233-.495 0-.545.033-.345.233m8.091.067c0 .091.112.166.25.166.137 0 .25-.075.25-.166 0-.092-.113-.167-.25-.167-.138 0-.25.075-.25.167" fill="#143864"/></g></svg>