<svg xmlns="http://www.w3.org/2000/svg" width="400" height="94.375"><g fill-rule="evenodd"><path d="M399.667 47.167c0 31.333.056 47.166.166 47.166.111 0 .167-15.833.167-47.166C400 15.833 399.944 0 399.833 0c-.11 0-.166 15.833-.166 47.167M261.048 8.83c-4.37.498-8.369 6.519-6.81 10.251.144.345.262.763.262.931 0 .748 1.629 3.115 2.642 3.839.307.219.701.53.875.691.174.16.419.291.544.291.125 0 .418.15.651.334.233.183.562.332.731.331.169-.001.851.125 1.515.28 1.136.266 1.281.266 2.417 0 .665-.155 1.347-.281 1.515-.28.169.001.498-.148.731-.331.233-.184.539-.334.679-.334.287 0 .356-.056 1.877-1.526 1.076-1.04 1.469-1.62 2.148-3.173.427-.977.502-4.74.109-5.493-.127-.243-.32-.712-.429-1.042-.108-.329-.267-.599-.351-.599-.085 0-.154-.113-.154-.25 0-.138-.15-.4-.333-.583-.184-.184-.334-.382-.334-.44 0-.187-1.571-1.551-1.916-1.663-.184-.06-.371-.16-.417-.223-.245-.335-1.841-.9-2.887-1.021-1.349-.156-1.61-.156-3.065.01m95.535 6.585c-.575.261-1.896.702-2.761.922-.326.083-.814.266-1.083.406s-.639.258-.822.262c-.184.003-.634.151-1 .328-.367.177-.803.325-.97.328-.166.003-.463.091-.659.196-.196.105-.697.287-1.114.404-.416.118-1.282.412-1.924.655-.642.243-1.429.499-1.75.57-.321.071-.883.272-1.25.448l-.667.318-.041 4.749c-.052 5.987.56 5.332-4.977 5.332h-4.232v4.984l4.058.05c3.137.038 4.121.102 4.334.278.251.209.276 1.297.285 12.417.005 6.703.08 13.2.166 14.438.207 2.987.545 5.672.765 6.083.098.184.228.594.289.913.06.319.25.881.42 1.25.17.369.359.783.42.921.794 1.805 2.736 3.738 4.763 4.741.504.249 1.064.532 1.243.628.179.097.741.272 1.25.388.508.117 1.224.289 1.591.383 3.05.779 11.161.549 14.625-.415.269-.075.291-.453.291-4.899v-4.818l-3.375.017c-3.321.017-3.609-.019-4.549-.574-1.274-.752-2.163-2.477-2.42-4.701-.197-1.703-.191-20.802.007-21.323l.162-.427h4.765c2.966 0 4.887-.065 5.088-.173.414-.222.498-9.332.09-9.869-.201-.266-.643-.292-4.982-.292-4.107 0-4.798-.036-5.024-.262-.23-.23-.262-1.149-.262-7.583 0-4.027-.056-7.317-.125-7.311-.068.006-.35.113-.625.238m-211.972.529c-.206.207-.126 4.308.089 4.523.134.133.872.2 2.224.2 2.24 0 2.975.213 3.253.945.175.458.224 48.842.051 49.706-.158.789-.565.922-3.111 1.018-2.786.105-2.63-.062-2.575 2.747l.041 2.167h27.167l.05-1.917c.027-1.054.005-2.16-.049-2.458l-.099-.542h-2.251c-2.598 0-3.125-.162-3.295-1.013-.214-1.07-.121-14.736.102-15.034.182-.244.701-.285 4.125-.331 3.656-.048 5.99-.249 7.584-.65.366-.093 1.079-.271 1.583-.395 2.71-.671 5.982-2.274 7.979-3.91 1.577-1.291 3.49-3.36 3.738-4.042.058-.16.183-.291.278-.291.094 0 .172-.103.172-.228s.145-.412.323-.638c.177-.226.372-.608.433-.849.06-.241.215-.526.343-.632.129-.107.237-.316.24-.465.003-.15.15-.572.327-.938.177-.367.325-.894.328-1.172.003-.277.137-.69.297-.916.441-.623.442-9.154.001-9.912-.159-.275-.293-.725-.297-1-.004-.275-.152-.8-.329-1.167-.177-.367-.324-.789-.327-.938-.003-.149-.119-.365-.256-.479-.138-.114-.25-.338-.25-.498 0-.159-.14-.469-.31-.688-.171-.218-.364-.566-.428-.772-.065-.206-.186-.375-.269-.375-.083 0-.275-.24-.427-.534-.428-.826-2.845-3.127-4.233-4.027-.687-.447-1.448-.949-1.691-1.118-.243-.168-.634-.354-.868-.413-.235-.059-.514-.213-.621-.341-.107-.129-.319-.234-.472-.234-.152 0-.571-.15-.931-.333-.36-.183-.793-.333-.963-.333-.17 0-.66-.144-1.089-.32-.43-.175-1.149-.363-1.598-.417-.449-.053-.9-.166-1.002-.251-.102-.085-1.097-.238-2.21-.341-1.113-.102-2.274-.258-2.58-.345-.628-.18-28.018-.227-28.197-.049M33.268 17.763c-.133.347-.131 3.381.003 4.05l.104.52h2.367c2.258 0 2.383.018 2.729.386l.362.386v48.46l-.448.468-.447.467h-2.299c-2.725 0-2.509-.243-2.437 2.75l.048 2 22.25.046c12.237.025 22.419.005 22.625-.045l.375-.091V59.673l-.375-.093c-.206-.051-1.312-.071-2.458-.045l-2.084.048-.096 2.334c-.095 2.288-.2 2.877-.558 3.122-.289.198-17.734.155-18.107-.045-.316-.169-.322-.576-.322-20.758 0-21.483-.013-21.039.618-21.736.041-.046 1.175-.121 2.52-.167l2.445-.083v-4.667l-13.356-.042c-12.072-.039-13.367-.018-13.459.222m137.837 9.557c1.272.091 1.978.219 2.246.407.214.15.551.273.749.273.198 0 .453.113.567.25.114.137.309.25.434.25.357 0 2.229 1.844 2.622 2.583 1.495 2.81 1.526 6.358.084 9.378-.354.741-2.189 2.705-2.529 2.707-.107 0-.42.12-.695.266-2.05 1.086-7.948 1.607-8.41.744-.315-.588-.23-16.43.089-16.749.299-.3 1.75-.332 4.843-.109m47.145 2.169c-1.008.068-2.021.21-2.25.316-.229.106-.829.263-1.333.348-1.344.229-4.173 1.214-4.68 1.631-.145.119-.357.216-.471.216-1.769 0-7.974 5.786-9.471 8.833-.113.229-.271.529-.351.667-.079.137-.296.587-.48 1-.185.413-.458 1.012-.607 1.333-.15.321-.322.846-.383 1.167-.061.321-.203.733-.315.917-.112.183-.254.74-.316 1.237-.062.497-.194 1.056-.293 1.242-.461.861-.456 10.265.006 10.821.101.122.233.667.292 1.211.059.544.202 1.14.316 1.324.115.185.261.598.325.917.131.656.261.97 1.283 3.081 1.522 3.147 4.119 6.165 6.883 7.999.493.328.989.706 1.1.84.111.134.333.244.493.244.16 0 .469.132.688.292.695.51 2.833 1.466 3.647 1.631.321.064.772.214 1.003.331.23.118.792.268 1.25.335.457.066.926.196 1.042.288.772.616 11.652.612 12.414-.004.114-.093.62-.222 1.125-.287.504-.064 1.067-.213 1.252-.33.185-.116.597-.266.917-.332.319-.066.899-.263 1.289-.438 1.791-.806 2.307-1.067 2.512-1.269.121-.119.335-.217.476-.217.141 0 .555-.237.92-.526.366-.29.935-.71 1.265-.934 1.705-1.157 4.956-4.669 5.287-5.711.057-.181.169-.329.248-.329.08 0 .197-.168.262-.375.065-.206.257-.554.428-.772.171-.219.31-.528.31-.688 0-.16.105-.377.233-.484.128-.106.284-.467.347-.803s.221-.762.351-.948c.13-.185.236-.489.237-.675.001-.186.119-.563.262-.838.144-.275.3-.875.348-1.333.047-.459.21-1.209.362-1.667.419-1.262.408-8.848-.015-9.878-.16-.392-.291-.97-.291-1.286 0-.315-.15-.954-.334-1.419-.183-.465-.333-.977-.333-1.138 0-.16-.15-.586-.333-.946-.184-.359-.334-.778-.334-.931 0-.153-.107-.367-.239-.476-.132-.11-.287-.418-.346-.686-.059-.267-.177-.53-.263-.583-.086-.053-.268-.335-.404-.627-1.182-2.535-4.849-6.228-8.027-8.082-.657-.384-1.289-.698-1.403-.698-.115 0-.326-.097-.471-.216-.499-.41-3.315-1.395-4.68-1.638-.504-.089-1.217-.264-1.583-.388-.821-.278-6.537-.445-9.167-.269m93 .011c-.917.062-2.026.237-2.464.389-.439.153-.952.278-1.141.278-.189 0-.543.107-.786.238s-.817.413-1.276.625c-2.071.961-4.556 3.102-5.767 4.971-.564.871-1.214 1.415-1.487 1.246-.096-.059-.162-1.39-.162-3.247 0-3.064-.01-3.155-.371-3.407-.325-.228-1.546-.26-9.916-.26h-9.547v4.976l2.495.054c2.127.046 2.538.098 2.792.351.281.282.299 1.392.34 20.96l.044 20.663 7.706-.044 7.707-.043.094-11.25c.095-11.466.303-16.156.753-17.027.13-.251.236-.63.236-.842 0-.212.15-.666.333-1.008.184-.342.334-.694.334-.782 0-.791 2.147-2.937 3.627-3.626 1.454-.676 5.055-.681 6.261-.009 1.287.717 2.945 2.724 2.945 3.565 0 .105.112.406.249.668.137.263.251.74.254 1.061.003.321.094.883.203 1.25.142.48.223 4.502.288 14.333l.089 13.667h21v-4.652l-.416-.116c-.229-.063-1.264-.123-2.3-.132-1.662-.015-2.55-.187-2.902-.563-.019-.02-.08-5.812-.135-12.87-.101-12.957-.231-15.893-.754-17.026-.134-.288-.243-.704-.243-.923 0-.218-.15-.692-.333-1.051-.183-.36-.334-.77-.334-.911-.001-.141-.151-.481-.333-.756-.182-.275-.331-.595-.332-.71-.001-.116-.264-.584-.584-1.04-.321-.456-.584-.9-.584-.986 0-.172-2.535-2.75-3.179-3.234-.817-.612-2.189-1.447-2.379-1.447-.108 0-.476-.15-.819-.333-.342-.183-.756-.333-.92-.333-.163 0-.707-.141-1.208-.313-1.061-.364-4.418-.531-7.078-.354m-212.667.339c-.641.175-1.354.321-1.583.324-.229.003-.609.106-.844.229-.236.123-.648.275-.917.338-.511.12-.889.279-2.406 1.013-2.466 1.194-3.745 2.132-5.794 4.25-1.869 1.931-1.872 1.934-1.872 2.08 0 .111-.257.464-1.003 1.378-.09.111-.164.27-.164.353 0 .083-.145.336-.323.562-.178.226-.373.608-.433.849-.061.241-.215.525-.344.632-.128.107-.233.317-.233.468 0 .15-.15.553-.334.895-.183.342-.333.716-.334.831-.001.115-.11.418-.244.674-.133.256-.288.744-.343 1.084-.055.34-.203.918-.33 1.284-.78 2.268-.84 12.043-.079 13 .073.092.209.58.302 1.084.093.504.287 1.141.431 1.416.144.275.263.65.264.834.001.183.151.558.333.833.182.275.332.622.333.771 0 .149.106.359.234.465.129.107.281.383.339.614.058.231.366.789.683 1.241.318.452.578.873.578.935 0 .062.111.231.247.377.59.631 1.087 1.237 1.09 1.33.015.399 3.296 3.293 4.882 4.305.977.623 3.449 1.879 3.699 1.879.114 0 .293.103.398.229.105.126.508.28.895.342.388.062.856.209 1.039.328.183.119.744.27 1.246.336s1.002.194 1.112.285c.918.762 10.17.848 13.392.125.412-.093 1.275-.262 1.917-.377.641-.115 1.316-.29 1.5-.389.183-.099.69-.233 1.127-.299.436-.065.831-.18.878-.255.046-.075.495-.228.998-.341.502-.112.913-.264.913-.337 0-.073.282-.184.625-.246.344-.063.906-.273 1.249-.466l.624-.352.001-5.375c.001-3.786-.053-5.375-.181-5.375-.183 0-.454.123-1.767.804-.385.199-.801.363-.923.363-.123 0-.518.15-.878.333-.359.183-.806.336-.993.339-.187.003-.486.115-.664.25-.177.134-.531.244-.785.244s-.843.15-1.308.334c-.478.188-1.238.333-1.75.333-.498 0-1.264.125-1.702.277-1.108.385-5.304.379-6.36-.009-.401-.147-1.001-.268-1.334-.269-.332-.001-.829-.15-1.104-.332-.275-.182-.664-.332-.865-.333-.201 0-.412-.077-.47-.17-.057-.093-.343-.283-.634-.423-.991-.473-1.447-.759-1.447-.906 0-.08-.147-.192-.326-.249-.373-.119-1.907-1.988-2.075-2.529-.062-.198-.222-.451-.356-.562-.134-.112-.244-.362-.244-.557-.001-.195-.113-.569-.25-.832-.304-.582-.319-1.041-.041-1.221.115-.074 6.883-.173 15.042-.218l14.833-.084.056-1.083c.089-1.706-.317-8.345-.555-9.083-.119-.367-.265-1.072-.326-1.568-.06-.496-.218-1.111-.351-1.367-.132-.256-.241-.639-.241-.851 0-.212-.15-.666-.333-1.008-.183-.342-.333-.804-.333-1.027 0-.223-.099-.505-.22-.626s-.301-.445-.4-.72c-.1-.275-.376-.838-.613-1.25-.238-.413-.515-.956-.616-1.208-.101-.252-.254-.459-.34-.459-.085 0-.209-.138-.275-.307-.461-1.181-3.105-3.834-5.208-5.224-1.597-1.055-1.706-1.12-2.162-1.304-.229-.092-.604-.27-.833-.397-.229-.126-.679-.284-1-.351-.321-.067-.665-.188-.766-.268-.1-.08-.737-.262-1.416-.404-.679-.141-1.535-.326-1.901-.41-1.332-.306-8.037-.184-9.334.171m151.121 2.953.046 2.458 2.453.083c2.06.07 2.5.131 2.75.381.299.3.579 34.001.296 35.577-.148.826-.73 1.042-2.803 1.042-.956 0-1.972.047-2.259.105l-.52.104v4.791h13.153c7.234 0 13.271-.045 13.416-.101.222-.085.264-.442.264-2.224 0-2.747.069-2.675-2.563-2.675-2.154 0-2.734-.172-3.071-.912-.151-.331-.199-5.299-.199-20.499 0-11.034-.046-20.18-.101-20.325-.091-.237-1.172-.264-10.505-.264h-10.403l.046 2.459m-144.371 6.953c2.325.392 5.334 2.587 5.334 3.891 0 .065.143.387.319.714.175.328.371.946.436 1.375.064.428.183.82.264.87.354.219.157 1.671-.283 2.084l-.43.404-7.466.05c-8.633.057-8.112.153-7.96-1.457.048-.509.207-1.151.353-1.426.145-.275.265-.627.266-.783.001-.3.495-1.285 1.195-2.384.626-.982 1.942-2.254 2.625-2.538.328-.137.642-.32.697-.407.054-.087.654-.235 1.333-.329.679-.094 1.265-.202 1.303-.24.113-.112.516-.077 2.014.176m118.764 1.098c.634.189 1.265.412 1.403.497.137.085.487.262.776.392 1.108.501 2.726 2.326 3.493 3.942.762 1.605.888 1.933.987 2.576.057.367.202.929.321 1.25.485 1.302.454 8.088-.04 8.716-.087.11-.205.576-.264 1.034-.058.458-.211 1.058-.34 1.333-.129.275-.32.688-.425.917-.722 1.575-2.336 3.667-2.829 3.667-.098 0-.179.076-.179.17 0 .094-.206.261-.458.372-.252.11-.496.25-.542.311-.316.417-2.71.98-4.167.98-1.967 0-5.166-1.042-5.166-1.683 0-.083-.087-.15-.193-.15-.354 0-1.948-1.867-2.31-2.706-.09-.208-.23-.49-.311-.628-.394-.669-.853-1.825-.853-2.148 0-.199-.11-.627-.245-.949-.654-1.565-.648-8.66.009-9.93.13-.251.236-.63.236-.842 0-.212.15-.665.333-1.008.184-.342.334-.729.334-.86s.102-.341.228-.467c.125-.125.285-.412.354-.637.148-.479.226-.577 1.569-1.96.561-.578 1.263-1.16 1.559-1.294.297-.134.652-.313.79-.398 1.296-.805 4.103-1.04 5.93-.497" fill="#fbf9f9"/><path d="M0 47.167v47.166H399.167V0H0v47.167M264.457 8.333c.521.184 1.11.334 1.308.334.199 0 .45.107.559.239.11.132.424.289.699.349.275.06.54.215.589.344.05.129.183.234.295.234.113 0 .537.346.941.769.404.422.867.889 1.027 1.037.16.148.292.327.292.398 0 .071.15.28.333.463.183.183.333.474.333.646 0 .172.106.401.236.509.129.107.288.585.352 1.062.064.476.19.958.281 1.07.208.257.206 2.591-.002 2.994-.086.166-.209.594-.273.95-.065.356-.262.918-.439 1.247-.177.33-.321.661-.321.735 0 .074-.076.225-.169.336-.093.11-.399.501-.68.868-.957 1.248-3.309 2.916-4.111 2.916-.165 0-.47.12-.678.266-.296.206-.818.265-2.362.265s-2.067-.059-2.362-.265c-.209-.146-.54-.266-.736-.266-.197 0-.548-.15-.781-.333-.233-.183-.514-.333-.624-.333-.586 0-3.331-2.744-3.331-3.33 0-.166-.111-.344-.247-.396-.136-.052-.295-.396-.354-.765-.059-.368-.21-.755-.336-.86-.328-.272-.328-4.766-.001-5.237.126-.181.281-.568.344-.859.064-.292.223-.62.355-.729.132-.109.239-.295.239-.414 0-.502 1.917-2.421 3.002-3.006.497-.268.995-.571 1.106-.673.112-.102.523-.236.915-.299.391-.062.79-.178.886-.257.508-.417 2.541-.421 3.715-.009m93.21 14 .083 7.417 5.12.044c4.924.042 5.128.057 5.299.377.274.513.149 10.578-.135 10.863-.164.164-1.436.236-5.25.299l-5.034.084-.043 8.666c-.05 9.963.207 13.79 1.001 14.912.161.227.292.478.292.557 0 .207.883 1.115 1.085 1.115.094 0 .45.15.792.333.792.424 4.765.478 5.873.079 1.575-.568 1.583-.54 1.583 5.478 0 5.971.18 5.526-2.287 5.686-.988.065-2.117.224-2.51.354-1.016.336-8.218.337-9.239.001-.392-.129-1.179-.286-1.748-.349-.569-.062-1.121-.219-1.229-.348-.107-.129-.429-.235-.715-.235-.287-.001-.747-.151-1.022-.333-.275-.182-.619-.331-.766-.332-.146-.001-.439-.151-.65-.334-.212-.184-.448-.334-.526-.334-.077 0-.283-.131-.457-.291-.175-.161-.568-.472-.875-.691-.787-.562-2.641-2.947-2.643-3.4-.001-.111-.151-.426-.333-.701-.182-.275-.331-.652-.332-.838-.001-.186-.117-.503-.259-.706-.141-.202-.298-.762-.347-1.245-.05-.483-.213-1.178-.363-1.544-.243-.596-.278-2.256-.331-15.584-.053-13.299-.088-14.948-.323-15.208-.236-.262-.658-.292-4.12-.292-2.779 0-3.914-.056-4.058-.2-.211-.21-.297-5.02-.099-5.536.089-.231.635-.264 4.417-.264h4.315V20.206l.575-.438c.327-.249.902-.483 1.332-.542.416-.057.841-.207.945-.332.104-.125.424-.228.71-.228.287-.001.747-.151 1.022-.333.275-.182.687-.332.916-.333.23-.001.642-.151.917-.333.275-.182.725-.334 1-.338.275-.003.641-.113.814-.244.173-.131.639-.287 1.036-.346.398-.06.809-.213.915-.34.106-.128.427-.233.714-.233.286-.001.746-.151 1.021-.333.275-.182.725-.332 1-.333.275-.001.725-.153 1-.338.338-.227.716-.321 1.167-.29l.666.045.084 7.416m-182.119-6.529c.146.121.851.261 1.567.311.716.05 1.452.183 1.635.297.183.113.708.26 1.167.327.458.066.999.227 1.202.357.203.131.541.238.75.238.21.001.606.151.881.333.275.182.663.331.863.332.2.001.463.101.585.223.23.23.831.574 1.76 1.008.298.139.542.332.542.428 0 .097.121.175.269.175.766 0 5.398 4.673 5.398 5.446 0 .122.069.221.153.221.085 0 .241.262.347.583.106.321.255.584.333.584.077 0 .193.242.259.539.065.296.215.69.334.875.119.185.27.636.335 1.002.066.367.19.713.276.768.086.056.227.694.313 1.417.087.723.225 1.503.307 1.732.236.661.33 3.135.17 4.5-.248 2.118-.64 4.212-.821 4.394-.095.095-.173.329-.173.521 0 .191-.146.634-.324.983-.178.349-.37.847-.427 1.107-.057.259-.211.561-.343.671-.132.109-.239.327-.239.485 0 .158-.15.423-.334.589-.183.166-.333.405-.333.531s-.113.273-.25.325c-.138.053-.25.193-.25.311s-.186.391-.414.607c-.227.216-.415.447-.416.513-.004.133-2.102 2.296-2.228 2.296-.044 0-.35.263-.681.584-.33.32-.66.583-.734.583-.073 0-.536.3-1.027.667-.491.366-.999.666-1.129.666-.129 0-.426.15-.659.334-.233.183-.564.333-.734.333-.171 0-.311.072-.311.16 0 .088-.294.24-.653.336-.359.097-.865.287-1.125.422-.26.136-.699.247-.977.248-.277 0-.676.121-.885.267-.21.147-.845.307-1.412.356-.568.049-1.121.159-1.23.245-.338.267-3.147.457-6.843.461l-3.542.005v15.125l.521.104c.286.057 1.482.104 2.657.104 1.525 0 2.174.06 2.27.209.223.343.275 4.875.061 5.274l-.187.351h-13.628c-10.377 0-13.675-.048-13.827-.2-.248-.248-.279-4.572-.038-5.206l.163-.428h2.15c1.182 0 2.384-.047 2.671-.104l.52-.104V21.539l-.375-.101c-.206-.055-1.401-.101-2.656-.102-1.641-.002-2.32-.061-2.417-.211-.166-.257-.29-4.65-.147-5.219l.103-.413 15.471.045c12.533.037 15.521.087 15.736.266M60.5 16.996c.334.211.478 5.045.162 5.427-.16.192-.684.244-2.479.244-1.79 0-2.355.055-2.646.259l-.37.26V64.833h8.583c10.352 0 9.25.354 9.25-2.966 0-1.567.064-2.364.2-2.5.211-.211 4.855-.297 5.37-.099.402.154.402 18.143 0 18.298-.689.264-45.374.106-45.641-.161-.374-.374-.38-4.361-.008-5.08l.254-.492 2.288-.002c1.258-.002 2.37-.058 2.47-.125.561-.375.567-.629.567-24.452V23.653l-.365-.493-.364-.493h-2.293c-2.896 0-2.811.082-2.811-2.709 0-1.342.077-2.153.241-2.547l.242-.578 13.55.003c8.237.001 13.648.064 13.8.16m106 18.943v8.273l2.042-.087c2.212-.094 4.908-.559 5.262-.908.121-.119.342-.217.491-.217.347 0 1.477-.766 2.124-1.44 2.673-2.784 2.531-9.414-.25-11.643-.228-.184-.546-.463-.705-.621-.159-.158-.475-.334-.703-.391-.228-.058-.501-.21-.608-.338-.107-.129-.337-.234-.511-.234s-.744-.15-1.265-.333c-.784-.276-1.376-.333-3.413-.333H166.5v8.272m-60.303-6.918c.155.08.792.149 1.417.153.625.004 1.436.124 1.803.266.366.142 1.004.315 1.416.384.413.07.975.25 1.25.4.275.151.613.279.75.286.138.007.625.23 1.084.497.458.267 1.077.595 1.375.73.298.135.541.325.541.421 0 .097.135.175.3.175.365 0 .769.301 2.071 1.542.552.527 1.07.958 1.15.958.08 0 .148.057.15.125.002.069.348.5.77.959.847.921 1.718 2.176 2.254 3.25.115.229.343.595.507.814.164.218.298.528.298.688 0 .159.113.384.25.498.138.114.25.33.25.481 0 .15.15.553.334.896.183.342.333.753.334.914.001.16.113.506.249.768.137.261.321.925.409 1.475.089.549.241 1.095.338 1.212.097.117.222.841.277 1.608.056.768.204 1.805.33 2.306.323 1.282.327 8.051.005 8.318-.161.134-4.409.199-14.958.229l-14.734.043.046.725c.026.399.152.83.281.959.129.129.286.399.35.601.064.201.2.461.303.578.102.116.336.409.52.65.183.242.55.637.816.879.266.243.603.557.75.699.147.141.455.348.684.46.229.112.736.384 1.127.605.39.221.952.454 1.247.519.296.065.689.212.873.326 1.009.625 8.08.623 10.086-.002.412-.129 1.125-.285 1.583-.348.459-.063.982-.216 1.162-.341.181-.125.52-.227.753-.227.233 0 .703-.15 1.046-.333.342-.184.732-.334.868-.334s.492-.149.792-.332c.3-.183.653-.333.783-.334.13 0 .372-.123.538-.273.165-.149.584-.281.929-.291l.629-.02.044 5.735c.05 6.443.089 6.227-1.174 6.44-.376.063-.787.219-.914.345-.126.127-.394.23-.595.23-.201 0-.645.15-.988.334-.342.183-.83.333-1.085.333s-.618.108-.807.241c-.189.132-.75.291-1.246.352-.496.062-1.058.21-1.249.329-.192.119-.979.268-1.75.331s-1.724.219-2.116.347c-1.023.334-8.557.333-9.572-.002-.393-.129-1.202-.288-1.798-.353-.596-.064-1.286-.221-1.533-.348-.248-.127-.625-.23-.84-.23-.214 0-.684-.15-1.043-.334-.36-.183-.817-.333-1.015-.333-.199 0-.451-.108-.56-.239-.109-.132-.437-.292-.729-.355-.291-.064-.709-.256-.927-.428-.219-.171-.502-.311-.63-.311s-.276-.113-.329-.25c-.053-.138-.275-.25-.493-.25-.219 0-.492-.15-.606-.334-.115-.183-.299-.333-.41-.333-.111 0-.261-.096-.335-.213-.073-.117-.295-.286-.492-.375-.49-.221-3.224-2.603-3.224-2.809 0-.042-.282-.381-.625-.755-.869-.943-1.375-1.618-1.375-1.833 0-.1-.074-.182-.165-.182-.09 0-.278-.243-.416-.541-.139-.298-.401-.767-.583-1.042-.182-.275-.411-.687-.509-.917-.098-.229-.324-.721-.503-1.094-.178-.373-.324-.809-.324-.97 0-.161-.113-.405-.25-.543-.138-.137-.253-.451-.256-.696-.003-.246-.151-.747-.328-1.113-.177-.367-.324-.935-.327-1.262-.003-.327-.137-1.002-.298-1.5-.245-.761-.291-1.555-.291-4.988 0-3.507.041-4.184.291-4.795.161-.392.292-1.029.293-1.417.001-.388.117-.927.258-1.198.141-.27.302-.82.357-1.22.054-.401.192-.821.305-.934.113-.113.26-.463.327-.779s.218-.687.335-.824c.117-.138.264-.487.325-.778.062-.29.22-.569.352-.62.132-.05.24-.234.24-.408 0-.173.15-.506.333-.739.184-.234.334-.465.334-.516 0-.137.746-1.209 1.059-1.522.151-.151.274-.337.274-.415 0-.077.731-.881 1.625-1.787 2.008-2.034 2.898-2.781 3.875-3.251.229-.111.596-.335.814-.499.219-.164.529-.298.691-.298.161 0 .333-.106.383-.235.049-.128.314-.283.589-.344.275-.06.589-.217.699-.349.109-.131.395-.239.636-.24.241-.001.663-.15.938-.332.29-.192.782-.332 1.171-.333.369 0 .838-.117 1.042-.26.224-.157 1.044-.325 2.079-.425.939-.091 2.158-.227 2.708-.303 1.119-.154 3.516-.048 3.947.175m118.553-.166c.367.099 1.305.236 2.086.304.78.069 1.658.249 1.95.4.292.151.778.277 1.081.28.302.003.85.151 1.216.328.367.177.827.324 1.022.327.195.003.441.111.547.239.106.127.446.279.754.337.308.058.652.216.764.351.112.135.335.246.495.246.159 0 .47.131.689.291.477.348.891.609 1.555.978.27.151.583.358.694.461.112.102.404.336.648.52.672.504 3.749 3.497 3.749 3.647 0 .072.242.388.538.702.492.521.696.839 1.325 2.067.117.23.256.454.307.5.052.046.304.534.56 1.084.256.55.609 1.277.784 1.616.176.339.319.773.319.964 0 .192.107.514.237.717.131.203.287.744.348 1.203.06.458.207 1.058.326 1.333.118.275.264 1.25.325 2.167.06.916.193 2.173.295 2.791.136.826.136 1.425 0 2.25-.102.619-.235 1.875-.295 2.792-.061.917-.207 1.892-.325 2.167-.119.275-.266.875-.326 1.333-.061.458-.217.999-.348 1.202-.13.203-.237.499-.237.656 0 .464-1.322 3.275-2.114 4.493-.304.467-.552.936-.552 1.041 0 .105-.063.191-.139.191-.076 0-.384.342-.684.76-.3.418-.709.924-.908 1.125-.199.201-.473.522-.608.713-.134.191-.882.85-1.661 1.464-.78.614-1.527 1.207-1.661 1.318-.577.474-1.371.954-1.579.954-.124 0-.265.105-.315.234-.049.129-.313.283-.587.343-.273.061-.539.218-.589.35-.051.131-.263.24-.472.24-.21.001-.606.151-.881.333-.275.182-.669.331-.875.332-.207.001-.656.151-.998.334-.342.184-.795.334-1.007.334-.213 0-.589.104-.836.232-.248.128-.975.284-1.617.347s-1.473.226-1.847.363c-.84.307-7.86.268-8.253-.045-.128-.103-.826-.238-1.551-.301s-1.513-.213-1.75-.333c-.238-.121-.729-.273-1.09-.338-.362-.066-.81-.226-.996-.356-.185-.13-.54-.236-.788-.236s-.565-.114-.703-.252c-.139-.139-.48-.298-.759-.354-.278-.055-.591-.204-.696-.331-.105-.126-.284-.23-.398-.23-.114 0-.398-.15-.631-.333-.233-.183-.543-.333-.689-.333-.146 0-.416-.15-.599-.334-.183-.183-.405-.333-.492-.333-.087 0-.218-.094-.291-.209-.074-.115-.434-.414-.8-.664-.367-.251-.952-.719-1.301-1.041-.349-.322-.705-.586-.792-.586-.087 0-.157-.068-.157-.151 0-.082-.304-.476-.675-.875-1.078-1.158-2.659-3.325-2.659-3.645 0-.161-.105-.334-.234-.383-.129-.05-.283-.314-.343-.587-.061-.274-.218-.539-.35-.59-.131-.05-.24-.263-.24-.472-.001-.209-.151-.605-.333-.88-.182-.275-.334-.65-.338-.834-.003-.183-.151-.633-.328-1-.177-.366-.325-.876-.328-1.133-.003-.257-.115-.677-.248-.935-.133-.257-.317-1.172-.408-2.033-.091-.861-.25-2.053-.354-2.649-.202-1.159-.095-4.755.151-5.069.078-.099.19-.842.249-1.651.06-.809.209-1.671.333-1.917.123-.245.272-.807.33-1.249.057-.441.218-.964.356-1.162.139-.197.252-.511.253-.697.001-.186.15-.563.332-.838.182-.275.332-.671.333-.88 0-.209.113-.424.251-.476.137-.053.25-.228.25-.389 0-.162.139-.472.31-.691.171-.218.363-.566.428-.772.065-.207.178-.375.253-.375.074 0 .226-.22.337-.488.111-.269.308-.529.437-.578.129-.05.235-.18.235-.29 0-.11.106-.318.236-.464 1.842-2.057 2.794-2.952 4.847-4.555.36-.281 1.436-.959 1.523-.959.05 0 .282-.15.515-.333.233-.183.554-.333.714-.333.16 0 .382-.111.494-.246.112-.135.456-.293.765-.351.308-.058.647-.21.753-.337.107-.128.353-.236.548-.239.195-.003.655-.15 1.021-.327.367-.177.932-.325 1.255-.328.323-.003.757-.124.964-.269.228-.16.984-.319 1.912-.402.845-.077 1.798-.213 2.119-.303.799-.225 5.096-.232 5.917-.01m91.479.14c.094.095.628.172 1.186.172.685 0 1.227.108 1.668.333.36.183.786.333.947.333.264 0 1.324.455 1.97.844.137.083.494.261.792.395.298.135.541.323.541.419 0 .097.083.176.185.176.313 0 1.714 1.206 2.733 2.353.47.53.764.926 1.454 1.963.464.698 1.295 2.444 1.295 2.721 0 .14.112.349.25.463.137.114.253.404.256.645.003.241.15.738.327 1.105.177.366.328.966.335 1.333.007.367.137.967.289 1.333.246.597.281 2.093.334 14.299l.059 13.632.419.16c.231.088 1.429.159 2.663.159h2.243l.162.428c.242.634.211 4.958-.037 5.206-.368.367-21.168.279-21.611-.092-.348-.291-.348-.318-.394-14.808-.037-12.053-.084-14.563-.275-14.793-.127-.153-.294-.618-.372-1.034-.077-.416-.255-.871-.395-1.01-.139-.14-.253-.349-.253-.464 0-.363-1.433-1.684-2.335-2.152-1.132-.587-3.97-.651-5.082-.114-.366.177-.786.325-.932.328-.146.003-.402.155-.568.339-.166.183-.366.333-.445.333-.255 0-1.638 1.622-1.638 1.922 0 .112-.108.293-.239.402-.132.11-.292.437-.355.727-.064.29-.211.679-.327.863-.116.185-.261.786-.324 1.336-.062.55-.22 1.321-.351 1.714-.197.593-.237 2.885-.237 13.521 0 10.615-.039 12.84-.228 12.996-.164.136-2.454.177-8.208.146l-7.981-.044-.083-20.599c-.07-17.124-.122-20.646-.312-20.875-.194-.233-.598-.276-2.605-.276-2.979 0-2.77.246-2.713-3.188l.046-2.728 9.904-.043 9.903-.043.465.543c.463.54.465.554.474 3.043.009 2.415.163 3.394.412 2.612.193-.608 3.045-3.696 3.414-3.696.104 0 .234-.118.29-.262.055-.145.259-.336.453-.426.193-.089.652-.344 1.019-.566.366-.223.854-.482 1.083-.576.229-.095.616-.284.859-.421s.62-.249.838-.249c.218 0 .567-.12.777-.267.21-.147.958-.33 1.662-.407.705-.076 1.581-.215 1.947-.308.811-.206 4.407-.094 4.646.144m-45.158 1.1c.236.236.262 2.354.262 20.824 0 16.266.044 20.589.209 20.696.114.074 1.295.161 2.625.192 1.329.032 2.51.135 2.625.229.288.237.295 5.144.008 5.431-.328.328-27.188.285-27.462-.044-.229-.277-.188-5.018.047-5.381.096-.149.745-.209 2.271-.209 1.174 0 2.37-.047 2.657-.104l.52-.104V53.929c0-13.541-.047-17.743-.2-17.896-.136-.136-.945-.2-2.541-.202-1.288-.002-2.455-.074-2.592-.16-.311-.197-.462-4.644-.182-5.38l.174-.458h10.659c9.467 0 10.688.03 10.92.262M101.29 40.5c-.342.183-.694.333-.782.333-.378 0-1.443.907-2.198 1.873-.449.574-.881 1.125-.959 1.223-.079.099-.198.362-.265.584-.066.222-.22.562-.341.755-.122.193-.294.718-.383 1.166-.089.449-.262 1.063-.385 1.365-.191.471-.187.572.025.706.279.176 13.803.226 14.663.054l.54-.108-.069-1.441c-.047-.997-.156-1.566-.352-1.846-.156-.223-.284-.545-.284-.716 0-.172-.15-.503-.333-.736-.184-.233-.334-.508-.334-.611 0-.102-.262-.428-.583-.722-.321-.294-.583-.595-.583-.668 0-.137-.347-.343-1.334-.79-.32-.146-.782-.375-1.025-.51-.728-.402-4.217-.34-5.018.089m118.548.862c-.594.085-1.194.248-1.334.364-.14.115-.441.302-.671.415-.95.469-1.284.718-1.958 1.462-.39.429-.708.839-.708.911 0 .071-.099.228-.219.349-.283.284-1.115 2.043-1.115 2.356 0 .132-.102.325-.227.429-.125.103-.278.691-.341 1.305s-.205 1.224-.315 1.357c-.284.343-.281 6.707.003 7.05.112.135.252.69.312 1.234.059.544.206 1.147.326 1.34.12.193.269.624.332.958.063.335.176.608.251.608.075 0 .187.157.248.349.25.79 2.027 2.984 2.416 2.984.095 0 .213.106.263.235.049.13.267.28.483.334.216.054.492.196.613.316.239.236 2.786.782 3.65.782 3.654 0 7.333-2.813 8.071-6.171.069-.316.219-.725.334-.91.115-.185.254-.808.31-1.385.056-.577.194-1.215.307-1.417.282-.505.275-5.058-.009-5.576-.113-.207-.252-.87-.308-1.473-.057-.604-.241-1.369-.411-1.701-.169-.332-.308-.767-.308-.965 0-.199-.107-.451-.239-.56-.132-.109-.288-.418-.347-.687-.059-.269-.178-.488-.265-.488-.088 0-.208-.132-.267-.292-.305-.829-2.496-2.875-3.077-2.875-.107 0-.313-.106-.458-.236-.542-.487-3.296-.694-5.342-.402" fill="#e41c2c"/><path d="M399.249 47.167c0 25.987.019 36.618.043 23.625.023-12.994.023-34.257 0-47.25-.024-12.994-.043-2.363-.043 23.625M261.333 8.112c-.229.048-.495.151-.591.23-.096.079-.495.195-.886.257-.392.063-.803.197-.915.299-.111.102-.609.405-1.106.673-1.085.585-3.002 2.504-3.002 3.006 0 .119-.107.305-.239.414-.132.109-.291.437-.355.729-.063.291-.218.678-.344.859-.14.201-.219.717-.205 1.333l.024 1.005.12-.834c.738-5.085 5.278-8.313 10.583-7.523l.833.124-.583-.278c-.588-.28-2.56-.454-3.334-.294m5.287 1.238c1.716.873 4.047 3.199 4.047 4.037 0 .113.112.365.248.56 1.184 1.69.484 6.797-1.193 8.705-2.082 2.369-4.367 3.515-7.01 3.515-2.559 0-5.55-1.422-6.859-3.262-.223-.315-.463-.572-.533-.572s-.214-.262-.32-.583c-.106-.321-.258-.583-.339-.583-.08 0-.197-.282-.259-.625-.062-.344-.194-.775-.293-.959-.099-.183-.228-.708-.288-1.166l-.107-.834-.024 1.022c-.016.687.052 1.083.206 1.211.126.105.277.492.336.86.059.369.218.713.354.765.136.052.247.233.247.402 0 .168.169.495.375.726.207.231.525.591.709.8.52.595 2.024 1.798 2.247 1.798.11 0 .391.15.624.333.233.183.584.333.781.333.196 0 .527.12.736.266.547.383 4.177.383 4.724 0 .208-.146.513-.266.678-.266.802 0 3.154-1.668 4.111-2.916.281-.367.587-.758.68-.868.093-.111.169-.262.169-.336 0-.074.144-.405.321-.735.177-.329.374-.891.439-1.247.064-.356.187-.784.273-.95.208-.403.21-2.737.002-2.994-.091-.112-.217-.594-.281-1.07-.064-.477-.223-.955-.352-1.062-.13-.108-.236-.337-.236-.509s-.15-.463-.333-.646c-.183-.183-.333-.392-.333-.463 0-.071-.132-.25-.292-.398-.16-.148-.623-.615-1.027-1.037-.404-.423-.828-.769-.941-.769-.112 0-.245-.105-.295-.234-.049-.129-.314-.284-.589-.344-.275-.06-.589-.217-.699-.349-.109-.132-.389-.239-.622-.239-.305 0-.047.192.918.683m89.13 5.812c-.275.185-.725.337-1 .338-.275.001-.725.158-1 .349-.724.503.902.102 2.548-.628 1.182-.524 1.109-.965 1.202 7.281l.083 7.415 5.034.083c3.814.063 5.086.136 5.25.3.421.421.397 9.936-.027 10.36-.327.327-.529.34-5.167.34-4.713 0-4.832.008-5.013.345-.131.246-.166 3.308-.121 10.625.065 10.607.133 11.687.817 12.863.079.138.225.438.322.667.742 1.742 4.562 2.585 8.322 1.836 1.182-.235 1.167-.304 1.167 5.192v4.798l-.412.27c-.227.148-.996.338-1.709.422-.713.084-1.896.233-2.629.333-2.512.339-6.521.382-8.097.085-.786-.148-1.648-.268-1.916-.267-.515.003-2.205-.48-3.737-1.067-1.588-.607-3.616-2.174-4.95-3.822-.432-.535-1.533-2.926-1.855-4.03-.916-3.143-1.009-4.961-1.019-19.946-.01-13.526.004-13.179-.563-13.663-.017-.014-1.83-.07-4.03-.125l-4-.099v-5.334l4.236-.044c2.785-.03 4.313-.108 4.459-.229.175-.145.222-1.179.222-4.91v-4.727l.625-.31c.343-.17 1.187-.49 1.875-.711 1.002-.322 1.156-.413.777-.456-.261-.03-.598.054-.75.186-.153.132-.604.29-1.003.351-.399.06-.98.304-1.292.542l-.566.431V29.833h-4.315c-3.782 0-4.328.033-4.417.264-.198.516-.112 5.326.099 5.536.144.144 1.279.2 4.058.2 3.462 0 3.884.03 4.12.292.235.26.27 1.909.323 15.208.053 13.328.088 14.988.331 15.584.15.366.313 1.061.363 1.544.049.483.206 1.043.347 1.245.142.203.258.52.259.706.001.186.15.563.332.838.182.275.332.59.333.701.002.453 1.856 2.838 2.643 3.4.307.219.7.53.875.691.174.16.38.291.457.291.078 0 .314.15.526.334.211.183.504.333.65.334.147.001.491.15.766.332.275.182.735.332 1.022.333.286 0 .608.106.715.235.108.129.66.286 1.229.348.569.063 1.356.22 1.748.349 1.021.336 8.223.335 9.239-.001.393-.13 1.522-.289 2.51-.354 2.467-.16 2.287.285 2.287-5.686 0-6.018-.008-6.046-1.583-5.478-1.108.399-5.081.345-5.873-.079-.342-.183-.698-.333-.792-.333-.202 0-1.085-.908-1.085-1.115 0-.079-.131-.33-.292-.557-.794-1.122-1.051-4.949-1.001-14.912l.043-8.666 5.034-.084c3.814-.063 5.086-.135 5.25-.299.284-.285.409-10.35.135-10.863-.171-.32-.375-.335-5.299-.377l-5.12-.044-.083-7.417-.084-7.416-.666-.045c-.451-.031-.829.063-1.167.29m-211.513.747c-.142.567-.018 4.96.148 5.216.097.15.776.209 2.417.211 1.255.001 2.45.047 2.656.102l.375.101v50.086l-.52.104c-.287.057-1.489.104-2.671.104h-2.15l-.163.428c-.241.634-.21 4.958.038 5.206.152.152 3.45.2 13.827.2h13.628l.187-.351c.214-.399.162-4.931-.061-5.274-.096-.149-.745-.209-2.27-.209-1.175 0-2.371-.047-2.657-.104l-.521-.104V56.5l3.542-.005c3.696-.004 6.505-.194 6.843-.461.109-.086.662-.196 1.23-.245.567-.049 1.202-.209 1.412-.356.209-.146.608-.267.885-.267.278-.001.717-.112.977-.248.26-.135.766-.325 1.125-.422.359-.096.653-.248.653-.336 0-.088.14-.16.311-.16.17 0 .501-.15.734-.333.233-.184.53-.334.659-.334.13 0 .638-.3 1.129-.666.491-.367.954-.667 1.027-.667.074 0 .404-.263.734-.583.331-.321.637-.584.681-.584.126 0 2.224-2.163 2.228-2.296.001-.066.189-.297.416-.513.228-.216.414-.489.414-.607s.112-.258.25-.311c.137-.052.25-.199.25-.325s.15-.365.333-.531c.184-.166.334-.431.334-.589 0-.158.107-.376.239-.485.132-.11.286-.412.343-.671.057-.26.249-.758.427-1.107s.324-.792.324-.983c0-.192.078-.426.173-.521.181-.182.573-2.276.821-4.394.16-1.365.066-3.839-.17-4.5-.082-.229-.22-1.009-.307-1.732-.086-.723-.227-1.361-.313-1.417-.086-.055-.21-.401-.276-.768-.065-.366-.216-.817-.335-1.002-.119-.185-.269-.579-.334-.875-.066-.297-.182-.539-.259-.539-.078 0-.227-.263-.333-.584-.106-.321-.262-.583-.347-.583-.084 0-.153-.099-.153-.221 0-.773-4.632-5.446-5.398-5.446-.148 0-.269-.078-.269-.175 0-.096-.244-.289-.542-.428-.929-.434-1.53-.778-1.76-1.008-.122-.122-.385-.222-.585-.223-.2-.001-.588-.15-.863-.332-.275-.182-.671-.332-.881-.333-.209 0-.547-.107-.75-.238-.203-.13-.744-.29-1.202-.356-.459-.066-.982-.221-1.162-.346-.183-.126-.702-.219-1.167-.209l-.838.018.701.139c.385.076.849.217 1.03.315.182.097.579.177.883.177.304.001.754.106 1 .235.246.128.685.285.975.349.927.203 3.807 1.541 4.828 2.241.137.095.624.416 1.082.715 1.106.721 2.94 2.465 3.706 3.523.339.469.657.89.706.936.165.155.492.746 1.014 1.834.869 1.809.976 2.064 1.083 2.583.057.275.2.762.317 1.083 1.095 2.998.749 9.862-.661 13.084-3.812 8.714-11.053 12.75-22.876 12.75-3.223 0-4.035.045-4.191.233-.293.354-.18 15.001.119 15.3.15.151.99.242 2.75.3l2.534.083.046 2.71.046 2.709-13.713-.043-13.712-.042-.047-2.269c-.025-1.248.029-2.467.121-2.709l.167-.439h2.349c1.3 0 2.492-.077 2.671-.173.463-.247.513-50.128.05-50.512-.192-.16-.964-.243-2.625-.285-2.938-.073-2.77.103-2.77-2.901 0-2.236.012-2.311.375-2.457l.375-.151-.371-.01c-.261-.008-.403.112-.475.398m27.18-.237c1.558.072 3.095.212 3.415.313.32.1.845.171 1.167.159.459-.018.495-.039.168-.099-.229-.042-.522-.164-.651-.269-.157-.13-1.326-.199-3.583-.214l-3.35-.02 2.834.13m180.598.727c-.106.127-.517.28-.915.34-.397.059-.863.215-1.036.346-.173.131-.539.241-.814.244-.275.004-.725.156-1 .338-.275.182-.687.332-.917.333-.229.001-.641.159-.916.351-.334.232-.39.318-.167.258.65-.177 2.007-.648 2.525-.877.289-.128.664-.235.834-.238.169-.003.608-.15.974-.327.367-.177.79-.325.94-.328.612-.013 1.787-.665 1.206-.669-.287-.002-.608.101-.714.229M32.908 17.411c-.164.394-.241 1.205-.241 2.547 0 2.791-.085 2.709 2.811 2.709h2.293l.364.493.365.493v23.601c0 23.823-.006 24.077-.567 24.452-.1.067-1.212.123-2.47.125l-2.288.002-.254.492c-.372.719-.366 4.706.008 5.08.267.267 44.952.425 45.641.161.402-.155.402-18.144 0-18.298-.515-.198-5.159-.112-5.37.099-.136.136-.2.933-.2 2.5 0 3.32 1.102 2.966-9.25 2.966h-8.583V23.186l.37-.26c.291-.204.856-.259 2.646-.259 1.795 0 2.319-.052 2.479-.244.316-.382.172-5.216-.162-5.427-.152-.096-5.563-.159-13.8-.16l-13.55-.003-.242.578m27.392-.044c.333.333.276 4.902-.064 5.032-.145.055-1.176.102-2.291.103-2.568.003-2.73.048-2.941.808-.261.938-.232 41.229.029 41.49.151.15 2.341.2 8.834.2 10.427 0 9.3.371 9.3-3.066 0-2.033.04-2.414.263-2.5.392-.15 4.786-.117 5.03.038.165.105.2 2.024.166 9.039l-.043 8.906-22.656.042c-18.015.034-22.684-.001-22.789-.167-.226-.356-.165-4.526.07-4.834.171-.224.615-.282 2.483-.324 1.959-.044 2.324-.095 2.625-.368l.351-.318V23.413l-.424-.456c-.42-.454-.438-.457-2.633-.457-1.497 0-2.275-.065-2.41-.2-.253-.253-.276-4.346-.027-4.811.213-.399 26.731-.519 27.127-.122m105.968 10.397c-.18.469-.115 15.679.07 16.164l.171.45 2.537-.083c4.237-.138 7.777-1.692 8.382-3.68.061-.201.207-.478.325-.615.981-1.152 1.115-5.98.218-7.917-.983-2.125-2.636-3.474-5.197-4.241-1.523-.456-6.339-.514-6.506-.078m6.109.236c.521.183 1.091.333 1.265.333.174 0 .404.105.511.234.107.128.38.28.608.338.228.057.544.233.703.391.159.158.477.437.705.621 2.781 2.229 2.923 8.859.25 11.643-.647.674-1.777 1.44-2.124 1.44-.149 0-.37.098-.491.217-.354.349-3.05.814-5.262.908l-2.042.087V27.667h2.464c2.037 0 2.629.057 3.413.333m-70.127.846c-.55.076-1.769.212-2.708.303-1.035.1-1.855.268-2.079.425-.204.143-.673.26-1.042.26-.389.001-.881.141-1.171.333-.275.182-.697.331-.938.332-.241.001-.527.109-.636.24-.11.132-.424.289-.699.349-.275.061-.54.216-.589.344-.05.129-.222.235-.383.235-.162 0-.472.134-.691.298-.218.164-.585.388-.814.499-.977.47-1.867 1.217-3.875 3.251-.894.906-1.625 1.71-1.625 1.787 0 .078-.123.264-.274.415-.313.313-1.059 1.385-1.059 1.522 0 .051-.15.282-.334.516-.183.233-.333.566-.333.739 0 .174-.108.358-.24.408-.132.051-.29.33-.352.62-.061.291-.208.64-.325.778-.117.137-.268.508-.335.824-.067.316-.214.666-.327.779-.113.113-.251.533-.305.934-.055.4-.216.95-.357 1.22-.141.271-.257.81-.258 1.198-.001.388-.132 1.025-.293 1.417-.25.611-.291 1.288-.291 4.795 0 3.433.046 4.227.291 4.988.161.498.295 1.173.298 1.5.003.327.15.895.327 1.262.177.366.325.867.328 1.113.003.245.118.559.256.696.137.138.25.382.25.543 0 .161.146.597.324.97.179.373.405.865.503 1.094.098.23.327.642.509.917s.444.744.583 1.042c.138.298.326.541.416.541.091 0 .165.082.165.182 0 .215.506.89 1.375 1.833.343.374.625.713.625.755 0 .206 2.734 2.588 3.224 2.809.197.089.419.258.492.375.074.117.224.213.335.213.111 0 .295.15.41.333.114.184.387.334.606.334.218 0 .44.112.493.25.053.137.201.25.329.25s.411.14.63.311c.218.172.636.364.927.428.292.063.62.223.729.355.109.131.396.239.637.239.391 0 .366-.034-.229-.31-2.528-1.175-3.018-1.444-4.583-2.514-2.147-1.466-4.695-3.898-5.208-4.968-.098-.206-.24-.375-.315-.375-.074 0-.252-.206-.395-.458-.142-.252-.401-.683-.575-.958-.96-1.518-2.014-3.927-2.42-5.529-.12-.473-.269-.944-.332-1.046-.063-.102-.218-.877-.344-1.722-.126-.845-.306-2.024-.4-2.62-.223-1.411-.223-4.316 0-5.583.097-.55.277-1.687.401-2.526.124-.838.296-1.663.383-1.833.088-.169.209-.636.27-1.037.062-.402.222-.887.357-1.079.134-.192.244-.487.244-.654 0-.168.144-.583.319-.922.176-.339.518-1.029.761-1.533 2.852-5.921 8.199-10.041 15.17-11.689 1.957-.463 8.943-.573 10.417-.164.412.114 1.163.303 1.669.418 3.274.751 7.296 3.138 9.435 5.602 1.192 1.373 1.393 1.626 1.92 2.42.882 1.33 2.309 4.137 2.309 4.543 0 .097.109.389.242.648.506.987 1.59 5.279 1.595 6.311.001.364.112 1.374.247 2.245.312 2.024.34 6.921.041 7.115-.114.074-6.846.172-14.958.218l-14.75.083.023.834c.053 1.9 2.083 4.355 4.876 5.896 1.225.675 4.999 1.502 6.921 1.515 3.047.02 9.768-1.48 11.89-2.655.899-.497 2.226-1.014 2.371-.924.109.067.169 2.09.169 5.658v5.555l-.386.252c-.212.14-.643.332-.958.427-.315.096-1.098.371-1.739.612-.642.241-1.542.538-2 .661-.459.123-1.096.3-1.417.393-2.587.752-6.08 1.225-9.74 1.317-2.084.053-3.197.004-4.25-.185-.785-.142-1.816-.3-2.292-.353-.476-.052-1.13-.205-1.453-.34-.323-.136-.747-.246-.943-.246-.195 0-.607-.12-.915-.266-.309-.146-.658-.23-.776-.185-.263.099.889.618 1.372.618.191 0 .549.103.797.23.247.127.937.284 1.533.348.596.065 1.405.224 1.798.353 1.015.335 8.549.336 9.572.002.392-.128 1.345-.284 2.116-.347.771-.063 1.558-.212 1.75-.331.191-.119.753-.267 1.249-.329.496-.061 1.057-.22 1.246-.352.189-.133.552-.241.807-.241s.743-.15 1.085-.333c.343-.184.787-.334.988-.334.201 0 .469-.103.595-.23.127-.126.538-.282.914-.345 1.263-.213 1.224.003 1.174-6.44l-.044-5.735-.629.02c-.345.01-.764.142-.929.291-.166.15-.408.273-.538.273-.13.001-.483.151-.783.334-.3.183-.656.332-.792.332s-.526.15-.868.334c-.343.183-.813.333-1.046.333-.233 0-.572.102-.753.227-.18.125-.703.278-1.162.341-.458.063-1.171.219-1.583.348-2.006.625-9.077.627-10.086.002-.184-.114-.577-.261-.873-.326-.295-.065-.857-.298-1.247-.519-.391-.221-.898-.493-1.127-.605-.229-.112-.537-.319-.684-.46-.147-.142-.484-.456-.75-.699-.266-.242-.633-.637-.816-.879-.184-.241-.418-.534-.52-.65-.103-.117-.239-.377-.303-.578-.064-.202-.221-.472-.35-.601-.129-.129-.255-.56-.281-.959l-.046-.725 14.734-.043c10.549-.03 14.797-.095 14.958-.229.322-.267.318-7.036-.005-8.318-.126-.501-.274-1.538-.33-2.306-.055-.767-.18-1.491-.277-1.608-.097-.117-.249-.663-.338-1.212-.088-.55-.272-1.214-.409-1.475-.136-.262-.248-.608-.249-.768-.001-.161-.151-.572-.334-.914-.184-.343-.334-.746-.334-.896 0-.151-.112-.367-.25-.481-.137-.114-.25-.339-.25-.498 0-.16-.134-.47-.298-.688-.164-.219-.392-.585-.507-.814-.536-1.074-1.407-2.329-2.254-3.25-.422-.459-.768-.89-.77-.959-.002-.068-.07-.125-.15-.125-.08 0-.598-.431-1.15-.958-1.302-1.241-1.706-1.542-2.071-1.542-.165 0-.3-.078-.3-.175 0-.096-.243-.286-.541-.421-.298-.135-.917-.463-1.375-.73-.459-.267-.946-.49-1.084-.497-.137-.007-.475-.135-.75-.286-.275-.15-.837-.33-1.25-.4-.412-.069-1.05-.242-1.416-.384-.367-.142-1.178-.262-1.803-.266-.625-.004-1.262-.073-1.417-.153-.431-.223-2.828-.329-3.947-.175m116.583.019c-.321.09-1.274.226-2.119.303-.928.083-1.684.242-1.912.402-.207.145-.641.266-.964.269-.323.003-.888.151-1.255.328-.366.177-.826.324-1.021.327-.195.003-.441.111-.548.239-.106.127-.445.279-.753.337-.309.058-.653.216-.765.351-.112.135-.334.246-.494.246-.16 0-.481.15-.714.333-.233.183-.465.333-.515.333-.087 0-1.163.678-1.523.959-2.053 1.603-3.005 2.498-4.847 4.555-.13.146-.236.354-.236.464 0 .11-.106.24-.235.29-.129.049-.326.309-.437.578-.111.268-.263.488-.337.488-.075 0-.188.168-.253.375-.065.206-.257.554-.428.772-.171.219-.31.529-.31.691 0 .161-.113.336-.25.389-.138.052-.251.267-.251.476-.001.209-.151.605-.333.88-.182.275-.331.652-.332.838-.001.186-.114.5-.253.697-.138.198-.299.721-.356 1.162-.058.442-.207 1.004-.33 1.249-.124.246-.273 1.108-.333 1.917-.059.809-.171 1.552-.249 1.651-.246.314-.353 3.91-.151 5.069.104.596.263 1.788.354 2.649.091.861.275 1.776.408 2.033.133.258.245.678.248.935.003.257.151.767.328 1.133.177.367.325.817.328 1 .004.184.156.559.338.834.182.275.332.671.333.88 0 .209.109.422.24.472.132.051.289.316.35.59.06.273.214.537.343.587.129.049.234.222.234.383 0 .32 1.581 2.487 2.659 3.645.371.399.675.793.675.875 0 .083.07.151.157.151s.443.264.792.586c.349.322.934.79 1.301 1.041.366.25.726.549.8.664.073.115.204.209.291.209s.309.15.492.333c.183.184.453.334.599.334.146 0 .456.15.689.333.233.183.517.333.631.333.114 0 .293.104.398.23.105.127.418.276.696.331.279.056.62.215.759.354.138.138.455.252.703.252.248 0 .603.106.788.236.186.13.634.29.996.356.361.065.852.217 1.09.338.237.12 1.025.27 1.75.333.725.063 1.423.198 1.551.301.393.313 7.413.352 8.253.045.374-.137 1.205-.3 1.847-.363.642-.063 1.354-.208 1.583-.323.23-.115.697-.253 1.04-.305.755-.117 1.592-.618 1.031-.618-.186 0-.409.07-.496.155-.19.187-1.938.643-3.325.869-.55.089-1.525.251-2.166.358-3.883.652-10.881-.226-14.334-1.798-.275-.125-.687-.28-.916-.343-.229-.063-.513-.192-.63-.286-.118-.094-.605-.367-1.084-.607-.994-.499-2.667-1.619-3.298-2.21-.236-.22-.78-.688-1.209-1.04-1.005-.823-3.093-3.403-4.058-5.015-.607-1.012-1.721-3.513-1.721-3.861 0-.129-.15-.529-.334-.889-.183-.359-.336-.862-.34-1.118-.004-.256-.12-.765-.256-1.132-.74-1.98-.74-10.519 0-12.5.136-.366.252-.852.256-1.08.004-.227.167-.827.363-1.333.871-2.249 1.026-2.629 1.358-3.337.194-.412.45-.849.569-.97.119-.121.217-.287.217-.37 0-.082.319-.618.708-1.19 2.24-3.293 5.8-6.305 9.209-7.793.458-.2 1.058-.466 1.333-.591.619-.282 2.467-.853 3.25-1.005.321-.063.921-.213 1.333-.336 2.263-.669 9.733-.656 12.084.022.458.132 1.171.309 1.583.393.879.178 2.208.6 2.917.924.275.126.875.387 1.333.579.458.192.946.422 1.083.511.138.089.363.213.5.276 1.309.596 4.062 2.783 5.554 4.414 1.512 1.652 1.97 2.233 2.337 2.97.069.137.303.55.519.916.771 1.305 1.923 3.827 1.925 4.213 0 .158.105.487.233.732.127.245.282.77.344 1.167.061.397.237 1.097.391 1.555.237.703.281 1.575.281 5.583s-.044 4.88-.281 5.584c-.154.458-.33 1.158-.391 1.555-.062.397-.217.922-.344 1.167-.128.244-.233.574-.233.732-.001.296-.364 1.152-1.22 2.879-.447.903-.61 1.206-1.21 2.257-1.297 2.272-5.389 6.009-8.028 7.331-.572.287-1.079.585-1.127.662-.048.078-.304.189-.569.247-.818.18-1.841.753-1.341.752.226-.001.635-.15.91-.332.275-.182.671-.332.881-.333.209 0 .421-.109.472-.24.05-.132.316-.289.589-.35.274-.06.538-.214.587-.343.05-.129.191-.234.315-.234.208 0 1.002-.48 1.579-.954.134-.111.881-.704 1.661-1.318.779-.614 1.527-1.273 1.661-1.464.135-.191.409-.512.608-.713.199-.201.608-.707.908-1.125.3-.418.608-.76.684-.76.076 0 .139-.086.139-.191 0-.105.248-.574.552-1.041.792-1.218 2.114-4.029 2.114-4.493 0-.157.107-.453.237-.656.131-.203.287-.744.348-1.202.06-.458.207-1.058.326-1.333.118-.275.264-1.25.325-2.167.06-.917.193-2.173.295-2.792.136-.825.136-1.424 0-2.25-.102-.618-.235-1.875-.295-2.791-.061-.917-.207-1.892-.325-2.167-.119-.275-.266-.875-.326-1.333-.061-.459-.217-1-.348-1.203-.13-.203-.237-.525-.237-.717 0-.191-.143-.625-.319-.964-.175-.339-.528-1.066-.784-1.616s-.508-1.038-.56-1.084c-.051-.046-.19-.27-.307-.5-.629-1.228-.833-1.546-1.325-2.067-.296-.314-.538-.63-.538-.702 0-.15-3.077-3.143-3.749-3.647-.244-.184-.536-.418-.648-.52-.111-.103-.424-.31-.694-.461-.664-.369-1.078-.63-1.555-.978-.219-.16-.53-.291-.689-.291-.16 0-.383-.111-.495-.246-.112-.135-.456-.293-.764-.351-.308-.058-.648-.21-.754-.337-.106-.128-.352-.236-.547-.239-.195-.003-.655-.15-1.022-.327-.366-.177-.914-.325-1.216-.328-.303-.003-.789-.129-1.081-.28-.292-.151-1.17-.331-1.95-.4-.781-.068-1.719-.205-2.086-.304-.821-.222-5.118-.215-5.917.01m92.75-.014c-.366.093-1.242.232-1.947.308-.704.077-1.452.26-1.662.407-.21.147-.559.267-.777.267-.218 0-.595.112-.838.249s-.63.326-.859.421c-.229.094-.717.353-1.083.576-.367.222-.826.477-1.019.566-.194.09-.398.281-.453.426-.056.144-.186.262-.29.262-.369 0-3.221 3.088-3.414 3.696-.249.782-.403-.197-.412-2.612-.009-2.489-.011-2.503-.474-3.043l-.465-.543-9.903.043-9.904.043-.046 2.728c-.057 3.434-.266 3.188 2.713 3.188 2.007 0 2.411.043 2.605.276.19.229.242 3.751.312 20.875l.083 20.599 7.981.044c5.754.031 8.044-.01 8.208-.146.189-.156.228-2.381.228-12.996 0-10.636.04-12.928.237-13.521.131-.393.289-1.164.351-1.714.063-.55.208-1.151.324-1.336.116-.184.263-.573.327-.863.063-.29.223-.617.355-.727.131-.109.239-.29.239-.402 0-.3 1.383-1.922 1.638-1.922.079 0 .279-.15.445-.333.166-.184.422-.336.568-.339.146-.003.566-.151.932-.328 1.112-.537 3.95-.473 5.082.114.902.468 2.335 1.789 2.335 2.152 0 .115.114.324.253.464.14.139.318.594.395 1.01.078.416.245.881.372 1.034.191.23.238 2.74.275 14.793.046 14.49.046 14.517.394 14.808.443.371 21.243.459 21.611.092.248-.248.279-4.572.037-5.206l-.162-.428h-2.243c-1.234 0-2.432-.071-2.663-.159l-.419-.16-.059-13.632c-.053-12.206-.088-13.702-.334-14.299-.152-.366-.282-.966-.289-1.333-.007-.367-.158-.967-.335-1.333-.177-.367-.324-.864-.327-1.105-.003-.241-.119-.531-.256-.645-.138-.114-.25-.323-.25-.463 0-.277-.831-2.023-1.295-2.721-.69-1.037-.984-1.433-1.454-1.963-1.019-1.147-2.42-2.353-2.733-2.353-.102 0-.185-.079-.185-.176 0-.096-.243-.284-.541-.419-.298-.134-.655-.312-.792-.395-.646-.389-1.706-.844-1.97-.844-.161 0-.587-.15-.947-.333-.441-.225-.983-.333-1.668-.333-.558 0-1.092-.077-1.186-.172-.239-.238-3.835-.35-4.646-.144m4.75.406c1.802.13 4.858 1.065 5.814 1.779.219.164.474.297.567.297.19 0 1.383.925 2.346 1.82.747.693 2.27 2.574 2.575 3.18.116.23.431.829.702 1.334.27.504.492 1.004.494 1.111.001.107.108.407.237.667.542 1.09 1.025 3.216 1.431 6.305.084.642.156 6.733.16 13.536.007 12.054.016 12.373.33 12.541.179.096 1.371.173 2.671.173h2.348l.163.428c.194.51.214 4.565.024 4.865-.105.165-2.358.2-10.706.167l-10.572-.043-.103-13.167c-.103-13.215-.252-16.488-.784-17.131-.092-.111-.219-.481-.283-.821-.063-.341-.22-.706-.348-.812-.128-.107-.232-.286-.232-.399 0-.348-1.599-1.827-2.414-2.235-2.614-1.305-7.74.275-8.863 2.731-.125.275-.297.613-.382.75-.533.867-.893 2.072-1.348 4.5-.077.413-.145 6.497-.15 13.522-.008 10.576-.049 12.803-.237 12.96-.164.136-2.411.176-8.042.145l-7.814-.043-.084-20.617c-.06-14.979-.134-20.668-.271-20.805-.331-.33-1.427-.487-3.441-.491l-1.963-.004.046-2.708.046-2.709 9.417-.046c11.998-.058 10.833-.415 10.833 3.317 0 2.817.357 4.193.783 3.021.248-.681 2.436-3.085 3.64-3.999 1.881-1.428 3.771-2.292 6.327-2.891.924-.216 4.009-.46 4.917-.389.412.033 1.387.105 2.166.161m-67.015 1.034c-.28.736-.129 5.183.182 5.38.137.086 1.304.158 2.592.16 1.596.002 2.405.066 2.541.202.153.153.2 4.355.2 17.896v17.696l-.52.104c-.287.057-1.483.104-2.657.104-1.526 0-2.175.06-2.271.209-.235.363-.276 5.104-.047 5.381.274.329 27.134.372 27.462.044.287-.287.28-5.194-.008-5.431-.115-.094-1.296-.197-2.625-.229-1.33-.031-2.511-.118-2.625-.192-.165-.107-.209-4.43-.209-20.696 0-18.47-.026-20.588-.262-20.824-.232-.232-1.453-.262-10.92-.262h-10.659l-.174.458m21.399-.083c.26.193.284 1.714.324 20.725.035 17.097.08 20.562.271 20.791.193.233.594.276 2.542.276 3.08 0 2.979-.097 2.979 2.883 0 1.502-.064 2.281-.2 2.417-.346.346-27.065.283-27.199-.064-.165-.43-.115-4.344.062-4.808l.162-.428h2.349c1.3 0 2.492-.077 2.671-.173.457-.244.513-35.628.056-36.007-.184-.153-1.023-.242-2.746-.291l-2.481-.07-.101-.541c-.203-1.079-.01-4.584.261-4.755.406-.257 20.702-.213 21.05.045m-168.384 9.789c-1.982.284-3.561 1.385-4.903 3.42-.826 1.251-1.846 4.163-1.734 4.949l.054.384 7.62.043 7.62.044.282-.431c.69-1.053-.536-4.796-2.127-6.494-1.475-1.573-4.081-2.306-6.812-1.915m3.975.414c.243.135.705.364 1.025.51.987.447 1.334.653 1.334.79 0 .073.262.374.583.668.321.294.583.62.583.722 0 .103.15.378.334.611.183.233.333.564.333.736 0 .171.128.493.284.716.196.28.305.849.352 1.846l.069 1.441-.54.108c-.86.172-14.384.122-14.663-.054-.212-.134-.216-.235-.025-.706.123-.302.296-.916.385-1.365.089-.448.261-.973.383-1.166.121-.193.275-.533.341-.755.067-.222.186-.485.265-.584.078-.098.51-.649.959-1.223.755-.966 1.82-1.873 2.198-1.873.088 0 .44-.15.782-.333.801-.429 4.29-.491 5.018-.089m113.275.74c-1.39.35-2.945 1.236-3.75 2.136-.731.818-1.5 1.924-1.5 2.16 0 .098-.107.268-.239.377-.132.11-.29.438-.353.729-.062.292-.175.609-.252.704-.077.096-.258.696-.403 1.333-.145.638-.332 1.46-.417 1.827-.31 1.339-.203 6.215.164 7.5.184.641.334 1.304.334 1.474 0 1.087 1.801 4.145 3.169 5.382 2.934 2.65 8.249 2.609 11.134-.086 1.388-1.296 3.197-4.685 3.197-5.989 0-.269.112-.808.25-1.198.137-.39.24-1.093.227-1.563l-.022-.854-.129.75c-.07.413-.209 1.05-.307 1.417s-.18.931-.182 1.255c-.002.323-.107.735-.233.916-.125.181-.285.589-.354.906-.731 3.355-4.414 6.173-8.07 6.173-.864 0-3.411-.546-3.65-.782-.121-.12-.397-.262-.613-.316-.216-.054-.434-.204-.483-.334-.05-.129-.168-.235-.263-.235-.389 0-2.166-2.194-2.416-2.984-.061-.192-.173-.349-.248-.349-.075 0-.188-.273-.251-.608-.063-.334-.212-.765-.332-.958-.12-.193-.267-.796-.326-1.34-.06-.544-.2-1.099-.312-1.234-.284-.343-.287-6.707-.003-7.05.11-.133.252-.743.315-1.357s.216-1.202.341-1.305c.125-.104.227-.297.227-.429 0-.313.832-2.072 1.115-2.356.12-.121.219-.278.219-.349 0-.072.318-.482.708-.911.674-.744 1.008-.993 1.958-1.462.23-.113.531-.299.67-.414.783-.646 5.952-.621 6.673.032.147.132.355.241.462.241.581 0 2.772 2.046 3.077 2.875.059.16.179.292.267.292.087 0 .206.219.265.488.059.269.215.578.347.687.132.109.239.361.239.56 0 .198.15.655.334 1.015.183.359.335.919.337 1.243.002.325.085.89.184 1.257.098.366.24 1.041.313 1.5.135.831.135.831.099-.25-.02-.596-.121-1.421-.224-1.834-.103-.412-.259-1.05-.347-1.416-.188-.789-.515-1.734-.72-2.084-.081-.137-.295-.55-.476-.916-1.757-3.56-5.7-5.285-9.75-4.266" fill="#ee7381"/><path d="M399.333 47.167c0 31.333.056 47.166.167 47.166.111 0 .167-15.833.167-47.166 0-31.334-.056-47.167-.167-47.167-.111 0-.167 15.833-.167 47.167M262.162 8.392c-.049.049-.583.169-1.187.265-2.97.475-6.608 3.635-6.648 5.776-.003.174-.113.505-.244.734-.162.284-.238.944-.238 2.083 0 1.139.076 1.799.238 2.083.131.23.242.567.247.75.004.184.115.521.246.75.13.23.355.671.498.981.514 1.111 3.614 3.714 4.383 3.68.226-.009-.653-.661-.892-.661-.127 0-.374-.131-.548-.291-.174-.161-.568-.472-.875-.691-1.013-.724-2.642-3.091-2.642-3.839 0-.168-.118-.586-.262-.931-1.202-2.879 1.111-7.766 4.489-9.48 2.398-1.217 7.292-1.074 8.273.242.046.062.233.161.417.221.345.112 1.916 1.476 1.916 1.663 0 .058.15.256.334.44.183.183.333.445.333.583 0 .137.069.25.154.25.084 0 .243.27.351.599.28.849.659 1.545.661 1.213.001-.257-.599-1.631-1.063-2.435-.279-.483-1.997-2.201-2.48-2.48-1.054-.609-2.269-1.081-3.184-1.239-1.814-.314-2.187-.357-2.277-.266m94.333 6.828c-.231.122-.793.315-1.247.43-.455.114-.903.269-.996.343-.093.074-.431.191-.751.26-.321.069-.808.219-1.084.335-.275.116-1.175.42-2 .677-.825.256-1.613.521-1.75.588-.138.067-.588.229-1 .359-2.591.817-4.958 1.686-5.209 1.911-.264.238-.291.697-.291 4.976 0 3.589-.05 4.747-.209 4.849-.114.075-2.121.173-4.458.219l-4.25.083v5.167l4.017.083c2.93.061 4.086.141 4.274.298.229.19.268 1.869.338 14.584.069 12.477.115 14.522.35 15.535.149.641.271 1.391.271 1.666 0 .534.517 2.224 1.025 3.352.17.377.308.734.308.793 0 .121.988 1.555 1.654 2.402.49.623 2.119 1.949 2.704 2.201.216.092.505.241.642.33.451.291 1.81.839 2.08.839.145 0 .535.113.867.252.331.138 1.21.325 1.953.414 4.339.522 4.931.552 6.979.352 1.121-.109 2.825-.27 3.788-.357 2.294-.208 3.298-.45 3.511-.848.182-.341.155-9.704-.029-9.887-.056-.056-.806-.035-1.667.047l-1.565.148 1.542.023 1.541.023v4.822c0 4.45-.022 4.828-.291 4.903-3.464.964-11.575 1.194-14.625.415-.367-.094-1.083-.266-1.591-.383-.509-.116-1.071-.291-1.25-.388-.179-.096-.739-.379-1.243-.628-2.027-1.003-3.969-2.936-4.763-4.741-.061-.138-.25-.552-.42-.921-.17-.369-.36-.931-.42-1.25-.061-.319-.191-.729-.289-.913-.22-.411-.558-3.096-.765-6.083-.086-1.238-.161-7.735-.166-14.438-.009-11.12-.034-12.208-.285-12.417-.213-.176-1.197-.24-4.334-.278l-4.058-.05v-4.984h4.232c5.537 0 4.925.655 4.977-5.332l.041-4.749.667-.318c.367-.176.929-.377 1.25-.448.321-.071 1.108-.327 1.75-.57.642-.243 1.508-.537 1.924-.655.417-.117.918-.299 1.114-.404.196-.105.493-.193.659-.196.167-.003.603-.151.97-.328.366-.177.816-.327 1-.333.183-.006.633-.156 1-.333.366-.177.795-.325.952-.328.158-.003.533-.113.834-.243.301-.131.884-.345 1.297-.476.412-.132.881-.295 1.042-.364.275-.118.291.288.291 7.214 0 6.45.032 7.371.262 7.601.226.226.917.262 5.024.262 4.339 0 4.781.026 4.982.292.408.537.324 9.647-.09 9.869-.201.108-2.122.173-5.088.173h-4.765l-.162.427c-.101.265-.148 4.273-.124 10.542l.04 10.114.085-10.278c.048-5.653.149-10.34.225-10.417.076-.076 2.338-.16 5.027-.187 3.814-.038 4.929-.097 5.072-.27.127-.153.17-1.78.14-5.285l-.044-5.063-5.034-.083c-3.148-.052-5.098-.149-5.207-.257-.112-.113-.188-2.717-.216-7.498-.047-7.976-.01-7.696-.965-7.192m-85.284 2.03c.001 2.049.01 2.107.162 1.061.104-.715.104-1.481-.001-2.167-.152-.988-.163-.913-.161 1.106m-126.777-1.32c-.161.422-.116 4.174.056 4.627.156.409.174.412 2.659.469 1.765.041 2.565.121 2.718.274.322.322.32 50.024-.002 50.412-.177.213-.682.274-2.639.318-2.168.048-2.445.087-2.656.377-.31.424-.341 4.589-.037 4.893.227.227 27.052.301 27.191.075.043-.069-6.047-.125-13.532-.125h-13.609l-.041-2.167c-.055-2.809-.211-2.642 2.575-2.747 2.546-.096 2.953-.229 3.111-1.018.173-.864.124-49.248-.051-49.706-.278-.733-1.012-.945-3.266-.945-2.553 0-2.434.131-2.374-2.607l.046-2.143 13.75-.047c8.76-.03 13.997.014 14.429.12.373.091 1.572.25 2.665.351 1.093.102 2.07.254 2.172.339.101.084.552.197 1.001.25.449.054 1.168.242 1.598.417.429.176.919.32 1.089.32.17 0 .603.15.963.333.36.183.779.333.931.333.153 0 .365.105.472.234.107.128.386.282.621.341.234.059.625.245.868.413.243.169 1.004.671 1.691 1.118 1.388.9 3.805 3.201 4.233 4.027.152.294.344.534.427.534.083 0 .204.169.269.375.138.441.738 1.25.738.995 0-1.499-4.566-5.809-8.012-7.565-2.076-1.057-4.597-1.972-5.437-1.972-.223 0-.562-.083-.753-.185-.191-.102-1.105-.289-2.031-.415-.926-.127-2.171-.304-2.767-.395-2.021-.307-28.945-.222-29.066.092M33.149 17.625c-.199.515-.141 4.338.07 4.667.097.15.775.208 2.428.208 2.183 0 2.313.019 2.657.386l.363.385v48.205l-.439.345c-.393.309-.667.346-2.574.346-2.73 0-2.654-.081-2.654 2.837 0 1.408.066 2.162.2 2.296.212.212 44.309.305 45.092.095l.375-.101v-8.897c0-8.367-.018-8.896-.292-8.884-.174.008-.208.047-.083.097.163.066.208 1.987.208 8.817v8.733l-.375.091c-.206.05-10.388.07-22.625.045l-22.25-.046-.048-2c-.072-2.993-.288-2.75 2.437-2.75h2.299l.447-.467.448-.468V23.058l-.385-.362c-.359-.337-.553-.363-2.73-.363h-2.343l-.104-.52c-.15-.748-.124-3.857.034-4.106.105-.165 2.907-.2 13.455-.166l13.323.042v4.667l-2.445.083c-3.556.122-3.138-2.793-3.138 21.903 0 20.182.006 20.589.322 20.758.373.2 17.818.243 18.107.045.442-.303.916-5.627.488-5.484-.097.032-.202 1.125-.25 2.59-.066 2.006-.136 2.568-.334 2.693-.152.096-3.712.143-9.083.119l-8.833-.04V43.945c0-20.568.006-20.976.323-21.208.238-.175.875-.238 2.417-.239 3.109-.004 2.843.239 2.843-2.595 0-2.194-.027-2.406-.322-2.564-.215-.115-4.763-.172-13.588-.172H33.325l-.176.458m237.707 2.41c-.606 1.464-1.155 2.291-2.168 3.266-1.542 1.484-1.601 1.532-1.892 1.532-.142 0-.436.155-.653.344-.427.374-.382.369.59-.073.357-.163.757-.403.889-.536.132-.132.506-.443.831-.691.675-.515 2.214-2.478 2.214-2.824 0-.127.118-.413.263-.634.146-.221.239-.522.209-.668-.036-.17-.137-.068-.283.284m-10.523 5.729c1.334.43 2.684.477 4.099.144.712-.168 1.195-.338 1.074-.378-.121-.041-.813.062-1.537.227-1.247.285-1.379.286-2.518.02-1.452-.34-2.158-.348-1.118-.013m-67.828 1.091c-.003.149.107.364.245.478.137.114.253.33.256.479.003.149.15.571.327.938.177.367.325.88.328 1.141.003.262.114.712.246 1 .132.289.272.713.311.942.057.34.074.316.093-.13.012-.301-.082-.796-.209-1.1-.127-.305-.284-.864-.348-1.244s-.183-.732-.264-.782c-.081-.05-.223-.371-.315-.714-.202-.747-.661-1.44-.67-1.008m-26.243.574c-.319.319-.404 16.161-.089 16.749.462.863 6.36.342 8.41-.744.275-.146.588-.266.695-.266.34-.002 2.175-1.966 2.529-2.707 1.442-3.02 1.411-6.568-.084-9.378-.393-.739-2.265-2.583-2.622-2.583-.125 0-.32-.113-.434-.25-.114-.137-.369-.25-.567-.25-.198 0-.541-.128-.764-.284-.297-.208-.807-.293-1.912-.319l-1.507-.036 1.25.137c4.757.519 7.5 3.567 7.5 8.335 0 4.373-2.039 7.04-6.25 8.177-1.401.379-5.708.466-6.05.123-.304-.303-.287-16.354.017-16.606.12-.1.964-.206 1.875-.236l1.658-.055-1.697-.034c-1.353-.028-1.749.018-1.958.227m52.988 1.759c-1.966.15-2.503.234-4.5.702-4.279 1.005-8.003 2.989-10.937 5.829-1.148 1.112-3.146 3.44-3.146 3.667 0 .055-.183.368-.406.697-1.062 1.565-2.502 5.055-2.759 6.687-.074.47-.219 1.012-.322 1.205-.621 1.161-.572 10.379.063 11.9.141.338.259.823.261 1.078.002.255.152.791.333 1.19.181.4.33.876.33 1.058 0 .182.109.53.243.773.134.244.477.93.762 1.526.727 1.521 1.018 2.047 1.273 2.302.122.122.222.298.222.39 0 .43 2.558 3.297 3.9 4.372.559.447 1.054.862 1.1.922.136.178 2.006 1.377 2.824 1.811.417.221.947.502 1.176.623.791.42 1.919.876 2.583 1.046.367.093.892.247 1.167.34 3.911 1.329 11.454 1.545 15.38.439 2.963-.834 3.806-1.136 5.463-1.953 3.21-1.585 5.631-3.547 7.933-6.428.535-.671.974-1.29.974-1.377 0-.086.262-.531.583-.987.321-.456.583-.916.583-1.021 0-.266-.595.523-.738.979-.065.207-.182.375-.262.375-.079 0-.191.148-.248.329-.331 1.042-3.582 4.554-5.287 5.711-.33.224-.899.644-1.265.934-.365.289-.779.526-.92.526-.141 0-.355.098-.476.217-.205.202-.721.463-2.512 1.269-.39.175-.97.372-1.289.438-.32.066-.732.216-.917.332-.185.117-.748.266-1.252.33-.505.065-1.011.194-1.125.287-.762.616-11.642.62-12.414.004-.116-.092-.585-.222-1.042-.288-.458-.067-1.02-.217-1.25-.335-.231-.117-.682-.267-1.003-.331-.814-.165-2.952-1.121-3.647-1.631-.219-.16-.528-.292-.688-.292-.16 0-.382-.11-.493-.244-.111-.134-.607-.512-1.1-.84-2.764-1.834-5.361-4.852-6.883-7.999-1.022-2.111-1.152-2.425-1.283-3.081-.064-.319-.21-.732-.325-.917-.114-.184-.257-.78-.316-1.324s-.191-1.089-.292-1.211c-.462-.556-.467-9.96-.006-10.821.099-.186.231-.745.293-1.242.062-.497.204-1.054.316-1.237.112-.184.254-.596.315-.917.061-.321.233-.846.383-1.167.149-.321.422-.92.607-1.333.184-.413.401-.863.48-1 .08-.138.238-.438.351-.667 1.497-3.047 7.702-8.833 9.471-8.833.114 0 .326-.097.471-.216.499-.41 3.314-1.395 4.68-1.638.504-.089 1.254-.281 1.666-.427.617-.217 1.592-.264 5.5-.264 3.909 0 4.883.047 5.5.264.413.146 1.163.338 1.667.427 1.365.243 4.181 1.228 4.68 1.638.145.119.356.216.471.216.794 0 3.789 2.165 5.905 4.267 1.852 1.841 2.912 3.197 3.525 4.513.136.292.318.574.404.627.086.053.204.316.263.583.059.268.214.576.346.686.132.109.239.323.239.476 0 .153.15.572.334.931.183.36.337.807.342.994.015.553.638 1.933.642 1.423.002-.229-.103-.604-.234-.833-.131-.229-.241-.559-.244-.732-.004-.173-.164-.661-.358-1.083-.193-.423-.504-1.106-.691-1.519-.187-.412-.405-.862-.485-1-.08-.137-.238-.437-.351-.666-.353-.715-.729-1.257-1.908-2.75-2.908-3.682-9.554-7.864-12.592-7.924-.204-.004-.671-.116-1.038-.248-1.323-.476-6.145-.774-9-.557m-118.916.152c-.87.084-1.77.227-2 .316-.229.09-.717.211-1.084.27-6.832 1.085-14.339 8.483-15.987 15.756-.116.512-.266 1.021-.334 1.131-.154.249-.562 3.07-.761 5.259-.208 2.289.158 6.417.754 8.511.131.459.31 1.096.398 1.417.335 1.222.901 2.657 1.447 3.667.124.229.31.623.412.875.103.252.255.458.337.458.083 0 .151.106.151.235s.282.598.628 1.042c.346.443.772 1.031.947 1.306.53.83 1.934 2.244 3.258 3.279.688.538 1.349 1.059 1.47 1.158.47.387 2.328 1.453 3.28 1.883.55.248 1.127.519 1.282.602.292.158 2.16.761 3.885 1.255.55.158 1.562.349 2.25.426.687.076 1.737.214 2.333.306 2.453.38 8.014-.024 11.292-.82 2.764-.671 3.612-.914 4.958-1.419.642-.241 1.429-.517 1.75-.614.321-.097.79-.323 1.042-.503l.458-.325V69.4c0-6.449.189-6.102-2.526-4.639-.243.132-.532.239-.641.239-.11 0-.436.11-.724.244-.289.134-1.088.429-1.776.656-.943.311-1.125.415-.74.423.281.006.656-.1.833-.234.178-.135.477-.247.664-.25.187-.003.634-.156.993-.339.36-.183.755-.333.878-.333.122 0 .538-.164.923-.363 1.313-.681 1.584-.804 1.767-.804.128 0 .182 1.589.181 5.375l-.001 5.375-.624.352c-.343.193-.905.403-1.249.466-.343.062-.625.173-.625.246 0 .073-.411.225-.913.337-.503.113-.952.266-.998.341-.047.075-.442.19-.878.255-.437.066-.944.2-1.127.299-.184.099-.859.274-1.5.389-.642.115-1.505.284-1.917.377-3.222.723-12.474.637-13.392-.125-.11-.091-.61-.219-1.112-.285-.502-.066-1.063-.217-1.246-.336-.183-.119-.651-.266-1.039-.328-.387-.062-.79-.216-.895-.342-.105-.126-.284-.229-.398-.229-.25 0-2.722-1.256-3.699-1.879-1.586-1.012-4.867-3.906-4.882-4.305-.003-.093-.5-.699-1.09-1.33-.136-.146-.247-.315-.247-.377s-.26-.483-.578-.935c-.317-.452-.625-1.01-.683-1.241-.058-.231-.21-.507-.339-.614-.128-.106-.234-.316-.234-.465-.001-.149-.151-.496-.333-.771-.182-.275-.332-.65-.333-.833-.001-.184-.12-.559-.264-.834-.144-.275-.338-.912-.431-1.416-.093-.504-.229-.992-.302-1.084-.761-.957-.701-10.732.079-13 .127-.366.275-.944.33-1.284.055-.34.21-.828.343-1.084.134-.256.243-.559.244-.674.001-.115.151-.489.334-.831.184-.342.334-.745.334-.895 0-.151.105-.361.233-.468.129-.107.283-.391.344-.632.06-.241.255-.623.433-.849.178-.226.323-.479.323-.562 0-.083.074-.242.164-.353.746-.914 1.003-1.267 1.003-1.378 0-.146.003-.149 1.872-2.08 2.049-2.118 3.328-3.056 5.794-4.25 1.517-.734 1.895-.893 2.406-1.013.269-.063.681-.215.917-.338.235-.123.615-.226.844-.228.229-.003.974-.153 1.655-.335 1.366-.363 7.89-.477 9.262-.161.366.084 1.222.269 1.901.41.679.142 1.316.324 1.416.404.101.08.445.201.766.268s.771.225 1 .351c.229.127.604.305.833.397.456.184.565.249 2.162 1.304 2.103 1.39 4.747 4.043 5.208 5.224.066.169.19.307.275.307.086 0 .239.207.34.459.101.252.378.795.616 1.208.237.412.513.975.613 1.25.224.62.62 1.066.62.699 0-.133-.113-.335-.25-.449-.138-.114-.25-.307-.25-.428 0-.768-2.46-4.367-4.164-6.094-2.84-2.877-6.074-4.512-10.836-5.477-1.144-.232-6.052-.332-7.833-.161m209.916.004c-.642.087-1.449.271-1.795.407-.346.137-.758.252-.917.255-.158.003-.588.15-.955.327-.366.177-.719.325-.782.328-1.017.05-4.907 3.337-6.187 5.229-.884 1.306-1.02 1.054-1.114-2.065-.068-2.267-.136-2.839-.38-3.21l-.296-.451-9.787.043-9.787.043v5.167l2.417.087c2.023.072 2.648.152 3.039.389.022.013.078 9.361.125 20.774l.086 20.75h7.861c4.324 0 7.897-.038 7.941-.084.044-.046.107-6.008.139-13.25.032-7.241 0-12.454-.072-11.583-.071.871-.184 6.796-.25 13.167l-.119 11.583-7.707.043-7.706.044-.044-20.663c-.041-19.568-.059-20.678-.34-20.96-.254-.253-.665-.305-2.792-.351l-2.495-.054v-4.976h9.547c8.37 0 9.591.032 9.916.26.361.252.371.343.371 3.407 0 1.857.066 3.188.162 3.247.273.169.923-.375 1.487-1.246 1.212-1.87 3.7-4.013 5.767-4.97.459-.212.98-.466 1.159-.564.18-.099.742-.275 1.25-.392.509-.117 1.262-.302 1.675-.41 1.393-.367 7.407-.259 8.581.154.545.191 1.125.348 1.288.348.164 0 .578.15.92.333.343.183.711.333.819.333.19 0 1.562.835 2.379 1.447.644.484 3.179 3.062 3.179 3.234 0 .086.263.53.584.986.32.456.583.924.584 1.04.001.115.15.435.332.71.182.275.332.615.333.756 0 .141.151.551.334.911.441.866.429.346-.017-.687-1.01-2.345-1.786-3.658-2.983-5.055-.803-.937-2.825-2.556-3.917-3.137-.876-.466-2.191-1.038-2.385-1.038-.085 0-.633-.156-1.218-.346-1.239-.403-6.18-.589-8.23-.31m-60.713 3.448.046 2.625 2.534.083c1.761.058 2.6.149 2.75.3.316.317.4 35.083.086 35.7-.208.41-.253.418-2.658.5-3.018.103-2.815-.113-2.758 2.93l.046 2.487 13.301.042c8.979.029 13.406-.013 13.625-.131.294-.157.324-.361.322-2.209-.003-3.172.172-2.993-3.077-3.115-2.278-.085-2.333-.096-2.539-.504-.166-.328-.211-4.679-.213-20.553-.001-13.557-.058-20.241-.175-20.458-.167-.313-.463-.322-10.754-.322h-10.581l.045 2.625m21.029-2.195c.055.145.101 9.291.101 20.325 0 15.2.048 20.168.199 20.499.337.74.917.912 3.071.912 2.632 0 2.563-.072 2.563 2.675 0 1.782-.042 2.139-.264 2.224-.145.056-6.182.101-13.416.101h-13.153v-4.791l.52-.104c.287-.058 1.303-.105 2.259-.105 2.073 0 2.655-.216 2.803-1.042.283-1.576.003-35.277-.296-35.577-.25-.25-.69-.311-2.75-.381l-2.453-.083-.046-2.458-.046-2.459h10.403c9.333 0 10.414.027 10.505.264m-76.191 5.32c0 2.579.038 3.259.145 2.583.186-1.172.185-3.98-.001-5.167-.105-.671-.144.022-.144 2.584m-91.056 3.652c-.038.038-.624.146-1.303.24-.679.094-1.279.242-1.333.329-.055.087-.369.27-.697.407-.683.284-1.924 1.484-2.655 2.568-.58.859-.632 1.06-.164.637.183-.166.333-.394.333-.507 0-.113.431-.647.958-1.187 3.06-3.133 8.253-3.005 11.16.277 1.174 1.326 2.292 5.047 1.801 5.997l-.263.507-7.703-.044-7.703-.043-.051-.609c-.028-.334.066-.887.209-1.228.341-.817.335-1.31-.008-.663-.146.275-.305.917-.353 1.426-.152 1.61-.673 1.514 7.96 1.457l7.466-.05.43-.404c.44-.413.637-1.865.283-2.084-.081-.05-.2-.442-.264-.87-.065-.429-.261-1.047-.436-1.375-.176-.327-.319-.649-.319-.714 0-.621-2.02-2.691-3.217-3.297-.842-.427-3.902-.997-4.131-.77m90.869.514c-.018.275-.142.646-.277.824-.134.178-.247.553-.25.833-.003.281-.151.81-.328 1.177-.177.366-.324.788-.327.938-.003.149-.111.358-.24.465-.128.106-.283.391-.343.632-.061.241-.256.623-.433.849-.178.226-.323.513-.323.638s-.078.228-.172.228c-.095 0-.22.131-.278.291-.248.682-2.161 2.751-3.738 4.042-1.997 1.636-5.269 3.239-7.979 3.91-.504.124-1.217.302-1.583.395-1.594.401-3.928.602-7.584.65-3.424.046-3.943.087-4.125.331-.16.214-.199 1.955-.168 7.621l.04 7.343.045-7.318c.031-5.063.102-7.388.231-7.542.144-.175 1.013-.223 3.987-.223 4.275 0 5.88-.184 9.488-1.088.595-.149 1.158-.33 1.25-.402.093-.072.391-.184.662-.249 1.732-.415 5.493-2.758 7.424-4.624 1.21-1.17 3.333-4.064 3.333-4.545 0-.118.15-.405.333-.638.184-.233.334-.564.334-.735 0-.172.106-.464.236-.649.13-.186.29-.634.356-.996.065-.361.226-.869.356-1.127.131-.258.208-.708.171-1l-.066-.531-.032.5m25.312.771c-.596.182-1.196.4-1.333.486-.138.085-.493.264-.79.398-.296.134-.998.716-1.559 1.294-1.343 1.383-1.421 1.481-1.569 1.96-.069.225-.229.512-.354.637-.126.126-.228.336-.228.467s-.15.518-.334.86c-.183.343-.333.796-.333 1.008 0 .212-.117.612-.26.888-.143.277-.236.742-.208 1.034.039.404.144.158.441-1.036.214-.862.455-1.687.535-1.834.08-.146.35-.715.6-1.265.552-1.213.559-1.223 1.827-2.516 3.634-3.707 10.012-3.118 12.868 1.19.857 1.294 1.864 3.617 1.864 4.303 0 .23.085.628.189.886s.243.957.309 1.553l.121 1.083.024-1.038c.013-.571-.083-1.321-.213-1.667-.131-.346-.284-.928-.341-1.295-.099-.643-.225-.971-.987-2.576-.767-1.616-2.385-3.441-3.493-3.942-.289-.13-.639-.307-.776-.392-1.304-.806-4.187-1.04-6-.486m109.84.121c-.004.215.102.628.235.916.134.289.274.751.313 1.026.039.275.049.125.021-.334-.054-.911-.557-2.332-.569-1.608m-23.257 1.353c-1.724.294-3.247 1.386-4.488 3.221-.236.348-.428.704-.428.792 0 .088-.15.44-.334.782-.183.342-.336.811-.339 1.041-.003.231-.113.607-.244.836-.131.229-.235.754-.231 1.167.006.683.037.623.35-.667.39-1.608.929-3.124 1.248-3.513.119-.145.216-.34.216-.433 0-.093.427-.603.948-1.133 3.081-3.13 8.874-2.676 10.546.826 1.386 2.901 1.491 4.25 1.499 19.261.006 9.564.055 12.64.207 12.792.227.227 20.885.301 21.025.075.042-.069-4.66-.125-10.449-.125h-10.526l-.089-13.667c-.065-9.831-.146-13.853-.288-14.333-.109-.367-.2-.929-.203-1.25-.003-.321-.117-.798-.254-1.061-.137-.262-.249-.563-.249-.668 0-.85-1.676-2.869-2.945-3.546-.899-.48-3.34-.675-4.972-.397m-182.413.298c-.002.206.147.655.33.997.431.804.434.301.004-.646-.242-.532-.331-.626-.334-.351m206.433 2.041c.048.595.141 6.933.208 14.083.066 7.15.136 13.017.155 13.037.342.375 1.228.546 2.818.546.991 0 2.05.071 2.353.158.476.137.543.12.496-.125-.047-.249-.358-.288-2.577-.329-2.088-.038-2.561-.092-2.747-.317-.184-.22-.244-2.761-.323-13.62-.066-9.108-.156-13.535-.283-13.933-.166-.521-.177-.467-.1.5m-233.647-.022c-.159.269-.289.625-.289.791 0 .173.143.021.334-.355.402-.787.366-1.132-.045-.436m27.887-.009c-.005.212.078.55.186.75.108.2.25.589.316.864l.121.5.008-.5c.004-.275-.134-.837-.307-1.25-.233-.554-.317-.649-.324-.364m.671 2.614c-.005.275.095.8.222 1.167.253.729.664 7.282.57 9.083l-.056 1.083-14.833.084c-8.159.045-14.927.144-15.042.218-.283.183-.262.647.057 1.221l.265.477-.094-.54C95.907 58.914 94.697 59 110.814 59c12.955 0 14.654-.029 14.982-.259.429-.301.509-2.553.199-5.574-.09-.871-.236-2.334-.326-3.25-.172-1.755-.638-3.652-.655-2.667m121.163.281c-.006.338.077.825.184 1.083.106.258.246.844.309 1.303l.116.833.019-.75c.011-.413-.124-1.275-.299-1.917-.275-1.005-.321-1.081-.329-.552m-33.902 4.927c-.055 1.077-.04 2.596.034 3.375.114 1.202.138.905.156-1.958.023-3.813-.041-4.297-.19-1.417m34.626 1.375c0 1.513.025 2.132.056 1.375.031-.756.031-1.993 0-2.75-.031-.756-.056-.137-.056 1.375m-15.508 0c0 .871.029 1.227.063.792.034-.435.034-1.148 0-1.583-.034-.436-.063-.08-.063.791m-.229 2.459c-.001.435-.11 1.091-.243 1.458-.132.367-.246.892-.253 1.167-.007.275-.158.8-.335 1.166-.177.367-.324.757-.327.867-.006.216-.58 1.334-1.095 2.133-.83 1.289-2.921 2.929-4.064 3.189-.237.054-.752.202-1.144.33-.917.297-2.822.297-3.739 0-.393-.128-.908-.276-1.145-.33-1.432-.325-4.486-3.075-4.486-4.039 0-.092-.084-.25-.186-.353-.255-.254-.976-2.051-.99-2.463-.019-.599-.621-2.223-.64-1.729-.009.241.095.707.233 1.036.137.329.25.762.25.961 0 .323.459 1.479.853 2.148.081.138.221.42.311.628.362.839 1.956 2.706 2.31 2.706.106 0 .193.067.193.15 0 .641 3.199 1.683 5.166 1.683 1.457 0 3.851-.563 4.167-.98.046-.061.29-.201.542-.311.252-.111.458-.278.458-.372 0-.094.081-.17.179-.17.493 0 2.107-2.092 2.829-3.667.105-.229.296-.642.425-.917s.282-.875.34-1.333c.059-.458.182-.93.275-1.048.188-.237.391-2.702.224-2.702-.058 0-.106.356-.108.792m15.531 1.312c-.016.286-.141.84-.278 1.229-.138.39-.246.981-.24 1.313.008.498.068.388.342-.631.182-.68.303-1.505.267-1.834-.061-.572-.064-.575-.091-.077M74.882 59.457c.622.032 1.597.032 2.167 0 .569-.033.059-.059-1.132-.059-1.192 0-1.658.027-1.035.059m21.287 1.481c-.001.195.107.445.241.557.134.111.294.364.356.562.168.541 1.702 2.41 2.075 2.529.179.057.326.169.326.249 0 .147.456.433 1.447.906.291.14.577.33.634.423.058.093.269.169.469.169.256 0 .118-.13-.468-.442-2.107-1.118-3.792-2.67-4.413-4.063-.432-.967-.664-1.278-.667-.89m149.854.085c-.013.15-.135.487-.272.75-.137.262-.249.629-.25.815-.001.186-.104.486-.23.667-.125.18-.284.591-.352.912-.067.32-.235.71-.371.865-.137.155-.22.369-.184.476.035.107.185-.058.332-.365.714-1.492.971-2.12.971-2.378 0-.155.117-.508.26-.785.143-.276.228-.666.189-.866-.042-.214-.08-.252-.093-.091m111.548 1.644c.083 1.745 1.181 3.878 2.262 4.394.138.065.438.227.667.36.231.133.788.231 1.25.22l.833-.021-.833-.11c-2.355-.309-3.414-1.675-4.14-5.343-.045-.229-.063-.004-.039.5m-254.988 4c.309.204.755.324 1.167.313l.667-.018-.584-.117c-.32-.064-.747-.206-.947-.314-.602-.327-.84-.22-.303.136m11.871-.151c-.162.094-.762.232-1.333.307l-1.038.135 1 .012c.629.007 1.279-.106 1.75-.303.596-.25.664-.316.334-.319-.229-.003-.55.073-.713.168m-9.371.75c.95.385 5.375.378 6.334-.01l.666-.27-1 .129c-1.288.167-4.569.171-5.75.007l-.916-.127.666.271m258.042.518c.206.04.544.04.75 0 .206-.039.037-.072-.375-.072-.413 0-.581.033-.375.072m-196.958 3.795c0 .546.895.754 3.241.754 1.997 0 2.259.033 2.259.278 0 .153.044.234.098.179.572-.571-.128-.79-2.526-.79-2.183 0-2.436-.031-2.739-.333-.254-.254-.333-.275-.333-.088" fill="#f4949c"/><path d="M150.875 15.625c3.277.025 8.64.025 11.917 0 3.277-.025.595-.046-5.959-.046-6.554 0-9.235.021-5.958.046m-.794 30.875c0 13.521.02 19.052.044 12.292.024-6.761.024-17.823 0-24.584-.024-6.76-.044-1.229-.044 12.292m17.3-19.043c.531.033 1.356.033 1.833-.001.478-.034.044-.061-.964-.06-1.008 0-1.399.028-.869.061m52.994 1.658c.16.042.423.042.583 0 .161-.042.029-.076-.291-.076-.321 0-.452.034-.292.076m2.333 0c.161.042.423.042.584 0 .16-.042.029-.076-.292-.076s-.452.034-.292.076m32.25 1.01c2.865.025 7.552.025 10.417 0 2.865-.026.521-.047-5.208-.047s-8.073.021-5.209.047m23.318 0c-.071.113 7.083.112 15.891-.004 1.879-.025-.91-.062-6.199-.083-5.288-.021-9.65.018-9.692.087m54.999 0c-.042.069 1.172.106 2.699.082 5.248-.081 5.768-.138 1.578-.172-2.31-.019-4.234.021-4.277.09m27.183 0c1.307.028 3.444.028 4.75 0 1.307-.029.238-.052-2.375-.052-2.612 0-3.681.023-2.375.052m-111.059 2.708c0 1.238.026 1.744.058 1.125.032-.618.032-1.631 0-2.25-.032-.618-.058-.112-.058 1.125m118.675 2.75c0 2.659.023 3.723.051 2.365.028-1.358.028-3.533 0-4.833-.029-1.301-.052-.19-.051 2.468m-173.369-.25c0 .321.035.452.077.292.041-.16.041-.423 0-.583-.042-.161-.077-.03-.077.291m60.375 18.5c0 9.58.02 13.498.045 8.709.025-4.79.025-12.627 0-17.417-.025-4.79-.045-.871-.045 8.708m105.378-12.875c1.307.028 3.444.028 4.75 0 1.307-.028.238-.051-2.375-.051-2.612 0-3.681.023-2.375.051m-52.916 1.497c.343.036.906.036 1.25 0 .343-.036.062-.066-.625-.066-.688 0-.969.03-.625.066m23.037 15.962c0 6.6.021 9.275.046 5.946.025-3.33.025-8.73 0-12-.025-3.271-.046-.546-.046 6.054M80.048 52.25c.001.458.033.626.072.373.038-.254.037-.629-.003-.834-.039-.205-.071.003-.069.461M314.705 52c0 .321.035.452.077.292.041-.161.041-.423 0-.584-.042-.16-.077-.029-.077.292m-83.488 1c0 .504.031.71.069.458.038-.252.038-.664 0-.916s-.069-.046-.069.458m-105.172.5c0 .413.033.581.073.375.039-.206.039-.544 0-.75-.04-.206-.073-.038-.073.375m70.494.333c0 .321.034.452.076.292.042-.16.042-.423 0-.583-.042-.161-.076-.03-.076.291m34.673 1c0 .413.033.582.072.375.04-.206.04-.543 0-.75-.039-.206-.072-.037-.072.375m-151.167.334c0 .412.033.581.073.375.039-.207.039-.544 0-.75-.04-.207-.073-.038-.073.375m219.867 10.75c0 6.233.021 8.759.046 5.612.026-3.146.026-8.246 0-11.333-.025-3.087-.046-.513-.046 5.721m57.63-4.667c.002.367.036.497.076.29.04-.208.038-.508-.003-.667-.042-.159-.075.01-.073.377m-15.659.917c0 .504.032.71.07.458.038-.252.038-.665 0-.917s-.07-.045-.07.459m21.159 5.454c.343.036.906.036 1.25 0 .343-.036.062-.065-.625-.065-.688 0-.969.029-.625.065m-113.643 7.296c0 1.283.027 1.786.058 1.117.032-.668.032-1.718 0-2.333-.032-.615-.058-.068-.058 1.216m86.833 0c.001 1.283.027 1.786.059 1.117.031-.668.031-1.718-.001-2.333-.032-.615-.058-.068-.058 1.216m-115.351 3.706c.531.034 1.356.033 1.833 0 .478-.034.044-.061-.964-.061-1.008.001-1.399.028-.869.061m135.579-.005c.208.04.508.038.667-.003.159-.042-.01-.075-.377-.073-.367.002-.497.036-.29.076m3.915-.003c.16.042.423.042.583 0 .161-.042.03-.076-.291-.076-.321 0-.452.034-.292.076" fill="#f48c9c"/></g></svg>